<?xml version="1.0" standalone="no"?>
<!DOCTYPE svg PUBLIC "-//W3C//DTD SVG 1.1//EN" "http://www.w3.org/Graphics/SVG/1.1/DTD/svg11.dtd" >
<svg xmlns="http://www.w3.org/2000/svg" xmlns:xlink="http://www.w3.org/1999/xlink" version="1.1">
<metadata>
Created by FontForge 20170731 at Wed Jan 13 16:11:30 2021
 By Aleksey,,,
Copyright (c) 2021 by Je're'my Schneider. All rights reserved.
</metadata>
<defs>
<font id="Kobe1.1-Regular" horiz-adv-x="496" >
  <font-face 
    font-family="Kobe1.1"
    font-weight="400"
    font-stretch="normal"
    units-per-em="1000"
    panose-1="2 0 0 0 0 0 0 0 0 0"
    ascent="770"
    descent="-230"
    x-height="415"
    cap-height="650"
    bbox="-356 -278 1203 873"
    underline-thickness="50"
    underline-position="-200"
    unicode-range="U+000D-FEFF"
  />
<missing-glyph horiz-adv-x="497" 
d="M407 0h-317v650h317v-650zM153 587v-524h191v524h-191z" />
    <glyph glyph-name="f_f.liga" unicode="ff" horiz-adv-x="592" 
d="M446 650q58 0 99 -42.5t41 -103.5v-11h-63v11q0 34 -22.5 58.5t-54.5 24.5q-34 0 -56.5 -24t-22.5 -60q0 -35 23 -61.5t56 -26.5h77v-63h-93v-352h-63v352h-175v-352h-63v352h-99v63h70q-34 35 -34 88q0 60 44.5 103.5t106.5 43.5q34 0 67.5 -15t51.5 -40q43 55 110 55z
M208 415h130q-34 34 -34 91q0 33 -26.5 57t-60.5 24q-40 0 -64 -24.5t-24 -59.5t23.5 -61.5t55.5 -26.5z" />
    <glyph glyph-name="f_f_i.liga" unicode="ffi" horiz-adv-x="723" 
d="M658 415v-415h-63v352h-165v-352h-63v352h-175v-352h-63v352h-99v63h70q-34 35 -34 88q0 60 44.5 103.5t106.5 43.5q34 0 67.5 -15t51.5 -40q43 55 110 55q58 0 99 -42.5t41 -103.5v-11h-63v11q0 34 -22.5 58.5t-54.5 24.5q-34 0 -56.5 -24t-22.5 -60q0 -35 23 -61.5
t56 -26.5h212zM208 415h130q-34 34 -34 91q0 33 -26.5 57t-60.5 24q-40 0 -64 -24.5t-24 -59.5t23.5 -61.5t55.5 -26.5z" />
    <glyph glyph-name="f_f_l.liga" unicode="ffl" horiz-adv-x="729" 
d="M656 650l3 -650h-63l-3 587h-147q-34 0 -56.5 -24t-22.5 -60q0 -35 23 -61.5t56 -26.5h77v-63h-93v-352h-63v352h-175v-352h-63v352h-99v63h70q-34 35 -34 88q0 60 44.5 103.5t106.5 43.5q34 0 67.5 -15t51.5 -40q43 55 110 55h210zM208 415h130q-34 34 -34 91
q0 33 -26.5 57t-60.5 24q-40 0 -64 -24.5t-24 -59.5t23.5 -61.5t55.5 -26.5z" />
    <glyph glyph-name="f_i.liga" unicode="fi" horiz-adv-x="485" 
d="M420 415v-415h-63v352h-165v-352h-63v352h-99v63h70q-36 33 -36 90t43 101t103 44q58 0 98 -42.5t40 -102.5v-12h-63v12q0 33 -22.5 56.5t-52.5 23.5q-35 0 -58 -22.5t-23 -57.5q0 -36 23 -63t58 -27h210z" />
    <glyph glyph-name="f_l.liga" unicode="fl" horiz-adv-x="490" 
d="M420 650v-650h-63v587h-147q-35 0 -58 -23.5t-23 -58.5q0 -36 23 -63t58 -27h75v-63h-93v-352h-63v352h-99v63h70q-36 33 -36 90t42.5 101t101.5 44h212z" />
    <glyph glyph-name=".notdef" horiz-adv-x="497" 
d="M407 0h-317v650h317v-650zM153 587v-524h191v524h-191z" />
    <glyph glyph-name=".null" horiz-adv-x="40" 
 />
    <glyph glyph-name="nonmarkingreturn" horiz-adv-x="333" 
 />
    <glyph glyph-name="CR" unicode="&#xd;" horiz-adv-x="242" 
 />
    <glyph glyph-name="space" unicode=" " horiz-adv-x="210" 
 />
    <glyph glyph-name="exclam" unicode="!" horiz-adv-x="252" 
d="M158 650v-469h-63v469h63zM126 0q-22 0 -38.5 16t-16.5 39t16.5 39t38.5 16t38.5 -16t16.5 -39t-16.5 -39t-38.5 -16z" />
    <glyph glyph-name="quotedbl" unicode="&#x22;" horiz-adv-x="311" 
d="M138 650l-11 -171h-56l-10 171h77zM243 650l-11 -171h-56l-10 171h77z" />
    <glyph glyph-name="numbersign" unicode="#" horiz-adv-x="564" 
d="M224 149v-149h-63v149h-103v63h103v110h-103v63h103v150h63v-150h114v150h63v-150h105v-63h-105v-110h105v-63h-105v-149h-63v149h-114zM338 322h-114v-110h114v110z" />
    <glyph glyph-name="dollar" unicode="$" horiz-adv-x="457" 
d="M412 166q0 -68 -45 -113t-112 -52v-68h-63v72q-61 14 -103.5 61t-42.5 111v62h64v-62q0 -37 23 -65t59 -41v232q-35 17 -55 29t-44.5 33t-36 49.5t-11.5 64.5q0 68 42 113.5t105 55.5v69h63v-70q63 -12 105 -60.5t42 -116.5v-57h-65v57q0 41 -23 71t-59 41v-238
q83 -40 120 -80t37 -98zM109 479q0 -39 21.5 -62.5t61.5 -43.5v211q-36 -9 -59.5 -36.5t-23.5 -68.5zM255 273v-208q42 6 67 31t25 70q0 39 -23.5 62t-68.5 45z" />
    <glyph glyph-name="percent" unicode="%" horiz-adv-x="806" 
d="M180 382q-56 0 -95 39t-39 95t39 95t95 39t95 -39t39 -95t-39 -95t-95 -39zM575 649l-277 -649h-68l277 649h68zM180 433q34 0 58.5 24.5t24.5 58.5t-24.5 58.5t-58.5 24.5t-58.5 -24.5t-24.5 -58.5t24.5 -58.5t58.5 -24.5zM626 0q-56 0 -95 39t-39 95t39 95t95 39
t95 -39t39 -95t-39 -95t-95 -39zM626 51q34 0 58.5 24.5t24.5 58.5t-24.5 58.5t-58.5 24.5t-58.5 -24.5t-24.5 -58.5t24.5 -58.5t58.5 -24.5z" />
    <glyph glyph-name="ampersand" unicode="&#x26;" horiz-adv-x="774" 
d="M682 189h63q-1 -78 -56.5 -133.5t-134.5 -55.5q-101 0 -159 86q-58 -86 -159 -86q-79 0 -135 56t-56 135q0 50 24.5 94.5t69.5 71.5q-65 49 -65 131q0 67 47.5 114.5t114.5 47.5q62 0 109 -42.5t52 -104.5h-64q-5 36 -33 60t-64 24q-40 0 -69.5 -29.5t-29.5 -69.5
t28.5 -71.5t66.5 -31.5h446v-63h-251v-133q0 -52 37.5 -89t89.5 -37t89.5 37t38.5 89zM236 63q49 0 88.5 35.5t39.5 78.5v145h-131q-50 0 -87.5 -40t-37.5 -91q0 -53 38 -90.5t90 -37.5z" />
    <glyph glyph-name="quotesingle" unicode="'" horiz-adv-x="199" 
d="M138 650l-11 -171h-56l-10 171h77z" />
    <glyph glyph-name="parenleft" unicode="(" horiz-adv-x="317" 
d="M182 650h75q-137 -194 -137 -402q0 -206 135 -401h-74q-37 58 -60 104t-43.5 126.5t-20.5 170.5q0 89 21 170.5t44 127t60 104.5z" />
    <glyph glyph-name="parenright" unicode=")" horiz-adv-x="277" 
d="M20 650h75q37 -59 60 -104.5t44 -127t21 -170.5q0 -129 -33 -219.5t-91 -181.5h-74q135 195 135 401q0 208 -137 402z" />
    <glyph glyph-name="asterisk" unicode="*" horiz-adv-x="361" 
d="M287 591l17 -50l-80 -26l50 -68l-43 -31l-51 68l-51 -68l-43 31l50 68l-80 26l17 50l80 -25v84h54v-84z" />
    <glyph glyph-name="plus" unicode="+" horiz-adv-x="503" 
d="M283 283v-150h-63v150h-150v63h150v150h63v-150h150v-63h-150z" />
    <glyph glyph-name="comma" unicode="," horiz-adv-x="220" 
d="M110 105q22 0 38.5 -16.5t16.5 -38.5q0 -11 -8 -32l-41 -103l-37 11l22 70q-20 3 -33 18.5t-13 35.5q0 22 16.5 38.5t38.5 16.5z" />
    <glyph glyph-name="hyphen" unicode="-" horiz-adv-x="409" 
d="M337 245v-63h-265v63h265z" />
    <glyph glyph-name="period" unicode="." horiz-adv-x="220" 
d="M110 -5q-22 0 -38.5 16.5t-16.5 38.5t16.5 38.5t38.5 16.5t38.5 -16.5t16.5 -38.5t-16.5 -38.5t-38.5 -16.5z" />
    <glyph glyph-name="slash" unicode="/" horiz-adv-x="428" 
d="M386 650l-277 -738h-67l277 738h67z" />
    <glyph glyph-name="zero" unicode="0" horiz-adv-x="759" 
d="M379 -15q-137 0 -233 98t-96 242q0 142 96 241t233 99t233.5 -99t96.5 -241q0 -144 -96 -242t-234 -98zM379 50q111 0 188 79t77 196q0 116 -77 195.5t-188 79.5q-110 0 -187 -79.5t-77 -195.5q0 -117 77 -196t187 -79z" />
    <glyph glyph-name="one" unicode="1" horiz-adv-x="225" 
d="M165 650v-650h-63v587h-63v63h126z" />
    <glyph glyph-name="two" unicode="2" horiz-adv-x="463" 
d="M349 351l-241 -288h293v-63h-373v68l266 317q41 48 41 95q0 50 -35.5 85t-85.5 35t-85.5 -35t-35.5 -85v-10h-65v9q0 77 54.5 131.5t131.5 54.5t131.5 -54.5t54.5 -131.5q0 -69 -51 -128z" />
    <glyph glyph-name="three" unicode="3" horiz-adv-x="466" 
d="M421 479q0 -99 -81 -154q81 -55 81 -154q0 -77 -54.5 -131.5t-131.5 -54.5t-131.5 54.5t-54.5 131.5v9h65v-10q0 -50 35.5 -85t85.5 -35t85.5 35t35.5 85q0 51 -35.5 86.5t-85.5 35.5h-29v66h29q50 0 85.5 35.5t35.5 86.5q0 50 -35.5 85t-85.5 35t-85.5 -35t-35.5 -85
v-10h-65v9q0 77 54.5 131.5t131.5 54.5t131.5 -54.5t54.5 -131.5z" />
    <glyph glyph-name="four" unicode="4" horiz-adv-x="505" 
d="M355 650v-442h113v-63h-113v-145h-63v145h-268l268 505h63zM292 510l-160 -302h160v302z" />
    <glyph glyph-name="five" unicode="5" horiz-adv-x="468" 
d="M217 397q86 0 146 -60.5t60 -145.5t-60.5 -145.5t-145.5 -60.5q-56 0 -104 28.5t-75 75.5l56 30q19 -32 52 -51.5t71 -19.5q59 0 101.5 42t42.5 101t-42.5 101t-101.5 42q-58 0 -96 -38h-63l67 354h230v-63h-179l-39 -207q37 17 80 17z" />
    <glyph glyph-name="six" unicode="6" horiz-adv-x="492" 
d="M328 650l-142 -260q104 25 182.5 -36.5t78.5 -162.5q0 -86 -60 -146t-146 -60t-146 60t-60 146q0 55 26 101l197 358h70zM241 48q60 0 102 41.5t42 101.5t-42 101.5t-102 41.5t-102 -42t-42 -101q0 -60 42 -101.5t102 -41.5z" />
    <glyph glyph-name="seven" unicode="7" horiz-adv-x="389" 
d="M32 587v63h327l-186 -650h-66l169 587h-244z" />
    <glyph glyph-name="eight" unicode="8" horiz-adv-x="502" 
d="M346 374q51 -26 81 -74.5t30 -108.5q0 -86 -60 -146t-146 -60t-146 60t-60 146q0 60 30.5 109t81.5 75q-25 18 -44.5 56t-19.5 73q0 69 46.5 115t112.5 46t111.5 -46t45.5 -115q0 -39 -18 -75t-45 -55zM252 598q-40 0 -66.5 -26.5t-26.5 -68.5q0 -39 27 -67.5t66 -28.5
t65 28.5t26 67.5q0 42 -26 68.5t-65 26.5zM251 48q60 0 102 41.5t42 101.5t-42 101.5t-102 41.5t-102 -41.5t-42 -101.5t42 -101.5t102 -41.5z" />
    <glyph glyph-name="nine" unicode="9" horiz-adv-x="522" 
d="M467 444q0 -55 -26 -101l-197 -358h-70l142 260q-104 -25 -182.5 36.5t-78.5 162.5q0 86 60 146t146 60t146 -60t60 -146zM261 301q60 0 102 42t42 101q0 60 -42 101.5t-102 41.5t-102 -41.5t-42 -101.5t42 -101.5t102 -41.5z" />
    <glyph glyph-name="colon" unicode=":" horiz-adv-x="220" 
d="M110 277q-22 0 -38.5 16.5t-16.5 38.5t16.5 38.5t38.5 16.5t38.5 -16.5t16.5 -38.5t-16.5 -38.5t-38.5 -16.5zM110 -5q-22 0 -38.5 16.5t-16.5 38.5t16.5 38.5t38.5 16.5t38.5 -16.5t16.5 -38.5t-16.5 -38.5t-38.5 -16.5z" />
    <glyph glyph-name="semicolon" unicode=";" horiz-adv-x="221" 
d="M111 277q-23 0 -39 16.5t-16 38.5t16 38.5t39 16.5t39 -16.5t16 -38.5t-16 -38.5t-39 -16.5zM110 105q22 0 38.5 -16.5t16.5 -38.5q0 -11 -8 -32l-41 -103l-37 11l22 70q-20 3 -33 18.5t-13 35.5q0 22 16.5 38.5t38.5 16.5z" />
    <glyph glyph-name="less" unicode="&#x3c;" horiz-adv-x="503" 
d="M214 314l184 -59v-66l-317 101v48l317 101v-67z" />
    <glyph glyph-name="equal" unicode="=" horiz-adv-x="503" 
d="M433 415v-63h-363v63h363zM433 250v-63h-363v63h363z" />
    <glyph glyph-name="greater" unicode="&#x3e;" horiz-adv-x="503" 
d="M421 338v-48l-316 -101v66l184 59l-184 58v67z" />
    <glyph glyph-name="question" unicode="?" horiz-adv-x="490" 
d="M242 650q81 0 138 -57.5t57 -137.5q0 -73 -47 -127.5t-117 -64.5v-82h-63l-1 143h44q50 0 85.5 39.5t35.5 91.5q0 54 -39 93t-93 39t-93 -39t-39 -93h-63q0 80 57.5 137.5t137.5 57.5zM242 110q22 0 38.5 -16t16.5 -39t-16.5 -39t-38.5 -16t-38.5 16t-16.5 39t16.5 39
t38.5 16z" />
    <glyph glyph-name="at" unicode="@" horiz-adv-x="557" 
d="M275 -130q-86 0 -147 61t-61 147v235q0 86 61 146.5t147 60.5q85 0 145.5 -60t61.5 -145v-271h-150q-62 0 -106 45t-44 109t44 109t106 45q50 0 88 -29q-4 57 -45.5 96.5t-99.5 39.5q-61 0 -103.5 -43t-42.5 -103v-235q0 -61 42.5 -103.5t103.5 -42.5q67 0 112 53h73
q-26 -52 -75.5 -83.5t-109.5 -31.5zM241 198q0 -39 26.5 -66.5t64.5 -27.5h88v104q0 34 -26 59t-62 25q-38 0 -64.5 -27t-26.5 -67z" />
    <glyph glyph-name="A" unicode="A" horiz-adv-x="529" 
d="M498 0h-67l-51 169h-232l-51 -169h-67l197 650h74zM264 553l-96 -319h192z" />
    <glyph glyph-name="B" unicode="B" horiz-adv-x="544" 
d="M291 0h-214v650h167q66 0 110.5 -38.5t44.5 -103.5q0 -64 -46 -104q63 -22 103 -76t40 -123q0 -83 -60.5 -144t-144.5 -61zM244 585h-102v-228q25 25 114 64q76 34 76 87q0 39 -24 58t-64 19zM142 211v-146h149q64 0 101 39.5t37 106.5q0 57 -40.5 98.5t-97.5 41.5
q-61 0 -105 -41.5t-44 -98.5z" />
    <glyph glyph-name="C" unicode="C" horiz-adv-x="727" 
d="M620 212h72q-31 -99 -116.5 -163t-191.5 -64q-140 0 -237 99t-97 245q0 141 97 238.5t237 97.5q106 0 191.5 -63.5t116.5 -162.5h-72q-31 73 -94.5 116t-141.5 43q-113 0 -190 -77t-77 -192q0 -119 76.5 -198t190.5 -79q78 0 141.5 43.5t94.5 116.5z" />
    <glyph glyph-name="D" unicode="D" horiz-adv-x="520" 
d="M145 0h-68v650h68q134 0 229.5 -95t95.5 -231q0 -135 -95 -229.5t-230 -94.5zM144 583v-516q108 0 184 74.5t76 182.5q0 109 -76 184t-184 75z" />
    <glyph glyph-name="E" unicode="E" horiz-adv-x="447" 
d="M400 65v-65h-323v650h323v-65h-258v-227h181v-65h-181v-228h258z" />
    <glyph glyph-name="F" unicode="F" horiz-adv-x="430" 
d="M142 293v-293h-65v650h323v-65h-258v-227h181v-65h-181z" />
    <glyph glyph-name="G" unicode="G" horiz-adv-x="750" 
d="M516 237v62h175v-299h-62v111q-44 -55 -112.5 -90.5t-135.5 -35.5q-137 0 -234 99.5t-97 240.5t97.5 240.5t233.5 99.5q110 0 200.5 -66.5t111.5 -163.5h-65q-31 75 -97 119t-150 44q-109 0 -186.5 -79t-77.5 -194q0 -113 77.5 -193t186.5 -80q82 0 148.5 50.5
t98.5 128.5v6h-112z" />
    <glyph glyph-name="H" unicode="H" horiz-adv-x="558" 
d="M142 293v-293h-65v650h65v-292h274v292h65v-650h-65v293h-274z" />
    <glyph glyph-name="I" unicode="I" horiz-adv-x="219" 
d="M142 650v-650h-65v650h65z" />
    <glyph glyph-name="J" unicode="J" horiz-adv-x="458" 
d="M200 585v65h182v-502q0 -68 -49 -115.5t-118 -47.5q-65 0 -113.5 41.5t-58.5 107.5h68q7 -37 37 -60.5t67 -23.5q42 0 72 28.5t30 69.5v437h-117z" />
    <glyph glyph-name="K" unicode="K" horiz-adv-x="581" 
d="M142 205v-205h-65v650h65v-282l255 282h88l-208 -232q108 12 182 -59.5t74 -179.5v-179h-65v177q0 77 -49 128.5t-113 51.5q-65 0 -114.5 -44.5t-49.5 -107.5z" />
    <glyph glyph-name="L" unicode="L" horiz-adv-x="413" 
d="M383 65v-65h-306v650h65v-585h241z" />
    <glyph glyph-name="M" unicode="M" horiz-adv-x="864" 
d="M597 665q81 0 140 -57.5t59 -138.5v-469h-65v467q0 55 -39 93.5t-95 38.5q-53 0 -92 -37t-39 -84v-478h-66l1 478q0 47 -41 84t-93 37q-56 0 -95 -38.5t-39 -93.5v-467h-65v469q0 81 58.5 138.5t140.5 57.5q107 0 165 -90q58 90 165 90z" />
    <glyph glyph-name="N" unicode="N" horiz-adv-x="592" 
d="M133 0h-65v415q0 112 66.5 181t161.5 69t161.5 -69t66.5 -181v-415h-65v415q0 86 -47 135t-116 49t-116 -49t-47 -135v-415z" />
    <glyph glyph-name="O" unicode="O" horiz-adv-x="759" 
d="M379 -15q-137 0 -233 98t-96 242q0 142 96 241t233 99t233.5 -99t96.5 -241q0 -144 -96 -242t-234 -98zM379 52q111 0 187 78t76 195t-76 195t-187 78q-110 0 -186 -78t-76 -195t76 -195t186 -78z" />
    <glyph glyph-name="P" unicode="P" horiz-adv-x="483" 
d="M77 650h186q73 0 126 -52t53 -125t-53 -125t-126 -52h-121v-296h-65v650zM263 585h-121v-224h121q47 0 80.5 33t33.5 79q0 47 -33.5 79.5t-80.5 32.5z" />
    <glyph glyph-name="Q" unicode="Q" horiz-adv-x="777" 
d="M717 -15h-64q0 53 -41 97q-95 -97 -233 -97q-137 0 -233 98t-96 242q0 142 96 241t233 99t233.5 -99t96.5 -241q0 -106 -55 -191q63 -61 63 -149zM117 325q0 -96 53 -167.5t138 -95.5q20 57 75 96.5t122 39.5q49 0 95 -24q42 67 42 151q0 117 -76 195t-187 78
q-110 0 -186 -78t-76 -195zM373 52h6q104 0 179 70q-26 12 -55 12q-35 0 -73.5 -22.5t-56.5 -59.5z" />
    <glyph glyph-name="R" unicode="R" horiz-adv-x="564" 
d="M142 179v-179h-65v650h173q73 0 120.5 -43t47.5 -111q0 -38 -17.5 -71t-41.5 -53q75 -14 116 -72t41 -134v-166h-65v166q0 70 -42.5 112.5t-111.5 42.5q-58 0 -106.5 -42t-48.5 -100zM250 585h-108v-265q30 30 122 72q89 41 89 104q0 42 -28.5 65.5t-74.5 23.5z" />
    <glyph glyph-name="S" unicode="S" horiz-adv-x="457" 
d="M46 162v62h64v-62q0 -48 38.5 -80.5t85.5 -32.5t80 33t33 83q0 44 -26.5 70.5t-75.5 47.5l-39 17q-73 32 -117 75t-44 110q0 77 52.5 128.5t124.5 51.5q74 0 127 -51.5t53 -128.5v-57h-65v57q0 50 -34 83.5t-81 33.5q-45 0 -79 -33.5t-34 -83.5q0 -73 101 -115l41 -17
q161 -67 161 -188q0 -76 -52.5 -128t-125.5 -52t-130.5 51t-57.5 126z" />
    <glyph glyph-name="T" unicode="T" horiz-adv-x="441" 
d="M253 585v-585h-65v585h-145v65h355v-65h-145z" />
    <glyph glyph-name="U" unicode="U" horiz-adv-x="556" 
d="M63 198v452h65v-452q0 -61 44 -104.5t106 -43.5t106 43.5t44 104.5v452h65v-452q0 -88 -63.5 -150.5t-151.5 -62.5t-151.5 62.5t-63.5 150.5z" />
    <glyph glyph-name="V" unicode="V" horiz-adv-x="530" 
d="M229 0l-199 650h68l167 -548l167 548h68l-198 -650h-73z" />
    <glyph glyph-name="W" unicode="W" horiz-adv-x="875" 
d="M272 -15q-81 0 -139 57.5t-58 139.5v468h63v-466q0 -56 39 -95t95 -39q54 0 94 37.5t40 85.5v477h63v-477q0 -49 40 -86t93 -37q56 0 95.5 39.5t39.5 94.5v466h63v-468q0 -82 -58 -139.5t-140 -57.5q-49 0 -93 24t-72 66q-25 -42 -70 -66t-95 -24z" />
    <glyph glyph-name="X" unicode="X" horiz-adv-x="502" 
d="M397 650h75l-184 -325l184 -325h-75l-146 258l-146 -258h-75l183 325l-183 325h75l146 -259z" />
    <glyph glyph-name="Y" unicode="Y" horiz-adv-x="492" 
d="M246 400l145 250h76l-189 -325v-325h-65v325l-188 325h76z" />
    <glyph glyph-name="Z" unicode="Z" horiz-adv-x="504" 
d="M476 650l-344 -587h352v-63h-464l345 587h-321v63h432z" />
    <glyph glyph-name="bracketleft" unicode="[" horiz-adv-x="270" 
d="M221 -90v-63h-129v803h129v-63h-66v-677h66z" />
    <glyph glyph-name="backslash" unicode="\" horiz-adv-x="428" 
d="M109 650l277 -738h-67l-277 738h67z" />
    <glyph glyph-name="bracketright" unicode="]" horiz-adv-x="270" 
d="M178 650v-803h-129v63h66v677h-66v63h129z" />
    <glyph glyph-name="asciicircum" unicode="^" horiz-adv-x="355" 
d="M202 415l100 -317h-66l-58 183l-59 -183h-66l101 317h48z" />
    <glyph glyph-name="underscore" unicode="_" horiz-adv-x="596" 
d="M62 -93v63h472v-63h-472z" />
    <glyph glyph-name="grave" unicode="`" horiz-adv-x="304" 
d="M77 652l177 -90l-27 -54l-177 89z" />
    <glyph glyph-name="a" unicode="a" horiz-adv-x="518" 
d="M390 420h63v-420h-63v61q-12 -24 -53 -47.5t-95 -23.5q-88 0 -147.5 60t-59.5 157q0 95 58 156.5t151 61.5q102 0 146 -61v56zM244 55q61 0 103.5 41.5t42.5 99.5v23q0 61 -41 101t-105 40q-65 0 -104.5 -43t-39.5 -110q0 -70 42 -111t102 -41z" />
    <glyph glyph-name="b" unicode="b" horiz-adv-x="523" 
d="M279 425q87 0 148 -61.5t61 -156.5t-60 -156t-147 -61q-54 0 -94.5 22.5t-53.5 46.5v-59h-63v650h63v-292q47 67 146 67zM279 55q60 0 102 42t42 110t-42 110.5t-102 42.5q-59 0 -102.5 -40.5t-43.5 -100.5v-23q0 -57 43 -99t103 -42z" />
    <glyph glyph-name="c" unicode="c" horiz-adv-x="480" 
d="M379 145h66q-22 -75 -78 -115t-124 -40q-86 0 -147 61.5t-61 155.5q0 91 62 154.5t146 63.5q70 0 125 -41t77 -115h-66q-36 91 -136 91q-59 0 -101 -44t-42 -109q0 -67 41.5 -109.5t101.5 -42.5q102 0 136 90z" />
    <glyph glyph-name="d" unicode="d" horiz-adv-x="523" 
d="M390 650h63v-650h-63v61q-12 -24 -53 -47.5t-95 -23.5q-87 0 -147 61t-60 156q0 96 61.5 157t153.5 61q99 0 140 -59v284zM244 55q59 0 102.5 42t43.5 99v23q0 60 -43 100.5t-103 40.5q-62 0 -103 -42t-41 -111q0 -68 41.5 -110t102.5 -42z" />
    <glyph glyph-name="e" unicode="e" horiz-adv-x="474" 
d="M237 55q82 0 124 71h65q-23 -60 -73.5 -98t-115.5 -38q-86 0 -144 60t-58 153t58 157.5t141 64.5q90 0 147.5 -67t57.5 -162h-343q2 -65 43 -103t98 -38zM237 360q-46 0 -81 -29.5t-49 -77.5h260q-14 47 -49 77t-81 30z" />
    <glyph glyph-name="f" unicode="f" horiz-adv-x="354" 
d="M348 493h-63q0 44 -21 68t-54 24q-35 0 -58 -22.5t-23 -57.5q0 -36 23 -63t58 -27h75v-63h-93v-352h-63v352h-99v63h70q-36 33 -36 90t43 101t103 44q61 0 99.5 -43t38.5 -114z" />
    <glyph glyph-name="g" unicode="g" 
d="M238 415h238v-63h-88q58 -60 58 -150t-60 -153.5t-145 -63.5q-86 0 -146 63.5t-60 153.5q0 91 59.5 152t143.5 61zM241 50q59 0 99.5 44.5t40.5 107.5q0 59 -41.5 103.5t-98.5 44.5q-59 0 -100 -41t-41 -107q0 -63 40.5 -107.5t100.5 -44.5zM238 -167q57 0 98.5 42.5
t41.5 102.5h63q0 -86 -60 -147t-143 -61t-143 61t-60 147h63q0 -60 41.5 -102.5t98.5 -42.5z" />
    <glyph glyph-name="h" unicode="h" horiz-adv-x="466" 
d="M133 0h-63v650h63v-291q44 66 127 66q69 0 112 -41.5t43 -114.5v-269h-63v253q0 109 -107 109q-51 0 -81.5 -34t-30.5 -83v-245z" />
    <glyph glyph-name="i" unicode="i" horiz-adv-x="226" 
d="M113 500q-20 0 -34 14t-14 34t14 34t34 14q19 0 33.5 -14t14.5 -34t-14 -34t-34 -14zM149 415v-415h-63v352h-40v63h103z" />
    <glyph glyph-name="j" unicode="j" horiz-adv-x="239" 
d="M126 500q-20 0 -34 14t-14 34t14 34t34 14t34 -14t14 -34t-14 -34t-34 -14zM101 352h-41v63h104v-417q0 -50 -34 -85t-83 -36h-1v63q23 0 39 17t16 41v354z" />
    <glyph glyph-name="k" unicode="k" horiz-adv-x="428" 
d="M160 239l166 176h87l-196 -207l196 -208h-86l-167 177h-27v-177h-63v650h63v-411h27z" />
    <glyph glyph-name="l" unicode="l" horiz-adv-x="203" 
d="M133 650v-650h-63v650h63z" />
    <glyph glyph-name="m" unicode="m" horiz-adv-x="707" 
d="M128 0h-63v415h63v-56q13 29 42 47.5t68 18.5q74 0 122 -69q51 69 137 69q67 0 113 -41.5t46 -116.5v-267h-63v258q0 51 -28 77.5t-72 26.5t-72.5 -27t-28.5 -76v-259h-63v259q0 49 -29 76t-72 27q-45 0 -72.5 -30t-27.5 -82v-250z" />
    <glyph glyph-name="n" unicode="n" horiz-adv-x="461" 
d="M128 0h-63v415h63v-56q44 66 125 66q71 0 114 -41.5t43 -114.5v-269h-63v253q0 109 -107 109q-51 0 -81.5 -31.5t-30.5 -80.5v-250z" />
    <glyph glyph-name="o" unicode="o" horiz-adv-x="493" 
d="M247 425q87 0 149 -62.5t62 -151.5q0 -91 -62 -156t-149 -65q-88 0 -150 65t-62 156q0 89 62 151.5t150 62.5zM247 54q61 0 104 46t43 111q0 63 -43 106.5t-104 43.5t-104.5 -43.5t-43.5 -106.5q0 -64 43.5 -110.5t104.5 -46.5z" />
    <glyph glyph-name="p" unicode="p" horiz-adv-x="523" 
d="M70 -230v645h63v-61q12 24 53 47.5t95 23.5q87 0 147 -61t60 -156q0 -96 -61.5 -157t-153.5 -61q-27 0 -51.5 6.5t-40 15t-27 17.5t-16.5 15l-5 7v-281h-63zM279 360q-59 0 -102.5 -42t-43.5 -99v-23q0 -60 43 -100.5t103 -40.5q62 0 103 42t41 111q0 68 -41.5 110
t-102.5 42z" />
    <glyph glyph-name="q" unicode="q" horiz-adv-x="518" 
d="M242 425q54 0 95 -23.5t53 -47.5v61h63v-645h-63v281q-2 -2 -5.5 -6.5t-16 -15t-27.5 -18.5t-39.5 -14.5t-51.5 -6.5q-92 0 -153.5 61t-61.5 157q0 95 60 156t147 61zM244 360q-61 0 -102.5 -42t-41.5 -110q0 -69 41 -111t103 -42q60 0 103 40.5t43 100.5v23
q0 57 -43.5 99t-102.5 42z" />
    <glyph glyph-name="r" unicode="r" horiz-adv-x="336" 
d="M270 415h37v-63h-31q-64 0 -106 -38t-42 -105v-209h-63v415h63v-81q55 81 142 81z" />
    <glyph glyph-name="s" unicode="s" horiz-adv-x="379" 
d="M200 47q38 0 57 20.5t19 47.5q0 9 -3 17t-11 14.5t-13.5 10.5t-19 9t-18.5 7t-21.5 6t-18.5 5q-59 16 -94.5 43t-35.5 79q0 51 44 85t105 34q56 0 93 -32t49 -83h-66q-6 23 -27.5 39t-56.5 16q-31 0 -53.5 -15t-22.5 -37q0 -25 21.5 -44.5t82.5 -34.5t95 -42t34 -77
q0 -56 -39.5 -90.5t-103.5 -34.5q-61 0 -102 33.5t-54 89.5h69q11 -33 31 -49.5t60 -16.5z" />
    <glyph glyph-name="t" unicode="t" horiz-adv-x="309" 
d="M180 352h99v63h-110q49 34 65 139h-65q-8 -61 -44 -100t-95 -39v-63h87v-247q0 -41 33 -73t77 -32h52v63h-52q-22 0 -34.5 14.5t-12.5 35.5v239z" />
    <glyph glyph-name="u" unicode="u" horiz-adv-x="465" 
d="M51 159v256h63v-254q0 -54 33 -80t80 -26q50 0 80 31t30 85v244h63v-415h-63v47q-41 -57 -118 -57q-76 0 -122 42.5t-46 126.5z" />
    <glyph glyph-name="v" unicode="v" horiz-adv-x="470" 
d="M235 75l145 340h70l-180 -415h-70l-180 415h70z" />
    <glyph glyph-name="w" unicode="w" horiz-adv-x="732" 
d="M503 74l141 341h68l-174 -415h-70l-102 235l-102 -235h-70l-174 415h68l142 -341l102 238l-44 103h68z" />
    <glyph glyph-name="x" unicode="x" horiz-adv-x="402" 
d="M301 415h73l-137 -208l137 -207h-73l-100 152l-100 -152h-73l136 207l-136 208h73l100 -152z" />
    <glyph glyph-name="y" unicode="y" horiz-adv-x="480" 
d="M352 171v244h63v-439q0 -86 -60.5 -146t-143.5 -60q-71 0 -127 46t-71 117h65q14 -43 51 -70.5t82 -27.5q57 0 99 42.5t42 102.5v61q-39 -51 -109 -51q-80 0 -128 47.5t-48 123.5v254h63v-252q0 -46 33 -76.5t80 -30.5q49 0 79 35t30 80z" />
    <glyph glyph-name="z" unicode="z" horiz-adv-x="444" 
d="M52 415h340v-63l-258 -289h258v-63h-340v63l258 289h-258v63z" />
    <glyph glyph-name="braceleft" unicode="{" horiz-adv-x="341" 
d="M305 -90v-63h-52q-65 0 -97.5 48t-32.5 122v70q0 73 -19.5 101.5t-63.5 28.5v63q44 0 63.5 28.5t19.5 101.5v70q0 74 32.5 122t97.5 48h52v-63h-19q-59 0 -79.5 -31t-20.5 -109v-50q0 -82 -17 -114.5t-58 -32.5v-3q41 0 58 -32.5t17 -114.5v-50q0 -78 20.5 -109t79.5 -31
h19z" />
    <glyph glyph-name="bar" unicode="|" horiz-adv-x="217" 
d="M140 650v-650h-63v650h63z" />
    <glyph glyph-name="braceright" unicode="}" horiz-adv-x="341" 
d="M88 -153h-52v63h19q59 0 79.5 31t20.5 109v50q0 82 17 114.5t58 32.5v3q-41 0 -58 32.5t-17 114.5v50q0 78 -20.5 109t-79.5 31h-19v63h52q65 0 97.5 -48t32.5 -122v-70q0 -73 19.5 -101.5t63.5 -28.5v-63q-44 0 -63.5 -28.5t-19.5 -101.5v-70q0 -74 -32.5 -122
t-97.5 -48z" />
    <glyph glyph-name="asciitilde" unicode="~" horiz-adv-x="503" 
d="M144 266l-52 35q31 55 95 55q21 0 71 -11t61 -11q23 0 40 23l53 -38q-38 -53 -92 -53q-19 0 -59 11t-63 11q-40 0 -54 -22z" />
    <glyph glyph-name="uni00A0" unicode="&#xa0;" horiz-adv-x="242" 
 />
    <glyph glyph-name="exclamdown" unicode="&#xa1;" horiz-adv-x="252" 
d="M126 420q22 0 38.5 -16t16.5 -39t-16.5 -39t-38.5 -16t-38.5 16t-16.5 39t16.5 39t38.5 16zM95 239h63v-469h-63v469z" />
    <glyph glyph-name="cent" unicode="&#xa2;" horiz-adv-x="480" 
d="M271 452v-301q80 13 108 88h66q-20 -68 -67 -106.5t-107 -46.5v-86h-63v87q-75 12 -124 71t-49 143q0 81 50 141t123 74v86h63v-85q61 -8 107.5 -47.5t66.5 -106.5h-66q-31 76 -108 89zM100 301q0 -57 30 -96.5t78 -51.5v296q-47 -12 -77.5 -52.5t-30.5 -95.5z" />
    <glyph glyph-name="sterling" unicode="&#xa3;" horiz-adv-x="624" 
d="M357 587q-66 0 -112.5 -45.5t-46.5 -111.5q0 -30 16 -80h187v-63h-172q6 -42 6 -70q2 -86 -31 -154h296v-63h-442v63h76q40 59 40 147q0 38 -7 77h-109v63h92q-15 43 -15 80q0 91 65 155.5t157 64.5q91 0 155 -64.5t64 -155.5h-63q0 66 -45.5 111.5t-110.5 45.5z" />
    <glyph glyph-name="currency" unicode="&#xa4;" horiz-adv-x="621" 
d="M514 252q0 -66 -39 -119l88 -88l-45 -45l-88 88q-56 -40 -119 -40q-64 0 -120 40l-88 -88l-44 45l88 88q-40 56 -40 119q0 65 40 119l-88 88l44 45l88 -88q56 40 120 40q63 0 119 -40l88 88l45 -45l-88 -88q39 -53 39 -119zM311 111q57 0 98.5 41t41.5 100
q0 60 -41.5 100.5t-98.5 40.5q-58 0 -99.5 -41t-41.5 -100q0 -60 42 -100.5t99 -40.5z" />
    <glyph glyph-name="yen" unicode="&#xa5;" horiz-adv-x="485" 
d="M387 650h73l-183 -324h108v-65h-111v-68h111v-65h-111v-128h-63v128h-111v65h111v68h-111v65h108l-183 324h73l145 -263z" />
    <glyph glyph-name="brokenbar" unicode="&#xa6;" horiz-adv-x="247" 
d="M155 650v-265h-63v265h63zM155 265v-265h-63v265h63z" />
    <glyph glyph-name="section" unicode="&#xa7;" horiz-adv-x="409" 
d="M197 0q-53 0 -91.5 37t-38.5 89v51h61v-51q0 -27 20 -46t49 -19q28 0 48.5 20t20.5 48q0 29 -21 46.5t-74 39.5q-47 20 -75.5 54.5t-28.5 79.5q0 58 44 96q-28 36 -28 77q0 53 38 90.5t92 37.5q53 0 91 -37.5t38 -90.5v-47h-60v47q0 28 -20 47.5t-49 19.5t-49 -19.5
t-20 -47.5q0 -29 21 -47t75 -42q102 -45 102 -132q0 -58 -44 -96q29 -34 29 -76q0 -53 -38.5 -91t-91.5 -38zM250 245q32 21 32 56q0 48 -67 78q-38 16 -56 27q-31 -21 -31 -57q0 -50 67 -78q41 -17 55 -26z" />
    <glyph glyph-name="dieresis" unicode="&#xa8;" horiz-adv-x="335" 
d="M92 568q-17 0 -29.5 12.5t-12.5 29.5t12.5 29t29.5 12t29.5 -12t12.5 -29t-12.5 -29.5t-29.5 -12.5zM243 568q-17 0 -29 12.5t-12 29.5t12 29t29 12t29.5 -12t12.5 -29t-12.5 -29.5t-29.5 -12.5z" />
    <glyph glyph-name="copyright" unicode="&#xa9;" horiz-adv-x="513" 
d="M256 243q-84 0 -143.5 59.5t-59.5 143.5q0 85 59.5 144.5t143.5 59.5t144 -59.5t60 -144.5q0 -84 -60 -143.5t-144 -59.5zM256 284q67 0 114.5 47.5t47.5 114.5t-47.5 114.5t-114.5 47.5t-114.5 -47.5t-47.5 -114.5t47.5 -114.5t114.5 -47.5zM257 342q-43 0 -74 30.5
t-31 73.5q0 44 31 74.5t74 30.5q79 0 105 -87h-45q-19 44 -60 44q-26 0 -44 -18t-18 -44t18.5 -44t43.5 -18q40 0 60 45h45q-26 -87 -105 -87z" />
    <glyph glyph-name="guillemotleft" unicode="&#xab;" horiz-adv-x="463" 
d="M139 199l96 -96l-44 -45l-141 141l144 145l45 -45zM298 199l96 -96l-44 -45l-141 141l144 145l45 -45z" />
    <glyph glyph-name="logicalnot" unicode="&#xac;" horiz-adv-x="503" 
d="M430 377v-144h-63v81h-300v63h363z" />
    <glyph glyph-name="uni00AD" unicode="&#xad;" horiz-adv-x="409" 
d="M337 245v-63h-265v63h265z" />
    <glyph glyph-name="registered" unicode="&#xae;" horiz-adv-x="513" 
d="M256 243q-84 0 -143.5 59.5t-59.5 143.5q0 85 59.5 144.5t143.5 59.5t144 -59.5t60 -144.5q0 -84 -60 -143.5t-144 -59.5zM256 284q67 0 114.5 47.5t47.5 114.5t-47.5 114.5t-114.5 47.5t-114.5 -47.5t-47.5 -114.5t47.5 -114.5t114.5 -47.5zM233 404v-61h-42v207h61
q25 0 42 -17t17 -42q0 -15 -6 -27q35 -23 35 -63v-58h-42v58q0 13 -9.5 22.5t-22.5 9.5t-23 -8.5t-10 -20.5zM252 508h-19v-40q11 4 21 6q15 3 15 17q0 17 -17 17z" />
    <glyph glyph-name="macron" unicode="&#xaf;" horiz-adv-x="254" 
d="M204 650v-63h-154v63h154z" />
    <glyph glyph-name="degree" unicode="&#xb0;" horiz-adv-x="370" 
d="M185 382q-55 0 -94.5 39.5t-39.5 94.5q0 56 39.5 95t94.5 39t94.5 -39t39.5 -95q0 -55 -39.5 -94.5t-94.5 -39.5zM185 433q34 0 58.5 24.5t24.5 58.5q0 35 -24.5 59.5t-58.5 24.5t-58.5 -24.5t-24.5 -59.5q0 -34 24.5 -58.5t58.5 -24.5z" />
    <glyph glyph-name="plusminus" unicode="&#xb1;" horiz-adv-x="503" 
d="M283 339v-81h-63v81h-147v63h147v81h63v-81h147v-63h-147zM433 191v-63h-363v63h363z" />
    <glyph glyph-name="acute" unicode="&#xb4;" horiz-adv-x="305" 
d="M77 517l-27 54l178 79l27 -55z" />
    <glyph glyph-name="uni00B5" unicode="&#xb5;" horiz-adv-x="470" 
d="M356 171v244h63v-415h-63v47q-23 -32 -49.5 -44.5t-68.5 -12.5q-62 0 -105 30v-250h-63v645h63v-254q0 -55 30.5 -80.5t82.5 -25.5q45 0 77.5 32t32.5 84z" />
    <glyph glyph-name="paragraph" unicode="&#xb6;" horiz-adv-x="545" 
d="M329 295v-295h-63v294h-41q-73 0 -125.5 52t-52.5 126t52.5 126t125.5 52h104v-292h55v292h63v-650h-63v295h-55zM225 358h41v228h-41q-47 0 -81 -33.5t-34 -80.5t34 -80.5t81 -33.5z" />
    <glyph glyph-name="periodcentered" unicode="&#xb7;" horiz-adv-x="310" 
d="M149 133q-23 0 -39 16.5t-16 38.5t16 38.5t39 16.5t39 -16.5t16 -38.5t-16 -38.5t-39 -16.5z" />
    <glyph glyph-name="cedilla" unicode="&#xb8;" horiz-adv-x="252" 
d="M195 12l-46 -45q24 -8 38.5 -28.5t14.5 -45.5q0 -32 -22 -55t-54 -23q-28 0 -49 17.5t-27 43.5h46q10 -18 30 -18q14 0 24 10.5t10 24.5t-10 24.5t-25 10.5q-17 0 -27 -13h-48q6 20 23 36l92 92z" />
    <glyph glyph-name="guillemotright" unicode="&#xbb;" horiz-adv-x="464" 
d="M114 344l141 -141l-144 -145l-45 45l100 100l-97 96zM273 344l141 -141l-144 -145l-45 45l100 100l-97 96z" />
    <glyph glyph-name="questiondown" unicode="&#xbf;" horiz-adv-x="481" 
d="M242 310q-22 0 -38.5 16t-16.5 39t16.5 39t38.5 16t38.5 -16t16.5 -39t-16.5 -39t-38.5 -16zM374 -35h63q0 -80 -57.5 -137.5t-137.5 -57.5q-81 0 -138 57.5t-57 137.5q0 73 47 127.5t117 64.5v82h63l1 -143h-44q-50 0 -85.5 -39.5t-35.5 -91.5q0 -54 39 -93t93 -39
t93 39t39 93z" />
    <glyph glyph-name="Agrave" unicode="&#xc0;" horiz-adv-x="529" 
d="M188 846l188 -95l-27 -54l-188 94zM498 0h-67l-51 169h-232l-51 -169h-67l197 650h74zM264 553l-96 -319h192z" />
    <glyph glyph-name="Aacute" unicode="&#xc1;" horiz-adv-x="529" 
d="M348 846l27 -55l-188 -94l-27 54zM498 0h-67l-51 169h-232l-51 -169h-67l197 650h74zM264 553l-96 -319h192z" />
    <glyph glyph-name="Acircumflex" unicode="&#xc2;" horiz-adv-x="529" 
d="M331 702l-67 57l-67 -57h-86l152 140h2l152 -140h-86zM498 0h-67l-51 169h-232l-51 -169h-67l197 650h74zM264 553l-96 -319h192z" />
    <glyph glyph-name="Atilde" unicode="&#xc3;" horiz-adv-x="529" 
d="M206 733q-29 0 -29 -37h-44q5 100 78 100q25 0 59.5 -16t48.5 -16q32 0 32 38h44q-8 -100 -75 -100q-26 0 -62 15.5t-52 15.5zM498 0h-67l-51 169h-232l-51 -169h-67l197 650h74zM264 553l-96 -319h192z" />
    <glyph glyph-name="Adieresis" unicode="&#xc4;" horiz-adv-x="529" 
d="M195 716q-17 0 -29.5 12.5t-12.5 29.5t12.5 29t29.5 12t29.5 -12t12.5 -29t-12.5 -29.5t-29.5 -12.5zM334 716q-17 0 -29 12.5t-12 29.5t12 29t29 12t29.5 -12t12.5 -29t-12.5 -29.5t-29.5 -12.5zM498 0h-67l-51 169h-232l-51 -169h-67l197 650h74zM264 553l-96 -319h192
z" />
    <glyph glyph-name="Aring" unicode="&#xc5;" horiz-adv-x="530" 
d="M301 649l198 -649h-67l-51 168h-232l-51 -168h-68l198 649q-49 25 -49 79q0 35 25.5 61t60.5 26t61 -26t26 -61q0 -25 -14 -46.5t-37 -32.5zM265 774q-18 0 -31.5 -13.5t-13.5 -32.5q0 -20 13 -32t32 -12q20 0 33 12t13 32q0 19 -13.5 32.5t-32.5 13.5zM265 553l-97 -321
h194z" />
    <glyph glyph-name="AE" unicode="&#xc6;" horiz-adv-x="797" 
d="M750 650v-65h-258v-227h181v-65h-181v-228h258v-65h-323v168h-230l-93 -168h-74l359 650h361zM427 586l-195 -354h195v354z" />
    <glyph glyph-name="Ccedilla" unicode="&#xc7;" horiz-adv-x="727" 
d="M384 52q78 0 141.5 43.5t94.5 116.5h72q-29 -94 -108.5 -156.5t-177.5 -69.5l-32 -31q24 -8 38.5 -28.5t14.5 -45.5q0 -32 -22 -55t-54 -23q-28 0 -49 17.5t-27 43.5h46q10 -18 30 -18q14 0 24 10.5t10 24.5t-10 24.5t-25 10.5q-17 0 -27 -13h-48q5 18 23 36l47 48
q-127 14 -211 110.5t-84 231.5q0 141 97 238.5t237 97.5q106 0 191.5 -63.5t116.5 -162.5h-72q-31 73 -94.5 116t-141.5 43q-113 0 -190 -77t-77 -192q0 -119 76.5 -198t190.5 -79z" />
    <glyph glyph-name="Egrave" unicode="&#xc8;" horiz-adv-x="447" 
d="M165 846l188 -95l-27 -54l-188 94zM400 65v-65h-323v650h323v-65h-258v-227h181v-65h-181v-228h258z" />
    <glyph glyph-name="Eacute" unicode="&#xc9;" horiz-adv-x="447" 
d="M164 697l-27 54l188 95l27 -55zM400 65v-65h-323v650h323v-65h-258v-227h181v-65h-181v-228h258z" />
    <glyph glyph-name="Ecircumflex" unicode="&#xca;" horiz-adv-x="447" 
d="M240 842h2l152 -140h-86l-67 57l-67 -57h-86zM400 65v-65h-323v650h323v-65h-258v-227h181v-65h-181v-228h258z" />
    <glyph glyph-name="Edieresis" unicode="&#xcb;" horiz-adv-x="447" 
d="M172 716q-17 0 -29.5 12.5t-12.5 29.5t12.5 29t29.5 12t29.5 -12t12.5 -29t-12.5 -29.5t-29.5 -12.5zM311 716q-17 0 -29 12.5t-12 29.5t12 29t29 12t29.5 -12t12.5 -29t-12.5 -29.5t-29.5 -12.5zM400 65v-65h-323v650h323v-65h-258v-227h181v-65h-181v-228h258z" />
    <glyph glyph-name="Igrave" unicode="&#xcc;" horiz-adv-x="219" 
d="M33 846l188 -95l-27 -54l-188 94zM142 650v-650h-65v650h65z" />
    <glyph glyph-name="Iacute" unicode="&#xcd;" horiz-adv-x="219" 
d="M32 697l-27 54l188 95l27 -55zM142 650v-650h-65v650h65z" />
    <glyph glyph-name="Icircumflex" unicode="&#xce;" horiz-adv-x="219" 
d="M108 842h2l152 -140h-86l-67 57l-67 -57h-86zM142 650v-650h-65v650h65z" />
    <glyph glyph-name="Idieresis" unicode="&#xcf;" horiz-adv-x="219" 
d="M40 716q-17 0 -29.5 12.5t-12.5 29.5t12.5 29t29.5 12t29.5 -12t12.5 -29t-12.5 -29.5t-29.5 -12.5zM179 716q-17 0 -29 12.5t-12 29.5t12 29t29 12t29.5 -12t12.5 -29t-12.5 -29.5t-29.5 -12.5zM142 650v-650h-65v650h65z" />
    <glyph glyph-name="Eth" unicode="&#xd0;" horiz-adv-x="542" 
d="M99 650h68q134 0 229.5 -95t95.5 -231q0 -135 -95 -229.5t-230 -94.5h-68v294h-63v65h63v291zM166 294v-227q108 0 184 74.5t76 182.5q0 109 -76 184t-184 75v-224h119v-65h-119z" />
    <glyph glyph-name="Ntilde" unicode="&#xd1;" horiz-adv-x="592" 
d="M209 696h-44q5 100 78 100q25 0 59.5 -16t48.5 -16q32 0 32 38h44q-8 -100 -75 -100q-26 0 -62 15.5t-52 15.5q-29 0 -29 -37zM133 0h-65v415q0 112 66.5 181t161.5 69t161.5 -69t66.5 -181v-415h-65v415q0 86 -47 135t-116 49t-116 -49t-47 -135v-415z" />
    <glyph glyph-name="Ograve" unicode="&#xd2;" horiz-adv-x="759" 
d="M303 846l188 -95l-27 -54l-188 94zM379 -15q-137 0 -233 98t-96 242q0 142 96 241t233 99t233.5 -99t96.5 -241q0 -144 -96 -242t-234 -98zM379 52q111 0 187 78t76 195t-76 195t-187 78q-110 0 -186 -78t-76 -195t76 -195t186 -78z" />
    <glyph glyph-name="Oacute" unicode="&#xd3;" horiz-adv-x="759" 
d="M302 697l-27 54l188 95l27 -55zM379 -15q-137 0 -233 98t-96 242q0 142 96 241t233 99t233.5 -99t96.5 -241q0 -144 -96 -242t-234 -98zM379 52q111 0 187 78t76 195t-76 195t-187 78q-110 0 -186 -78t-76 -195t76 -195t186 -78z" />
    <glyph glyph-name="Ocircumflex" unicode="&#xd4;" horiz-adv-x="759" 
d="M378 842h2l152 -140h-86l-67 57l-67 -57h-86zM379 -15q-137 0 -233 98t-96 242q0 142 96 241t233 99t233.5 -99t96.5 -241q0 -144 -96 -242t-234 -98zM379 52q111 0 187 78t76 195t-76 195t-187 78q-110 0 -186 -78t-76 -195t76 -195t186 -78z" />
    <glyph glyph-name="Otilde" unicode="&#xd5;" horiz-adv-x="759" 
d="M292 696h-44q5 100 78 100q25 0 59.5 -16t48.5 -16q32 0 32 38h44q-8 -100 -75 -100q-26 0 -62 15.5t-52 15.5q-29 0 -29 -37zM379 -15q-137 0 -233 98t-96 242q0 142 96 241t233 99t233.5 -99t96.5 -241q0 -144 -96 -242t-234 -98zM379 52q111 0 187 78t76 195t-76 195
t-187 78q-110 0 -186 -78t-76 -195t76 -195t186 -78z" />
    <glyph glyph-name="Odieresis" unicode="&#xd6;" horiz-adv-x="759" 
d="M310 716q-17 0 -29.5 12.5t-12.5 29.5t12.5 29t29.5 12t29.5 -12t12.5 -29t-12.5 -29.5t-29.5 -12.5zM449 716q-17 0 -29 12.5t-12 29.5t12 29t29 12t29.5 -12t12.5 -29t-12.5 -29.5t-29.5 -12.5zM379 -15q-137 0 -233 98t-96 242q0 142 96 241t233 99t233.5 -99
t96.5 -241q0 -144 -96 -242t-234 -98zM379 52q111 0 187 78t76 195t-76 195t-187 78q-110 0 -186 -78t-76 -195t76 -195t186 -78z" />
    <glyph glyph-name="multiply" unicode="&#xd7;" horiz-adv-x="503" 
d="M371 150l-120 119l-120 -120l-45 46l120 119l-119 120l44 45l120 -120l120 121l45 -46l-120 -120l119 -119z" />
    <glyph glyph-name="Oslash" unicode="&#xd8;" horiz-adv-x="759" 
d="M696 650l-77 -91q90 -98 90 -234q0 -144 -96 -242t-234 -98q-107 0 -191 61l-67 -80l-50 42l69 82q-90 96 -90 235q0 142 96 241t233 99q106 0 192 -62l75 89zM117 325q0 -107 66 -184l345 411q-67 46 -149 46q-110 0 -186 -78t-76 -195zM379 52q111 0 187 78t76 195
q0 108 -65 183l-346 -411q65 -45 148 -45z" />
    <glyph glyph-name="Ugrave" unicode="&#xd9;" horiz-adv-x="556" 
d="M202 846l188 -95l-27 -54l-188 94zM63 198v452h65v-452q0 -61 44 -104.5t106 -43.5t106 43.5t44 104.5v452h65v-452q0 -88 -63.5 -150.5t-151.5 -62.5t-151.5 62.5t-63.5 150.5z" />
    <glyph glyph-name="Uacute" unicode="&#xda;" horiz-adv-x="556" 
d="M201 697l-27 54l188 95l27 -55zM63 198v452h65v-452q0 -61 44 -104.5t106 -43.5t106 43.5t44 104.5v452h65v-452q0 -88 -63.5 -150.5t-151.5 -62.5t-151.5 62.5t-63.5 150.5z" />
    <glyph glyph-name="Ucircumflex" unicode="&#xdb;" horiz-adv-x="556" 
d="M277 842h2l152 -140h-86l-67 57l-67 -57h-86zM63 198v452h65v-452q0 -61 44 -104.5t106 -43.5t106 43.5t44 104.5v452h65v-452q0 -88 -63.5 -150.5t-151.5 -62.5t-151.5 62.5t-63.5 150.5z" />
    <glyph glyph-name="Udieresis" unicode="&#xdc;" horiz-adv-x="556" 
d="M209 716q-17 0 -29.5 12.5t-12.5 29.5t12.5 29t29.5 12t29.5 -12t12.5 -29t-12.5 -29.5t-29.5 -12.5zM348 716q-17 0 -29 12.5t-12 29.5t12 29t29 12t29.5 -12t12.5 -29t-12.5 -29.5t-29.5 -12.5zM63 198v452h65v-452q0 -61 44 -104.5t106 -43.5t106 43.5t44 104.5v452
h65v-452q0 -88 -63.5 -150.5t-151.5 -62.5t-151.5 62.5t-63.5 150.5z" />
    <glyph glyph-name="Yacute" unicode="&#xdd;" horiz-adv-x="492" 
d="M169 697l-27 54l188 95l27 -55zM246 400l145 250h76l-189 -325v-325h-65v325l-188 325h76z" />
    <glyph glyph-name="Thorn" unicode="&#xde;" horiz-adv-x="500" 
d="M153 149v-149h-63v650h63v-146h121q73 0 125.5 -52t52.5 -125t-52 -125.5t-126 -52.5h-121zM274 441h-121v-229h121q46 0 80.5 34t34.5 81q0 46 -34.5 80t-80.5 34z" />
    <glyph glyph-name="germandbls" unicode="&#xdf;" horiz-adv-x="492" 
d="M252 665q71 0 115 -42.5t44 -109.5q0 -42 -23 -74.5t-50 -48.5t-50 -39t-23 -50q0 -5 1.5 -10t3 -8.5t5.5 -8t6.5 -7.5t8.5 -7t9 -6.5t11 -6.5t11.5 -6t12.5 -6.5t12 -6.5q46 -24 72 -52t26 -76q0 -44 -35.5 -77t-97.5 -33q-53 0 -88.5 30.5t-48.5 82.5h69q19 -57 79 -57
q25 0 42.5 14t17.5 37q0 10 -2.5 18.5t-9 16.5t-12 13.5t-17 13t-17.5 11t-20.5 11.5t-20.5 11q-40 22 -61.5 46t-21.5 63q0 34 15 59.5t37 42t44 31.5t37 36t15 48q0 39 -28 61.5t-74 22.5q-47 0 -80 -36.5t-33 -117.5v-448h-63v462q0 93 52 148t130 55z" />
    <glyph glyph-name="agrave" unicode="&#xe0;" horiz-adv-x="518" 
d="M181 611l188 -95l-27 -54l-188 94zM390 420h63v-420h-63v61q-12 -24 -53 -47.5t-95 -23.5q-88 0 -147.5 60t-59.5 157q0 95 58 156.5t151 61.5q102 0 146 -61v56zM244 55q61 0 103.5 41.5t42.5 99.5v23q0 61 -41 101t-105 40q-65 0 -104.5 -43t-39.5 -110q0 -70 42 -111
t102 -41z" />
    <glyph glyph-name="aacute" unicode="&#xe1;" horiz-adv-x="518" 
d="M180 462l-27 54l188 95l27 -55zM390 420h63v-420h-63v61q-12 -24 -53 -47.5t-95 -23.5q-88 0 -147.5 60t-59.5 157q0 95 58 156.5t151 61.5q102 0 146 -61v56zM244 55q61 0 103.5 41.5t42.5 99.5v23q0 61 -41 101t-105 40q-65 0 -104.5 -43t-39.5 -110q0 -70 42 -111
t102 -41z" />
    <glyph glyph-name="acircumflex" unicode="&#xe2;" horiz-adv-x="518" 
d="M256 607h2l152 -140h-86l-67 57l-67 -57h-86zM390 420h63v-420h-63v61q-12 -24 -53 -47.5t-95 -23.5q-88 0 -147.5 60t-59.5 157q0 95 58 156.5t151 61.5q102 0 146 -61v56zM244 55q61 0 103.5 41.5t42.5 99.5v23q0 61 -41 101t-105 40q-65 0 -104.5 -43t-39.5 -110
q0 -70 42 -111t102 -41z" />
    <glyph glyph-name="atilde" unicode="&#xe3;" horiz-adv-x="518" 
d="M170 461h-44q5 100 78 100q25 0 59.5 -16t48.5 -16q32 0 32 38h44q-8 -100 -75 -100q-26 0 -62 15.5t-52 15.5q-29 0 -29 -37zM390 420h63v-420h-63v61q-12 -24 -53 -47.5t-95 -23.5q-88 0 -147.5 60t-59.5 157q0 95 58 156.5t151 61.5q102 0 146 -61v56zM244 55
q61 0 103.5 41.5t42.5 99.5v23q0 61 -41 101t-105 40q-65 0 -104.5 -43t-39.5 -110q0 -70 42 -111t102 -41z" />
    <glyph glyph-name="adieresis" unicode="&#xe4;" horiz-adv-x="518" 
d="M188 481q-17 0 -29.5 12.5t-12.5 29.5t12.5 29t29.5 12t29.5 -12t12.5 -29t-12.5 -29.5t-29.5 -12.5zM327 481q-17 0 -29 12.5t-12 29.5t12 29t29 12t29.5 -12t12.5 -29t-12.5 -29.5t-29.5 -12.5zM390 420h63v-420h-63v61q-12 -24 -53 -47.5t-95 -23.5q-88 0 -147.5 60
t-59.5 157q0 95 58 156.5t151 61.5q102 0 146 -61v56zM244 55q61 0 103.5 41.5t42.5 99.5v23q0 61 -41 101t-105 40q-65 0 -104.5 -43t-39.5 -110q0 -70 42 -111t102 -41z" />
    <glyph glyph-name="aring" unicode="&#xe5;" horiz-adv-x="518" 
d="M256 451q-35 0 -60.5 25t-25.5 60t25.5 61t60.5 26t61 -26t26 -61t-26 -60t-61 -25zM256 492q20 0 33 12t13 32q0 19 -13.5 32.5t-32.5 13.5q-18 0 -31.5 -13.5t-13.5 -32.5q0 -20 13 -32t32 -12zM390 420h63v-420h-63v61q-12 -24 -53 -47.5t-95 -23.5q-88 0 -147.5 60
t-59.5 157q0 95 58 156.5t151 61.5q102 0 146 -61v56zM244 55q61 0 103.5 41.5t42.5 99.5v23q0 61 -41 101t-105 40q-65 0 -104.5 -43t-39.5 -110q0 -70 42 -111t102 -41z" />
    <glyph glyph-name="ae" unicode="&#xe6;" horiz-adv-x="836" 
d="M599 53q82 0 124 71h65q-23 -60 -73.5 -98t-115.5 -38q-87 0 -146 62v-50h-63v61q-12 -24 -53 -47.5t-95 -23.5q-88 0 -147.5 60t-59.5 157q0 95 58 156.5t151 61.5q102 0 146 -61v56h63v-64q59 67 143 67q90 0 147.5 -67t57.5 -162h-343q2 -65 43 -103t98 -38zM390 196
v23q0 61 -41 101t-105 40q-65 0 -104.5 -43t-39.5 -110q0 -70 42 -111t102 -41q61 0 103.5 41.5t42.5 99.5zM599 358q-46 0 -81 -29.5t-49 -77.5h260q-14 47 -49 77t-81 30z" />
    <glyph glyph-name="ccedilla" unicode="&#xe7;" horiz-adv-x="480" 
d="M243 55q102 0 136 90h66q-20 -68 -67 -107t-107 -46l-38 -37q24 -8 38.5 -28.5t14.5 -45.5q0 -32 -22 -55t-54 -23q-28 0 -49 17.5t-27 43.5h46q10 -18 30 -18q14 0 24 10.5t10 24.5t-10 24.5t-25 10.5q-17 0 -27 -13h-48q5 18 23 36l52 54q-75 12 -124.5 71t-49.5 143
q0 91 62 154.5t146 63.5q70 0 125 -41t77 -115h-66q-36 91 -136 91q-59 0 -101 -44t-42 -109q0 -67 41.5 -109.5t101.5 -42.5z" />
    <glyph glyph-name="egrave" unicode="&#xe8;" horiz-adv-x="474" 
d="M158 611l188 -95l-27 -54l-188 94zM237 55q82 0 124 71h65q-23 -60 -73.5 -98t-115.5 -38q-86 0 -144 60t-58 153t58 157.5t141 64.5q90 0 147.5 -67t57.5 -162h-343q2 -65 43 -103t98 -38zM237 360q-46 0 -81 -29.5t-49 -77.5h260q-14 47 -49 77t-81 30z" />
    <glyph glyph-name="eacute" unicode="&#xe9;" horiz-adv-x="474" 
d="M318 611l27 -55l-188 -94l-27 54zM237 55q82 0 124 71h65q-23 -60 -73.5 -98t-115.5 -38q-86 0 -144 60t-58 153t58 157.5t141 64.5q90 0 147.5 -67t57.5 -162h-343q2 -65 43 -103t98 -38zM237 360q-46 0 -81 -29.5t-49 -77.5h260q-14 47 -49 77t-81 30z" />
    <glyph glyph-name="ecircumflex" unicode="&#xea;" horiz-adv-x="474" 
d="M301 467l-67 57l-67 -57h-86l152 140h2l152 -140h-86zM237 55q82 0 124 71h65q-23 -60 -73.5 -98t-115.5 -38q-86 0 -144 60t-58 153t58 157.5t141 64.5q90 0 147.5 -67t57.5 -162h-343q2 -65 43 -103t98 -38zM237 360q-46 0 -81 -29.5t-49 -77.5h260q-14 47 -49 77
t-81 30z" />
    <glyph glyph-name="edieresis" unicode="&#xeb;" horiz-adv-x="474" 
d="M165 481q-17 0 -29.5 12.5t-12.5 29.5t12.5 29t29.5 12t29.5 -12t12.5 -29t-12.5 -29.5t-29.5 -12.5zM304 481q-17 0 -29 12.5t-12 29.5t12 29t29 12t29.5 -12t12.5 -29t-12.5 -29.5t-29.5 -12.5zM237 55q82 0 124 71h65q-23 -60 -73.5 -98t-115.5 -38q-86 0 -144 60
t-58 153t58 157.5t141 64.5q90 0 147.5 -67t57.5 -162h-343q2 -65 43 -103t98 -38zM237 360q-46 0 -81 -29.5t-49 -77.5h260q-14 47 -49 77t-81 30z" />
    <glyph glyph-name="igrave" unicode="&#xec;" horiz-adv-x="214" 
d="M27 611l188 -95l-27 -54l-188 94zM149 415v-415h-63v352h-40v63h103z" />
    <glyph glyph-name="iacute" unicode="&#xed;" horiz-adv-x="214" 
d="M26 462l-27 54l188 95l27 -55zM149 415v-415h-63v352h-40v63h103z" />
    <glyph glyph-name="icircumflex" unicode="&#xee;" horiz-adv-x="214" 
d="M102 607h2l152 -140h-86l-67 57l-67 -57h-86zM149 415v-415h-63v352h-40v63h103z" />
    <glyph glyph-name="idieresis" unicode="&#xef;" horiz-adv-x="214" 
d="M34 481q-17 0 -29.5 12.5t-12.5 29.5t12.5 29t29.5 12t29.5 -12t12.5 -29t-12.5 -29.5t-29.5 -12.5zM173 481q-17 0 -29 12.5t-12 29.5t12 29t29 12t29.5 -12t12.5 -29t-12.5 -29.5t-29.5 -12.5zM149 415v-415h-63v352h-40v63h103z" />
    <glyph glyph-name="eth" unicode="&#xf0;" horiz-adv-x="475" 
d="M359 555l-39 -23q120 -102 120 -292q0 -113 -58 -181.5t-142 -68.5q-86 0 -145.5 63.5t-59.5 156.5q0 92 59.5 153.5t145.5 61.5q61 0 107 -32q-26 61 -86 104l-85 -49l-29 46l60 35q-43 21 -91 35l22 62q77 -24 133 -59l60 35zM240 55q55 0 95 45t40 110q0 70 -37 110.5
t-98 40.5q-59 0 -99.5 -43t-40.5 -108q0 -66 40.5 -110.5t99.5 -44.5z" />
    <glyph glyph-name="ntilde" unicode="&#xf1;" horiz-adv-x="461" 
d="M167 461h-44q5 100 78 100q25 0 59.5 -16t48.5 -16q32 0 32 38h44q-8 -100 -75 -100q-26 0 -62 15.5t-52 15.5q-29 0 -29 -37zM128 0h-63v415h63v-56q44 66 125 66q71 0 114 -41.5t43 -114.5v-269h-63v253q0 109 -107 109q-51 0 -81.5 -31.5t-30.5 -80.5v-250z" />
    <glyph glyph-name="ograve" unicode="&#xf2;" horiz-adv-x="493" 
d="M173 611l188 -95l-27 -54l-188 94zM247 425q87 0 149 -62.5t62 -151.5q0 -91 -62 -156t-149 -65q-88 0 -150 65t-62 156q0 89 62 151.5t150 62.5zM247 54q61 0 104 46t43 111q0 63 -43 106.5t-104 43.5t-104.5 -43.5t-43.5 -106.5q0 -64 43.5 -110.5t104.5 -46.5z" />
    <glyph glyph-name="oacute" unicode="&#xf3;" horiz-adv-x="493" 
d="M172 462l-27 54l188 95l27 -55zM247 425q87 0 149 -62.5t62 -151.5q0 -91 -62 -156t-149 -65q-88 0 -150 65t-62 156q0 89 62 151.5t150 62.5zM247 54q61 0 104 46t43 111q0 63 -43 106.5t-104 43.5t-104.5 -43.5t-43.5 -106.5q0 -64 43.5 -110.5t104.5 -46.5z" />
    <glyph glyph-name="ocircumflex" unicode="&#xf4;" horiz-adv-x="493" 
d="M248 607h2l152 -140h-86l-67 57l-67 -57h-86zM247 425q87 0 149 -62.5t62 -151.5q0 -91 -62 -156t-149 -65q-88 0 -150 65t-62 156q0 89 62 151.5t150 62.5zM247 54q61 0 104 46t43 111q0 63 -43 106.5t-104 43.5t-104.5 -43.5t-43.5 -106.5q0 -64 43.5 -110.5
t104.5 -46.5z" />
    <glyph glyph-name="otilde" unicode="&#xf5;" horiz-adv-x="493" 
d="M162 461h-44q5 100 78 100q25 0 59.5 -16t48.5 -16q32 0 32 38h44q-8 -100 -75 -100q-26 0 -62 15.5t-52 15.5q-29 0 -29 -37zM247 425q87 0 149 -62.5t62 -151.5q0 -91 -62 -156t-149 -65q-88 0 -150 65t-62 156q0 89 62 151.5t150 62.5zM247 54q61 0 104 46t43 111
q0 63 -43 106.5t-104 43.5t-104.5 -43.5t-43.5 -106.5q0 -64 43.5 -110.5t104.5 -46.5z" />
    <glyph glyph-name="odieresis" unicode="&#xf6;" horiz-adv-x="493" 
d="M180 481q-17 0 -29.5 12.5t-12.5 29.5t12.5 29t29.5 12t29.5 -12t12.5 -29t-12.5 -29.5t-29.5 -12.5zM319 481q-17 0 -29 12.5t-12 29.5t12 29t29 12t29.5 -12t12.5 -29t-12.5 -29.5t-29.5 -12.5zM247 425q87 0 149 -62.5t62 -151.5q0 -91 -62 -156t-149 -65
q-88 0 -150 65t-62 156q0 89 62 151.5t150 62.5zM247 54q61 0 104 46t43 111q0 63 -43 106.5t-104 43.5t-104.5 -43.5t-43.5 -106.5q0 -64 43.5 -110.5t104.5 -46.5z" />
    <glyph glyph-name="divide" unicode="&#xf7;" horiz-adv-x="503" 
d="M251 401q-25 0 -43.5 18.5t-18.5 43.5q0 26 18 44t44 18t44 -18t18 -44q0 -25 -18.5 -43.5t-43.5 -18.5zM432 346v-63h-362v63h362zM251 103q-25 0 -43.5 18.5t-18.5 43.5t18.5 43.5t43.5 18.5t43.5 -18.5t18.5 -43.5t-18.5 -43.5t-43.5 -18.5z" />
    <glyph glyph-name="oslash" unicode="&#xf8;" horiz-adv-x="493" 
d="M455 409l-48 -58q51 -59 51 -140q0 -91 -62 -156t-149 -65q-61 0 -114 35l-48 -57l-47 40l49 58q-52 63 -52 145q0 89 62 151.5t150 62.5q61 0 113 -33l48 57zM99 211q0 -53 30 -94l190 225q-35 19 -72 19q-61 0 -104.5 -43.5t-43.5 -106.5zM247 54q61 0 104 46t43 111
q0 51 -29 91l-191 -227q33 -21 73 -21z" />
    <glyph glyph-name="ugrave" unicode="&#xf9;" horiz-adv-x="465" 
d="M148 611l188 -95l-27 -54l-188 94zM51 159v256h63v-254q0 -54 33 -80t80 -26q50 0 80 31t30 85v244h63v-415h-63v47q-41 -57 -118 -57q-76 0 -122 42.5t-46 126.5z" />
    <glyph glyph-name="uacute" unicode="&#xfa;" horiz-adv-x="465" 
d="M147 462l-27 54l188 95l27 -55zM51 159v256h63v-254q0 -54 33 -80t80 -26q50 0 80 31t30 85v244h63v-415h-63v47q-41 -57 -118 -57q-76 0 -122 42.5t-46 126.5z" />
    <glyph glyph-name="ucircumflex" unicode="&#xfb;" horiz-adv-x="465" 
d="M223 607h2l152 -140h-86l-67 57l-67 -57h-86zM51 159v256h63v-254q0 -54 33 -80t80 -26q50 0 80 31t30 85v244h63v-415h-63v47q-41 -57 -118 -57q-76 0 -122 42.5t-46 126.5z" />
    <glyph glyph-name="udieresis" unicode="&#xfc;" horiz-adv-x="465" 
d="M155 481q-17 0 -29.5 12.5t-12.5 29.5t12.5 29t29.5 12t29.5 -12t12.5 -29t-12.5 -29.5t-29.5 -12.5zM294 481q-17 0 -29 12.5t-12 29.5t12 29t29 12t29.5 -12t12.5 -29t-12.5 -29.5t-29.5 -12.5zM51 159v256h63v-254q0 -54 33 -80t80 -26q50 0 80 31t30 85v244h63v-415
h-63v47q-41 -57 -118 -57q-76 0 -122 42.5t-46 126.5z" />
    <glyph glyph-name="yacute" unicode="&#xfd;" horiz-adv-x="480" 
d="M325 611l27 -55l-188 -94l-27 54zM352 171v244h63v-439q0 -86 -60.5 -146t-143.5 -60q-71 0 -127 46t-71 117h65q14 -43 51 -70.5t82 -27.5q57 0 99 42.5t42 102.5v61q-39 -51 -109 -51q-80 0 -128 47.5t-48 123.5v254h63v-252q0 -46 33 -76.5t80 -30.5q49 0 79 35t30 80
z" />
    <glyph glyph-name="thorn" unicode="&#xfe;" horiz-adv-x="517" 
d="M283 425q83 0 141 -65t58 -152q0 -88 -61.5 -153t-145.5 -65q-89 0 -142 69v-289h-63v880h63v-296q54 71 150 71zM275 360q-57 0 -99.5 -45.5t-42.5 -108.5q0 -65 42 -108t100 -43q59 0 100.5 45.5t41.5 107.5t-39.5 107t-102.5 45z" />
    <glyph glyph-name="ydieresis" unicode="&#xff;" horiz-adv-x="480" 
d="M172 481q-17 0 -29.5 12.5t-12.5 29.5t12.5 29t29.5 12t29.5 -12t12.5 -29t-12.5 -29.5t-29.5 -12.5zM311 481q-17 0 -29 12.5t-12 29.5t12 29t29 12t29.5 -12t12.5 -29t-12.5 -29.5t-29.5 -12.5zM352 171v244h63v-439q0 -86 -60.5 -146t-143.5 -60q-71 0 -127 46
t-71 117h65q14 -43 51 -70.5t82 -27.5q57 0 99 42.5t42 102.5v61q-39 -51 -109 -51q-80 0 -128 47.5t-48 123.5v254h63v-252q0 -46 33 -76.5t80 -30.5q49 0 79 35t30 80z" />
    <glyph glyph-name="Amacron" unicode="&#x100;" horiz-adv-x="529" 
d="M172 767h184v-63h-184v63zM498 0h-67l-51 169h-232l-51 -169h-67l197 650h74zM264 553l-96 -319h192z" />
    <glyph glyph-name="amacron" unicode="&#x101;" horiz-adv-x="518" 
d="M349 532v-63h-184v63h184zM390 420h63v-420h-63v61q-12 -24 -53 -47.5t-95 -23.5q-88 0 -147.5 60t-59.5 157q0 95 58 156.5t151 61.5q102 0 146 -61v56zM244 55q61 0 103.5 41.5t42.5 99.5v23q0 61 -41 101t-105 40q-65 0 -104.5 -43t-39.5 -110q0 -70 42 -111t102 -41z
" />
    <glyph glyph-name="Abreve" unicode="&#x102;" horiz-adv-x="529" 
d="M264 686q-39 0 -67 26t-31 64h55q3 -15 15 -25t28 -10t28 10t15 25h55q-3 -38 -31.5 -64t-66.5 -26zM498 0h-67l-51 169h-232l-51 -169h-67l197 650h74zM264 553l-96 -319h192z" />
    <glyph glyph-name="abreve" unicode="&#x103;" horiz-adv-x="518" 
d="M257 451q-39 0 -67 26t-31 64h55q3 -15 15 -25t28 -10t28 10t15 25h55q-3 -38 -31.5 -64t-66.5 -26zM390 420h63v-420h-63v61q-12 -24 -53 -47.5t-95 -23.5q-88 0 -147.5 60t-59.5 157q0 95 58 156.5t151 61.5q102 0 146 -61v56zM244 55q61 0 103.5 41.5t42.5 99.5v23
q0 61 -41 101t-105 40q-65 0 -104.5 -43t-39.5 -110q0 -70 42 -111t102 -41z" />
    <glyph glyph-name="Aogonek" unicode="&#x104;" horiz-adv-x="529" 
d="M424 -70q0 -27 27.5 -43.5t61.5 -16.5l-12 -58h-22q-52 0 -88.5 28.5t-37.5 66.5q0 34 22.5 58t55.5 35l-51 169h-232l-51 -169h-67l197 650h74l197 -650h-4q-70 -18 -70 -70zM264 553l-96 -319h192z" />
    <glyph glyph-name="aogonek" unicode="&#x105;" horiz-adv-x="518" 
d="M383 -70q0 -27 27.5 -43.5t61.5 -16.5l-12 -58h-22q-52 0 -88.5 28.5t-37.5 66.5q0 34 22.5 58t55.5 35v61q-12 -24 -53 -47.5t-95 -23.5q-88 0 -147.5 60t-59.5 157q0 95 58 156.5t151 61.5q102 0 146 -61v56h63v-420q-70 -18 -70 -70zM244 55q61 0 103.5 41.5
t42.5 99.5v23q0 61 -41 101t-105 40q-65 0 -104.5 -43t-39.5 -110q0 -70 42 -111t102 -41z" />
    <glyph glyph-name="Cacute" unicode="&#x106;" horiz-adv-x="727" 
d="M307 697l-27 54l188 95l27 -55zM620 212h72q-31 -99 -116.5 -163t-191.5 -64q-140 0 -237 99t-97 245q0 141 97 238.5t237 97.5q106 0 191.5 -63.5t116.5 -162.5h-72q-31 73 -94.5 116t-141.5 43q-113 0 -190 -77t-77 -192q0 -119 76.5 -198t190.5 -79q78 0 141.5 43.5
t94.5 116.5z" />
    <glyph glyph-name="cacute" unicode="&#x107;" horiz-adv-x="480" 
d="M166 462l-27 54l188 95l27 -55zM379 145h66q-22 -75 -78 -115t-124 -40q-86 0 -147 61.5t-61 155.5q0 91 62 154.5t146 63.5q70 0 125 -41t77 -115h-66q-36 91 -136 91q-59 0 -101 -44t-42 -109q0 -67 41.5 -109.5t101.5 -42.5q102 0 136 90z" />
    <glyph glyph-name="Cdotaccent" unicode="&#x10a;" horiz-adv-x="727" 
d="M383 716q-18 0 -30.5 13t-12.5 31q0 19 12.5 31.5t30.5 12.5t31 -12.5t13 -31.5q0 -18 -13 -31t-31 -13zM620 212h72q-31 -99 -116.5 -163t-191.5 -64q-140 0 -237 99t-97 245q0 141 97 238.5t237 97.5q106 0 191.5 -63.5t116.5 -162.5h-72q-31 73 -94.5 116t-141.5 43
q-113 0 -190 -77t-77 -192q0 -119 76.5 -198t190.5 -79q78 0 141.5 43.5t94.5 116.5z" />
    <glyph glyph-name="cdotaccent" unicode="&#x10b;" horiz-adv-x="480" 
d="M242 481q-18 0 -30.5 13t-12.5 31q0 19 12.5 31.5t30.5 12.5t31 -12.5t13 -31.5q0 -18 -13 -31t-31 -13zM379 145h66q-22 -75 -78 -115t-124 -40q-86 0 -147 61.5t-61 155.5q0 91 62 154.5t146 63.5q70 0 125 -41t77 -115h-66q-36 91 -136 91q-59 0 -101 -44t-42 -109
q0 -67 41.5 -109.5t101.5 -42.5q102 0 136 90z" />
    <glyph glyph-name="Ccaron" unicode="&#x10c;" horiz-adv-x="727" 
d="M537 826l-152 -135h-2l-152 135h86l67 -56l67 56h86zM384 52q78 0 141.5 43.5t94.5 116.5h72q-31 -99 -116.5 -163t-191.5 -64q-140 0 -237 99t-97 245q0 141 97 238.5t237 97.5q106 0 191.5 -63.5t116.5 -162.5h-72q-31 73 -94.5 116t-141.5 43q-113 0 -190 -77
t-77 -192q0 -119 76.5 -198t190.5 -79z" />
    <glyph glyph-name="ccaron" unicode="&#x10d;" horiz-adv-x="480" 
d="M396 591l-152 -135h-2l-152 135h86l67 -56l67 56h86zM243 55q102 0 136 90h66q-22 -75 -78 -115t-124 -40q-86 0 -147 61.5t-61 155.5q0 91 62 154.5t146 63.5q70 0 125 -41t77 -115h-66q-36 91 -136 91q-59 0 -101 -44t-42 -109q0 -67 41.5 -109.5t101.5 -42.5z" />
    <glyph glyph-name="Dcaron" unicode="&#x10e;" horiz-adv-x="520" 
d="M414 826l-152 -135h-2l-152 135h86l67 -56l67 56h86zM77 650h68q134 0 229.5 -95t95.5 -231q0 -135 -95 -229.5t-230 -94.5h-68v650zM144 583v-516q108 0 184 74.5t76 182.5q0 109 -76 184t-184 75z" />
    <glyph glyph-name="dcaron" unicode="&#x10f;" horiz-adv-x="523" 
d="M474 510l42 153l63 -19l-59 -148zM390 650h63v-650h-63v61q-12 -24 -53 -47.5t-95 -23.5q-87 0 -147 61t-60 156q0 96 61.5 157t153.5 61q99 0 140 -59v284zM244 55q59 0 102.5 42t43.5 99v23q0 60 -43 100.5t-103 40.5q-62 0 -103 -42t-41 -111q0 -68 41.5 -110
t102.5 -42z" />
    <glyph glyph-name="Dcroat" unicode="&#x110;" horiz-adv-x="560" 
d="M99 650h68q134 0 229.5 -95t95.5 -231q0 -135 -95 -229.5t-230 -94.5h-68v294h-63v65h63v291zM166 294v-227q108 0 184 74.5t76 182.5q0 109 -76 184t-184 75v-224h119v-65h-119z" />
    <glyph glyph-name="dcroat" unicode="&#x111;" horiz-adv-x="503" 
d="M453 576h49v-55h-49v-521h-63v61q-12 -24 -53 -47.5t-95 -23.5q-87 0 -147 61t-60 156q0 96 61.5 157t153.5 61q99 0 140 -59v155h-118v55h118v74h63v-74zM390 196v23q0 60 -43 100.5t-103 40.5q-62 0 -103 -42t-41 -111q0 -68 41.5 -110t102.5 -42q59 0 102.5 42
t43.5 99z" />
    <glyph glyph-name="Emacron" unicode="&#x112;" horiz-adv-x="447" 
d="M333 767v-63h-184v63h184zM400 65v-65h-323v650h323v-65h-258v-227h181v-65h-181v-228h258z" />
    <glyph glyph-name="emacron" unicode="&#x113;" horiz-adv-x="474" 
d="M142 532h184v-63h-184v63zM237 55q82 0 124 71h65q-23 -60 -73.5 -98t-115.5 -38q-86 0 -144 60t-58 153t58 157.5t141 64.5q90 0 147.5 -67t57.5 -162h-343q2 -65 43 -103t98 -38zM237 360q-46 0 -81 -29.5t-49 -77.5h260q-14 47 -49 77t-81 30z" />
    <glyph glyph-name="Edotaccent" unicode="&#x116;" horiz-adv-x="447" 
d="M240 716q-18 0 -30.5 13t-12.5 31q0 19 12.5 31.5t30.5 12.5t31 -12.5t13 -31.5q0 -18 -13 -31t-31 -13zM400 65v-65h-323v650h323v-65h-258v-227h181v-65h-181v-228h258z" />
    <glyph glyph-name="edotaccent" unicode="&#x117;" horiz-adv-x="474" 
d="M233 481q-18 0 -30.5 13t-12.5 31q0 19 12.5 31.5t30.5 12.5t31 -12.5t13 -31.5q0 -18 -13 -31t-31 -13zM237 55q82 0 124 71h65q-23 -60 -73.5 -98t-115.5 -38q-86 0 -144 60t-58 153t58 157.5t141 64.5q90 0 147.5 -67t57.5 -162h-343q2 -65 43 -103t98 -38zM237 360
q-46 0 -81 -29.5t-49 -77.5h260q-14 47 -49 77t-81 30z" />
    <glyph glyph-name="Eogonek" unicode="&#x118;" horiz-adv-x="447" 
d="M330 -70q0 -27 27.5 -43.5t61.5 -16.5l-12 -58h-22q-52 0 -88.5 28.5t-37.5 66.5q0 34 22.5 58t55.5 35h-260v650h323v-65h-258v-227h181v-65h-181v-228h258v-65q-70 -18 -70 -70z" />
    <glyph glyph-name="eogonek" unicode="&#x119;" horiz-adv-x="474" 
d="M237 55q82 0 124 71h65q-19 -50 -59 -86t-91 -46q-51 -21 -51 -64q0 -27 27.5 -43.5t61.5 -16.5l-12 -58h-22q-52 0 -88.5 28.5t-37.5 66.5q0 56 57 85q-76 9 -126 67.5t-50 143.5q0 93 58 157.5t141 64.5q90 0 147.5 -67t57.5 -162h-343q2 -65 43 -103t98 -38zM237 360
q-46 0 -81 -29.5t-49 -77.5h260q-14 47 -49 77t-81 30z" />
    <glyph glyph-name="Ecaron" unicode="&#x11a;" horiz-adv-x="447" 
d="M394 826l-152 -135h-2l-152 135h86l67 -56l67 56h86zM400 650v-65h-258v-227h181v-65h-181v-228h258v-65h-323v650h323z" />
    <glyph glyph-name="ecaron" unicode="&#x11b;" horiz-adv-x="474" 
d="M387 591l-152 -135h-2l-152 135h86l67 -56l67 56h86zM237 55q82 0 124 71h65q-23 -60 -73.5 -98t-115.5 -38q-86 0 -144 60t-58 153t58 157.5t141 64.5q90 0 147.5 -67t57.5 -162h-343q2 -65 43 -103t98 -38zM237 360q-46 0 -81 -29.5t-49 -77.5h260q-14 47 -49 77
t-81 30z" />
    <glyph glyph-name="Gbreve" unicode="&#x11e;" horiz-adv-x="750" 
d="M381 686q-39 0 -67 26t-31 64h55q3 -15 15 -25t28 -10t28 10t15 25h55q-3 -38 -31.5 -64t-66.5 -26zM516 237v62h175v-299h-62v111q-44 -55 -112.5 -90.5t-135.5 -35.5q-137 0 -234 99.5t-97 240.5t97.5 240.5t233.5 99.5q110 0 200.5 -66.5t111.5 -163.5h-65
q-31 75 -97 119t-150 44q-109 0 -186.5 -79t-77.5 -194q0 -113 77.5 -193t186.5 -80q82 0 148.5 50.5t98.5 128.5v6h-112z" />
    <glyph glyph-name="gbreve" unicode="&#x11f;" 
d="M247 451q-39 0 -67 26t-31 64h55q3 -15 15 -25t28 -10t28 10t15 25h55q-3 -38 -31.5 -64t-66.5 -26zM238 415h238v-63h-88q58 -60 58 -150t-60 -153.5t-145 -63.5q-86 0 -146 63.5t-60 153.5q0 91 59.5 152t143.5 61zM241 50q59 0 99.5 44.5t40.5 107.5q0 59 -41.5 103.5
t-98.5 44.5q-59 0 -100 -41t-41 -107q0 -63 40.5 -107.5t100.5 -44.5zM238 -167q57 0 98.5 42.5t41.5 102.5h63q0 -86 -60 -147t-143 -61t-143 61t-60 147h63q0 -60 41.5 -102.5t98.5 -42.5z" />
    <glyph glyph-name="Gdotaccent" unicode="&#x120;" horiz-adv-x="750" 
d="M380 716q-18 0 -30.5 13t-12.5 31q0 19 12.5 31.5t30.5 12.5t31 -12.5t13 -31.5q0 -18 -13 -31t-31 -13zM516 237v62h175v-299h-62v111q-44 -55 -112.5 -90.5t-135.5 -35.5q-137 0 -234 99.5t-97 240.5t97.5 240.5t233.5 99.5q110 0 200.5 -66.5t111.5 -163.5h-65
q-31 75 -97 119t-150 44q-109 0 -186.5 -79t-77.5 -194q0 -113 77.5 -193t186.5 -80q82 0 148.5 50.5t98.5 128.5v6h-112z" />
    <glyph glyph-name="gdotaccent" unicode="&#x121;" 
d="M246 481q-18 0 -30.5 13t-12.5 31q0 19 12.5 31.5t30.5 12.5t31 -12.5t13 -31.5q0 -18 -13 -31t-31 -13zM238 415h238v-63h-88q58 -60 58 -150t-60 -153.5t-145 -63.5q-86 0 -146 63.5t-60 153.5q0 91 59.5 152t143.5 61zM241 50q59 0 99.5 44.5t40.5 107.5
q0 59 -41.5 103.5t-98.5 44.5q-59 0 -100 -41t-41 -107q0 -63 40.5 -107.5t100.5 -44.5zM238 -167q57 0 98.5 42.5t41.5 102.5h63q0 -86 -60 -147t-143 -61t-143 61t-60 147h63q0 -60 41.5 -102.5t98.5 -42.5z" />
    <glyph glyph-name="uni0122" unicode="&#x122;" horiz-adv-x="750" 
d="M516 237v62h175v-299h-62v111q-44 -55 -112.5 -90.5t-135.5 -35.5q-137 0 -234 99.5t-97 240.5t97.5 240.5t233.5 99.5q110 0 200.5 -66.5t111.5 -163.5h-65q-31 75 -97 119t-150 44q-109 0 -186.5 -79t-77.5 -194q0 -113 77.5 -193t186.5 -80q82 0 148.5 50.5
t98.5 128.5v6h-112zM386 -43q17 0 30 -12.5t13 -29.5q0 -12 -6 -26l-32 -81l-29 9l17 55q-16 2 -26.5 14t-10.5 29t13.5 29.5t30.5 12.5z" />
    <glyph glyph-name="uni0123" unicode="&#x123;" 
d="M247 450q-17 0 -30 12.5t-13 29.5q0 12 6 26l32 81l29 -9l-17 -55q16 -2 26.5 -14t10.5 -29t-13.5 -29.5t-30.5 -12.5zM238 415h238v-63h-88q58 -60 58 -150t-60 -153.5t-145 -63.5q-86 0 -146 63.5t-60 153.5q0 91 59.5 152t143.5 61zM241 50q59 0 99.5 44.5t40.5 107.5
q0 59 -41.5 103.5t-98.5 44.5q-59 0 -100 -41t-41 -107q0 -63 40.5 -107.5t100.5 -44.5zM238 -167q57 0 98.5 42.5t41.5 102.5h63q0 -86 -60 -147t-143 -61t-143 61t-60 147h63q0 -60 41.5 -102.5t98.5 -42.5z" />
    <glyph glyph-name="Hbar" unicode="&#x126;" horiz-adv-x="584" 
d="M481 520h63v-55h-63v-465h-65v293h-274v-293h-65v465h-37v55h37v130h65v-130h274v130h65v-130zM142 358h274v107h-274v-107z" />
    <glyph glyph-name="hbar" unicode="&#x127;" horiz-adv-x="455" 
d="M260 425q69 0 112 -41.5t43 -114.5v-269h-63v253q0 109 -107 109q-51 0 -81.5 -34t-30.5 -83v-245h-63v503h-85v63h85v84h63v-84h101v-63h-101v-144q44 66 127 66z" />
    <glyph glyph-name="Imacron" unicode="&#x12a;" horiz-adv-x="219" 
d="M201 767v-63h-184v63h184zM142 650v-650h-65v650h65z" />
    <glyph glyph-name="imacron" unicode="&#x12b;" horiz-adv-x="214" 
d="M195 532v-63h-184v63h184zM149 415v-415h-63v352h-40v63h103z" />
    <glyph glyph-name="Iogonek" unicode="&#x12e;" horiz-adv-x="219" 
d="M70 -70q0 -27 27.5 -43.5t61.5 -16.5l-12 -58h-22q-52 0 -88.5 28.5t-37.5 66.5q0 34 22.5 58t55.5 35v650h65v-650h-2q-70 -18 -70 -70z" />
    <glyph glyph-name="iogonek" unicode="&#x12f;" horiz-adv-x="226" 
d="M113 500q-20 0 -34 14t-14 34t14 34t34 14q19 0 33.5 -14t14.5 -34t-14 -34t-34 -14zM79 -70q0 -27 27.5 -43.5t61.5 -16.5l-12 -58h-22q-52 0 -88.5 28.5t-37.5 66.5q0 34 22.5 58t55.5 35v352h-40v63h103v-415q-70 -18 -70 -70z" />
    <glyph glyph-name="Idotaccent" unicode="&#x130;" horiz-adv-x="219" 
d="M108 716q-18 0 -30.5 13t-12.5 31q0 19 12.5 31.5t30.5 12.5t31 -12.5t13 -31.5q0 -18 -13 -31t-31 -13zM142 650v-650h-65v650h65z" />
    <glyph glyph-name="dotlessi" unicode="&#x131;" horiz-adv-x="214" 
d="M149 415v-415h-63v352h-40v63h103z" />
    <glyph glyph-name="uni0136" unicode="&#x136;" horiz-adv-x="581" 
d="M142 205v-205h-65v650h65v-282l255 282h88l-208 -232q108 12 182 -59.5t74 -179.5v-179h-65v177q0 77 -49 128.5t-113 51.5q-65 0 -114.5 -44.5t-49.5 -107.5zM311 -43q17 0 30 -12.5t13 -29.5q0 -12 -6 -26l-32 -81l-29 9l17 55q-16 2 -26.5 14t-10.5 29t13.5 29.5
t30.5 12.5z" />
    <glyph glyph-name="uni0137" unicode="&#x137;" horiz-adv-x="428" 
d="M160 239l166 176h87l-196 -207l196 -208h-86l-167 177h-27v-177h-63v650h63v-411h27zM235 -43q17 0 30 -12.5t13 -29.5q0 -12 -6 -26l-32 -81l-29 9l17 55q-16 2 -26.5 14t-10.5 29t13.5 29.5t30.5 12.5z" />
    <glyph glyph-name="Lacute" unicode="&#x139;" horiz-adv-x="413" 
d="M35 697l-27 54l188 95l27 -55zM383 65v-65h-306v650h65v-585h241z" />
    <glyph glyph-name="lacute" unicode="&#x13a;" horiz-adv-x="203" 
d="M24 697l-27 54l188 95l27 -55zM133 650v-650h-63v650h63z" />
    <glyph glyph-name="uni013B" unicode="&#x13b;" horiz-adv-x="413" 
d="M383 65v-65h-306v650h65v-585h241zM238 -43q17 0 30 -12.5t13 -29.5q0 -12 -6 -26l-32 -81l-29 9l17 55q-16 2 -26.5 14t-10.5 29t13.5 29.5t30.5 12.5z" />
    <glyph glyph-name="uni013C" unicode="&#x13c;" horiz-adv-x="203" 
d="M133 650v-650h-63v650h63zM106 -43q17 0 30 -12.5t13 -29.5q0 -12 -6 -26l-32 -81l-29 9l17 55q-16 2 -26.5 14t-10.5 29t13.5 29.5t30.5 12.5z" />
    <glyph glyph-name="Lcaron" unicode="&#x13d;" horiz-adv-x="413" 
d="M163 510l42 153l63 -19l-59 -148zM383 65v-65h-306v650h65v-585h241z" />
    <glyph glyph-name="lcaron" unicode="&#x13e;" horiz-adv-x="203" 
d="M154 510l42 153l63 -19l-59 -148zM133 650v-650h-63v650h63z" />
    <glyph glyph-name="Lslash" unicode="&#x141;" horiz-adv-x="436" 
d="M165 296v-231h241v-65h-306v266l-54 -25v63l54 25v321h65v-291l123 56v-63z" />
    <glyph glyph-name="lslash" unicode="&#x142;" horiz-adv-x="248" 
d="M155 362l71 33v-60l-71 -33v-302h-63v273l-70 -32v60l70 32v317h63v-288z" />
    <glyph glyph-name="Nacute" unicode="&#x143;" horiz-adv-x="592" 
d="M219 697l-27 54l188 95l27 -55zM133 0h-65v415q0 112 66.5 181t161.5 69t161.5 -69t66.5 -181v-415h-65v415q0 86 -47 135t-116 49t-116 -49t-47 -135v-415z" />
    <glyph glyph-name="nacute" unicode="&#x144;" horiz-adv-x="461" 
d="M177 462l-27 54l188 95l27 -55zM128 0h-63v415h63v-56q44 66 125 66q71 0 114 -41.5t43 -114.5v-269h-63v253q0 109 -107 109q-51 0 -81.5 -31.5t-30.5 -80.5v-250z" />
    <glyph glyph-name="uni0145" unicode="&#x145;" horiz-adv-x="592" 
d="M133 0h-65v415q0 112 66.5 181t161.5 69t161.5 -69t66.5 -181v-415h-65v415q0 86 -47 135t-116 49t-116 -49t-47 -135v-415zM301 -43q17 0 30 -12.5t13 -29.5q0 -12 -6 -26l-32 -81l-29 9l17 55q-16 2 -26.5 14t-10.5 29t13.5 29.5t30.5 12.5z" />
    <glyph glyph-name="uni0146" unicode="&#x146;" horiz-adv-x="461" 
d="M128 0h-63v415h63v-56q44 66 125 66q71 0 114 -41.5t43 -114.5v-269h-63v253q0 109 -107 109q-51 0 -81.5 -31.5t-30.5 -80.5v-250zM243 -43q17 0 30 -12.5t13 -29.5q0 -12 -6 -26l-32 -81l-29 9l17 55q-16 2 -26.5 14t-10.5 29t13.5 29.5t30.5 12.5z" />
    <glyph glyph-name="Ncaron" unicode="&#x147;" horiz-adv-x="592" 
d="M449 826l-152 -135h-2l-152 135h86l67 -56l67 56h86zM296 665q95 0 161.5 -69t66.5 -181v-415h-65v415q0 86 -47 135t-116 49t-116 -49t-47 -135v-415h-65v415q0 112 66.5 181t161.5 69z" />
    <glyph glyph-name="ncaron" unicode="&#x148;" horiz-adv-x="461" 
d="M407 591l-152 -135h-2l-152 135h86l67 -56l67 56h86zM253 425q71 0 114 -41.5t43 -114.5v-269h-63v253q0 109 -107 109q-51 0 -81.5 -31.5t-30.5 -80.5v-250h-63v415h63v-56q44 66 125 66z" />
    <glyph glyph-name="Eng" unicode="&#x14a;" horiz-adv-x="592" 
d="M296 665q95 0 161.5 -69t66.5 -181v-417q0 -55 -33 -88t-74 -33h-15v63q57 0 57 58v417q0 86 -47 135t-116 49t-116 -49t-47 -135v-415h-65v415q0 112 66.5 181t161.5 69z" />
    <glyph glyph-name="eng" unicode="&#x14b;" horiz-adv-x="455" 
d="M248 425q71 0 114 -41.5t43 -114.5v-271q0 -50 -33.5 -85t-82.5 -36h-2v63q23 0 39 17t16 41v255q0 109 -107 109q-51 0 -81.5 -31.5t-30.5 -80.5v-250h-63v415h63v-56q44 66 125 66z" />
    <glyph glyph-name="Omacron" unicode="&#x14c;" horiz-adv-x="759" 
d="M471 767v-63h-184v63h184zM379 -15q-137 0 -233 98t-96 242q0 142 96 241t233 99t233.5 -99t96.5 -241q0 -144 -96 -242t-234 -98zM379 52q111 0 187 78t76 195t-76 195t-187 78q-110 0 -186 -78t-76 -195t76 -195t186 -78z" />
    <glyph glyph-name="omacron" unicode="&#x14d;" horiz-adv-x="493" 
d="M341 532v-63h-184v63h184zM247 425q87 0 149 -62.5t62 -151.5q0 -91 -62 -156t-149 -65q-88 0 -150 65t-62 156q0 89 62 151.5t150 62.5zM247 54q61 0 104 46t43 111q0 63 -43 106.5t-104 43.5t-104.5 -43.5t-43.5 -106.5q0 -64 43.5 -110.5t104.5 -46.5z" />
    <glyph glyph-name="Ohungarumlaut" unicode="&#x150;" horiz-adv-x="759" 
d="M307 698l-43 44l137 131l41 -45zM460 698l-43 44l137 131l41 -45zM379 -15q-137 0 -233 98t-96 242q0 142 96 241t233 99t233.5 -99t96.5 -241q0 -144 -96 -242t-234 -98zM379 52q111 0 187 78t76 195t-76 195t-187 78q-110 0 -186 -78t-76 -195t76 -195t186 -78z" />
    <glyph glyph-name="ohungarumlaut" unicode="&#x151;" horiz-adv-x="493" 
d="M177 463l-43 44l137 131l41 -45zM330 463l-43 44l137 131l41 -45zM247 425q87 0 149 -62.5t62 -151.5q0 -91 -62 -156t-149 -65q-88 0 -150 65t-62 156q0 89 62 151.5t150 62.5zM247 54q61 0 104 46t43 111q0 63 -43 106.5t-104 43.5t-104.5 -43.5t-43.5 -106.5
q0 -64 43.5 -110.5t104.5 -46.5z" />
    <glyph glyph-name="OE" unicode="&#x152;" horiz-adv-x="1007" 
d="M960 650v-65h-258v-189l6 -38h175v-65h-175q-5 -37 -6 -40v-188h258v-65h-323v110q-46 -59 -113 -92t-145 -33q-137 0 -233 98t-96 242q0 142 96 241t233 99q78 0 145 -34t113 -93v112h323zM379 52q97 0 168.5 60.5t89.5 157.5v110q-18 97 -89.5 157.5t-168.5 60.5
q-110 0 -186 -78t-76 -195t76 -195t186 -78z" />
    <glyph glyph-name="oe" unicode="&#x153;" horiz-adv-x="846" 
d="M609 55q82 0 124 71h65q-23 -60 -73.5 -98t-115.5 -38q-59 0 -106.5 30t-72.5 81q-28 -51 -77 -81t-106 -30q-88 0 -150 65t-62 156q0 89 62 151.5t150 62.5q59 0 109 -30.5t77 -81.5q26 51 72 81.5t101 30.5q90 0 147.5 -67t57.5 -162h-343q2 -65 43 -103t98 -38z
M247 54q61 0 104 46t43 111q0 63 -43 106.5t-104 43.5t-104.5 -43.5t-43.5 -106.5q0 -64 43.5 -110.5t104.5 -46.5zM609 360q-46 0 -81 -29.5t-49 -77.5h260q-14 47 -49 77t-81 30z" />
    <glyph glyph-name="Racute" unicode="&#x154;" horiz-adv-x="564" 
d="M173 697l-27 54l188 95l27 -55zM142 179v-179h-65v650h173q73 0 120.5 -43t47.5 -111q0 -38 -17.5 -71t-41.5 -53q75 -14 116 -72t41 -134v-166h-65v166q0 70 -42.5 112.5t-111.5 42.5q-58 0 -106.5 -42t-48.5 -100zM250 585h-108v-265q30 30 122 72q89 41 89 104
q0 42 -28.5 65.5t-74.5 23.5z" />
    <glyph glyph-name="racute" unicode="&#x155;" horiz-adv-x="336" 
d="M255 611l27 -55l-188 -94l-27 54zM270 415h37v-63h-31q-64 0 -106 -38t-42 -105v-209h-63v415h63v-81q55 81 142 81z" />
    <glyph glyph-name="uni0156" unicode="&#x156;" horiz-adv-x="564" 
d="M142 179v-179h-65v650h173q73 0 120.5 -43t47.5 -111q0 -38 -17.5 -71t-41.5 -53q75 -14 116 -72t41 -134v-166h-65v166q0 70 -42.5 112.5t-111.5 42.5q-58 0 -106.5 -42t-48.5 -100zM250 585h-108v-265q30 30 122 72q89 41 89 104q0 42 -28.5 65.5t-74.5 23.5zM303 -43
q17 0 30 -12.5t13 -29.5q0 -12 -6 -26l-32 -81l-29 9l17 55q-16 2 -26.5 14t-10.5 29t13.5 29.5t30.5 12.5z" />
    <glyph glyph-name="uni0157" unicode="&#x157;" horiz-adv-x="336" 
d="M270 415h37v-63h-31q-64 0 -106 -38t-42 -105v-209h-63v415h63v-81q55 81 142 81zM102 -43q17 0 30 -12.5t13 -29.5q0 -12 -6 -26l-32 -81l-29 9l17 55q-16 2 -26.5 14t-10.5 29t13.5 29.5t30.5 12.5z" />
    <glyph glyph-name="Rcaron" unicode="&#x158;" horiz-adv-x="564" 
d="M403 826l-152 -135h-2l-152 135h86l67 -56l67 56h86zM359 372q75 -14 116 -72t41 -134v-166h-65v166q0 70 -42.5 112.5t-111.5 42.5q-58 0 -106.5 -42t-48.5 -100v-179h-65v650h173q73 0 120.5 -43t47.5 -111q0 -38 -17.5 -71t-41.5 -53zM264 392q89 41 89 104
q0 42 -28.5 65.5t-74.5 23.5h-108v-265q30 30 122 72z" />
    <glyph glyph-name="rcaron" unicode="&#x159;" horiz-adv-x="336" 
d="M324 591l-152 -135h-2l-152 135h86l67 -56l67 56h86zM128 415v-81q55 81 142 81h37v-63h-31q-64 0 -106 -38t-42 -105v-209h-63v415h63z" />
    <glyph glyph-name="Sacute" unicode="&#x15a;" horiz-adv-x="457" 
d="M145 697l-27 54l188 95l27 -55zM46 162v62h64v-62q0 -48 38.5 -80.5t85.5 -32.5t80 33t33 83q0 44 -26.5 70.5t-75.5 47.5l-39 17q-73 32 -117 75t-44 110q0 77 52.5 128.5t124.5 51.5q74 0 127 -51.5t53 -128.5v-57h-65v57q0 50 -34 83.5t-81 33.5q-45 0 -79 -33.5
t-34 -83.5q0 -73 101 -115l41 -17q161 -67 161 -188q0 -76 -52.5 -128t-125.5 -52t-130.5 51t-57.5 126z" />
    <glyph glyph-name="sacute" unicode="&#x15b;" horiz-adv-x="379" 
d="M113 462l-27 54l188 95l27 -55zM200 47q38 0 57 20.5t19 47.5q0 9 -3 17t-11 14.5t-13.5 10.5t-19 9t-18.5 7t-21.5 6t-18.5 5q-59 16 -94.5 43t-35.5 79q0 51 44 85t105 34q56 0 93 -32t49 -83h-66q-6 23 -27.5 39t-56.5 16q-31 0 -53.5 -15t-22.5 -37q0 -25 21.5 -44.5
t82.5 -34.5t95 -42t34 -77q0 -56 -39.5 -90.5t-103.5 -34.5q-61 0 -102 33.5t-54 89.5h69q11 -33 31 -49.5t60 -16.5z" />
    <glyph glyph-name="Scedilla" unicode="&#x15e;" horiz-adv-x="457" 
d="M412 165q0 -70 -45.5 -120.5t-111.5 -58.5l-32 -31q24 -8 38.5 -28.5t14.5 -45.5q0 -32 -22 -55t-54 -23q-28 0 -49 17.5t-27 43.5h46q10 -18 30 -18q14 0 24 10.5t10 24.5t-10 24.5t-25 10.5q-17 0 -27 -13h-48q5 18 23 36l48 50q-62 13 -105.5 60.5t-43.5 112.5v62h64
v-62q0 -48 38.5 -80.5t85.5 -32.5t80 33t33 83q0 44 -26.5 70.5t-75.5 47.5l-39 17q-73 32 -117 75t-44 110q0 77 52.5 128.5t124.5 51.5q74 0 127 -51.5t53 -128.5v-57h-65v57q0 50 -34 83.5t-81 33.5q-45 0 -79 -33.5t-34 -83.5q0 -73 101 -115l41 -17q161 -67 161 -188z
" />
    <glyph glyph-name="scedilla" unicode="&#x15f;" horiz-adv-x="379" 
d="M339 115q0 -49 -31.5 -82t-83.5 -41l-38 -37q24 -8 38.5 -28.5t14.5 -45.5q0 -32 -22 -55t-54 -23q-28 0 -49 17.5t-27 43.5h46q10 -18 30 -18q14 0 24 10.5t10 24.5t-10 24.5t-25 10.5q-17 0 -27 -13h-48q5 18 23 36l52 54q-47 9 -79 40.5t-43 79.5h69q11 -33 31 -49.5
t60 -16.5q38 0 57 20.5t19 47.5q0 9 -3 17t-11 14.5t-13.5 10.5t-19 9t-18.5 7t-21.5 6t-18.5 5q-59 16 -94.5 43t-35.5 79q0 51 44 85t105 34q56 0 93 -32t49 -83h-66q-6 23 -27.5 39t-56.5 16q-31 0 -53.5 -15t-22.5 -37q0 -25 21.5 -44.5t82.5 -34.5t95 -42t34 -77z" />
    <glyph glyph-name="Scaron" unicode="&#x160;" horiz-adv-x="457" 
d="M375 826l-152 -135h-2l-152 135h86l67 -56l67 56h86zM210 370l41 -17q161 -67 161 -188q0 -76 -52.5 -128t-125.5 -52t-130.5 51t-57.5 126v62h64v-62q0 -48 38.5 -80.5t85.5 -32.5t80 33t33 83q0 44 -26.5 70.5t-75.5 47.5l-39 17q-73 32 -117 75t-44 110
q0 77 52.5 128.5t124.5 51.5q74 0 127 -51.5t53 -128.5v-57h-65v57q0 50 -34 83.5t-81 33.5q-45 0 -79 -33.5t-34 -83.5q0 -73 101 -115z" />
    <glyph glyph-name="scaron" unicode="&#x161;" horiz-adv-x="379" 
d="M343 591l-152 -135h-2l-152 135h86l67 -56l67 56h86zM210 234q61 -15 95 -42t34 -77q0 -56 -39.5 -90.5t-103.5 -34.5q-61 0 -102 33.5t-54 89.5h69q11 -33 31 -49.5t60 -16.5q38 0 57 20.5t19 47.5q0 9 -3 17t-11 14.5t-13.5 10.5t-19 9t-18.5 7t-21.5 6t-18.5 5
q-59 16 -94.5 43t-35.5 79q0 51 44 85t105 34q56 0 93 -32t49 -83h-66q-6 23 -27.5 39t-56.5 16q-31 0 -53.5 -15t-22.5 -37q0 -25 21.5 -44.5t82.5 -34.5z" />
    <glyph glyph-name="uni0162" unicode="&#x162;" horiz-adv-x="441" 
d="M253 585v-585h-1l-46 -45q24 -8 38.5 -28.5t14.5 -45.5q0 -32 -22 -55t-54 -23q-28 0 -49 17.5t-27 43.5h46q10 -18 30 -18q14 0 24 10.5t10 24.5t-10 24.5t-25 10.5q-17 0 -27 -13h-48q5 18 23 36l59 61h-1v585h-145v65h355v-65h-145z" />
    <glyph glyph-name="uni0163" unicode="&#x163;" horiz-adv-x="309" 
d="M279 415v-63h-99v-239q0 -21 12.5 -35.5t34.5 -14.5h52v-63h-40l-46 -45q24 -8 38.5 -28.5t14.5 -45.5q0 -32 -22 -55t-54 -23q-28 0 -49 17.5t-27 43.5h46q10 -18 30 -18q14 0 24 10.5t10 24.5t-10 24.5t-25 10.5q-17 0 -27 -13h-48q5 18 23 36l59 61v13
q-26 14 -42.5 39t-16.5 53v247h-87v63q59 0 95 39t44 100h65q-16 -105 -65 -139h110z" />
    <glyph glyph-name="Tcaron" unicode="&#x164;" horiz-adv-x="441" 
d="M372 826l-152 -135h-2l-152 135h86l67 -56l67 56h86zM43 585v65h355v-65h-145v-585h-65v585h-145z" />
    <glyph glyph-name="tcaron" unicode="&#x165;" horiz-adv-x="309" 
d="M255 451l42 153l63 -19l-59 -148zM180 352h99v63h-110q49 34 65 139h-65q-8 -61 -44 -100t-95 -39v-63h87v-247q0 -41 33 -73t77 -32h52v63h-52q-22 0 -34.5 14.5t-12.5 35.5v239z" />
    <glyph glyph-name="Tbar" unicode="&#x166;" horiz-adv-x="441" 
d="M398 650v-63h-146v-237h85v-55h-85v-295h-63v295h-85v55h85v237h-146v63h355z" />
    <glyph glyph-name="tbar" unicode="&#x167;" horiz-adv-x="309" 
d="M279 415v-63h-99v-104h99v-63h-99v-72q0 -21 12.5 -35.5t34.5 -14.5h52v-63h-52q-44 0 -77 32t-33 73v80h-87v63h87v104h-87v63q59 0 95 39t44 100h65q-16 -105 -65 -139h110z" />
    <glyph glyph-name="Umacron" unicode="&#x16a;" horiz-adv-x="556" 
d="M370 767v-63h-184v63h184zM63 198v452h65v-452q0 -61 44 -104.5t106 -43.5t106 43.5t44 104.5v452h65v-452q0 -88 -63.5 -150.5t-151.5 -62.5t-151.5 62.5t-63.5 150.5z" />
    <glyph glyph-name="umacron" unicode="&#x16b;" horiz-adv-x="465" 
d="M316 532v-63h-184v63h184zM51 159v256h63v-254q0 -54 33 -80t80 -26q50 0 80 31t30 85v244h63v-415h-63v47q-41 -57 -118 -57q-76 0 -122 42.5t-46 126.5z" />
    <glyph glyph-name="Uring" unicode="&#x16e;" horiz-adv-x="556" 
d="M277 686q-35 0 -60.5 25t-25.5 60t25.5 61t60.5 26t61 -26t26 -61t-26 -60t-61 -25zM277 727q20 0 33 12t13 32q0 19 -13.5 32.5t-32.5 13.5q-18 0 -31.5 -13.5t-13.5 -32.5q0 -20 13 -32t32 -12zM63 198v452h65v-452q0 -61 44 -104.5t106 -43.5t106 43.5t44 104.5v452
h65v-452q0 -88 -63.5 -150.5t-151.5 -62.5t-151.5 62.5t-63.5 150.5z" />
    <glyph glyph-name="uring" unicode="&#x16f;" horiz-adv-x="465" 
d="M223 451q-35 0 -60.5 25t-25.5 60t25.5 61t60.5 26t61 -26t26 -61t-26 -60t-61 -25zM223 492q20 0 33 12t13 32q0 19 -13.5 32.5t-32.5 13.5q-18 0 -31.5 -13.5t-13.5 -32.5q0 -20 13 -32t32 -12zM51 159v256h63v-254q0 -54 33 -80t80 -26q50 0 80 31t30 85v244h63v-415
h-63v47q-41 -57 -118 -57q-76 0 -122 42.5t-46 126.5z" />
    <glyph glyph-name="Uhungarumlaut" unicode="&#x170;" horiz-adv-x="556" 
d="M206 698l-43 44l137 131l41 -45zM359 698l-43 44l137 131l41 -45zM63 198v452h65v-452q0 -61 44 -104.5t106 -43.5t106 43.5t44 104.5v452h65v-452q0 -88 -63.5 -150.5t-151.5 -62.5t-151.5 62.5t-63.5 150.5z" />
    <glyph glyph-name="uhungarumlaut" unicode="&#x171;" horiz-adv-x="465" 
d="M152 463l-43 44l137 131l41 -45zM305 463l-43 44l137 131l41 -45zM51 159v256h63v-254q0 -54 33 -80t80 -26q50 0 80 31t30 85v244h63v-415h-63v47q-41 -57 -118 -57q-76 0 -122 42.5t-46 126.5z" />
    <glyph glyph-name="Uogonek" unicode="&#x172;" horiz-adv-x="556" 
d="M428 198v452h65v-452q0 -66 -38 -120t-99 -78h-1q-6 -3 -20 -7q-48 -21 -48 -63q0 -27 27.5 -43.5t61.5 -16.5l-12 -58h-22q-52 0 -88.5 28.5t-37.5 66.5q0 49 47 79q-83 5 -141.5 66.5t-58.5 145.5v452h65v-452q0 -61 44 -104.5t106 -43.5t106 43.5t44 104.5z" />
    <glyph glyph-name="uogonek" unicode="&#x173;" horiz-adv-x="465" 
d="M330 -70q0 -27 27.5 -43.5t61.5 -16.5l-12 -58h-22q-52 0 -88.5 28.5t-37.5 66.5q0 34 22.5 58t55.5 35v47q-41 -57 -118 -57q-76 0 -122 42.5t-46 126.5v256h63v-254q0 -54 33 -80t80 -26q50 0 80 31t30 85v244h63v-415q-70 -18 -70 -70z" />
    <glyph glyph-name="Wcircumflex" unicode="&#x174;" horiz-adv-x="875" 
d="M437 827h2l152 -140h-86l-67 57l-67 -57h-86zM272 -15q-81 0 -139 57.5t-58 139.5v468h63v-466q0 -56 39 -95t95 -39q54 0 94 37.5t40 85.5v477h63v-477q0 -49 40 -86t93 -37q56 0 95.5 39.5t39.5 94.5v466h63v-468q0 -82 -58 -139.5t-140 -57.5q-49 0 -93 24t-72 66
q-25 -42 -70 -66t-95 -24z" />
    <glyph glyph-name="wcircumflex" unicode="&#x175;" horiz-adv-x="732" 
d="M433 467l-67 57l-67 -57h-86l152 140h2l152 -140h-86zM503 74l141 341h68l-174 -415h-70l-102 235l-102 -235h-70l-174 415h68l142 -341l102 238l-44 103h68z" />
    <glyph glyph-name="Ycircumflex" unicode="&#x176;" horiz-adv-x="492" 
d="M245 842h2l152 -140h-86l-67 57l-67 -57h-86zM246 400l145 250h76l-189 -325v-325h-65v325l-188 325h76z" />
    <glyph glyph-name="ycircumflex" unicode="&#x177;" horiz-adv-x="480" 
d="M308 467l-67 57l-67 -57h-86l152 140h2l152 -140h-86zM352 171v244h63v-439q0 -86 -60.5 -146t-143.5 -60q-71 0 -127 46t-71 117h65q14 -43 51 -70.5t82 -27.5q57 0 99 42.5t42 102.5v61q-39 -51 -109 -51q-80 0 -128 47.5t-48 123.5v254h63v-252q0 -46 33 -76.5
t80 -30.5q49 0 79 35t30 80z" />
    <glyph glyph-name="Ydieresis" unicode="&#x178;" horiz-adv-x="492" 
d="M177 716q-17 0 -29.5 12.5t-12.5 29.5t12.5 29t29.5 12t29.5 -12t12.5 -29t-12.5 -29.5t-29.5 -12.5zM316 716q-17 0 -29 12.5t-12 29.5t12 29t29 12t29.5 -12t12.5 -29t-12.5 -29.5t-29.5 -12.5zM246 400l145 250h76l-189 -325v-325h-65v325l-188 325h76z" />
    <glyph glyph-name="Zacute" unicode="&#x179;" horiz-adv-x="504" 
d="M344 846l27 -55l-188 -94l-27 54zM476 650l-344 -587h352v-63h-464l345 587h-321v63h432z" />
    <glyph glyph-name="zacute" unicode="&#x17a;" horiz-adv-x="444" 
d="M306 611l27 -55l-188 -94l-27 54zM52 415h340v-63l-258 -289h258v-63h-340v63l258 289h-258v63z" />
    <glyph glyph-name="Zdotaccent" unicode="&#x17b;" horiz-adv-x="504" 
d="M259 716q-18 0 -30.5 13t-12.5 31q0 19 12.5 31.5t30.5 12.5t31 -12.5t13 -31.5q0 -18 -13 -31t-31 -13zM476 650l-344 -587h352v-63h-464l345 587h-321v63h432z" />
    <glyph glyph-name="zdotaccent" unicode="&#x17c;" horiz-adv-x="444" 
d="M221 481q-18 0 -30.5 13t-12.5 31q0 19 12.5 31.5t30.5 12.5t31 -12.5t13 -31.5q0 -18 -13 -31t-31 -13zM52 415h340v-63l-258 -289h258v-63h-340v63l258 289h-258v63z" />
    <glyph glyph-name="Zcaron" unicode="&#x17d;" horiz-adv-x="504" 
d="M413 826l-152 -135h-2l-152 135h86l67 -56l67 56h86zM476 650l-344 -587h352v-63h-464l345 587h-321v63h432z" />
    <glyph glyph-name="zcaron" unicode="&#x17e;" horiz-adv-x="444" 
d="M375 591l-152 -135h-2l-152 135h86l67 -56l67 56h86zM52 415h340v-63l-258 -289h258v-63h-340v63l258 289h-258v63z" />
    <glyph glyph-name="uni0218" unicode="&#x218;" horiz-adv-x="457" 
d="M46 162v62h64v-62q0 -48 38.5 -80.5t85.5 -32.5t80 33t33 83q0 44 -26.5 70.5t-75.5 47.5l-39 17q-73 32 -117 75t-44 110q0 77 52.5 128.5t124.5 51.5q74 0 127 -51.5t53 -128.5v-57h-65v57q0 50 -34 83.5t-81 33.5q-45 0 -79 -33.5t-34 -83.5q0 -73 101 -115l41 -17
q161 -67 161 -188q0 -76 -52.5 -128t-125.5 -52t-130.5 51t-57.5 126zM238 -43q17 0 30 -12.5t13 -29.5q0 -12 -6 -26l-32 -81l-29 9l17 55q-16 2 -26.5 14t-10.5 29t13.5 29.5t30.5 12.5z" />
    <glyph glyph-name="uni0219" unicode="&#x219;" horiz-adv-x="379" 
d="M200 47q38 0 57 20.5t19 47.5q0 9 -3 17t-11 14.5t-13.5 10.5t-19 9t-18.5 7t-21.5 6t-18.5 5q-59 16 -94.5 43t-35.5 79q0 51 44 85t105 34q56 0 93 -32t49 -83h-66q-6 23 -27.5 39t-56.5 16q-31 0 -53.5 -15t-22.5 -37q0 -25 21.5 -44.5t82.5 -34.5t95 -42t34 -77
q0 -56 -39.5 -90.5t-103.5 -34.5q-61 0 -102 33.5t-54 89.5h69q11 -33 31 -49.5t60 -16.5zM201 -43q17 0 30 -12.5t13 -29.5q0 -12 -6 -26l-32 -81l-29 9l17 55q-16 2 -26.5 14t-10.5 29t13.5 29.5t30.5 12.5z" />
    <glyph glyph-name="uni021A" unicode="&#x21a;" horiz-adv-x="441" 
d="M253 585v-585h-65v585h-145v65h355v-65h-145zM221 -43q17 0 30 -12.5t13 -29.5q0 -12 -6 -26l-32 -81l-29 9l17 55q-16 2 -26.5 14t-10.5 29t13.5 29.5t30.5 12.5z" />
    <glyph glyph-name="uni021B" unicode="&#x21b;" horiz-adv-x="309" 
d="M180 352h99v63h-110q49 34 65 139h-65q-8 -61 -44 -100t-95 -39v-63h87v-247q0 -41 33 -73t77 -32h52v63h-52q-22 0 -34.5 14.5t-12.5 35.5v239zM197 -43q17 0 30 -12.5t13 -29.5q0 -12 -6 -26l-32 -81l-29 9l17 55q-16 2 -26.5 14t-10.5 29t13.5 29.5t30.5 12.5z" />
    <glyph glyph-name="circumflex" unicode="&#x2c6;" horiz-adv-x="406" 
d="M204 649l152 -140h-86l-67 56l-67 -56h-86l152 140h2z" />
    <glyph glyph-name="caron" unicode="&#x2c7;" horiz-adv-x="406" 
d="M203 613l67 56h86l-152 -135h-2l-152 135h86z" />
    <glyph glyph-name="breve" unicode="&#x2d8;" horiz-adv-x="296" 
d="M148 560q-39 0 -67 26t-31 64h55q3 -15 15 -25t28 -10t28 10t15 25h55q-3 -38 -31.5 -64t-66.5 -26z" />
    <glyph glyph-name="dotaccent" unicode="&#x2d9;" horiz-adv-x="183" 
d="M91 568q-17 0 -29 12.5t-12 29.5t12 29t29 12t29.5 -12t12.5 -29t-12.5 -29.5t-29.5 -12.5z" />
    <glyph glyph-name="ogonek" unicode="&#x2db;" horiz-adv-x="260" 
d="M128 0h63q-70 -18 -70 -70q0 -27 27.5 -43.5t61.5 -16.5l-12 -58h-22q-52 0 -88.5 28.5t-37.5 66.5q0 34 22.5 58t55.5 35z" />
    <glyph glyph-name="tilde" unicode="&#x2dc;" horiz-adv-x="362" 
d="M94 597h-44q2 48 25 74t57 26q20 0 56 -16t43 -16q37 0 37 38h44q-4 -45 -26.5 -72.5t-55.5 -27.5q-14 0 -53 15.5t-54 15.5q-12 0 -20.5 -11t-8.5 -26z" />
    <glyph glyph-name="hungarumlaut" unicode="&#x2dd;" horiz-adv-x="453" 
d="M86 447l-36 49l154 111l34 -50zM251 447l-36 49l154 111l34 -50z" />
    <glyph glyph-name="gravecomb" unicode="&#x300;" horiz-adv-x="0" 
d="M-228 596l188 -95l-27 -54l-188 94z" />
    <glyph glyph-name="acutecomb" unicode="&#x301;" horiz-adv-x="0" 
d="M-229 447l-27 54l188 95l27 -55z" />
    <glyph glyph-name="uni0302" unicode="&#x302;" horiz-adv-x="0" 
d="M-204 592h2l152 -140h-86l-67 57l-67 -57h-86z" />
    <glyph glyph-name="tildecomb" unicode="&#x303;" horiz-adv-x="0" 
d="M-268 446h-44q5 100 78 100q25 0 59.5 -16t48.5 -16q32 0 32 38h44q-8 -100 -75 -100q-26 0 -62 15.5t-52 15.5q-29 0 -29 -37z" />
    <glyph glyph-name="uni0304" unicode="&#x304;" horiz-adv-x="0" 
d="M-45 517v-63h-184v63h184z" />
    <glyph glyph-name="uni0306" unicode="&#x306;" horiz-adv-x="0" 
d="M-148 436q-39 0 -67 26t-31 64h55q3 -15 15 -25t28 -10t28 10t15 25h55q-3 -38 -31.5 -64t-66.5 -26z" />
    <glyph glyph-name="uni0307" unicode="&#x307;" horiz-adv-x="0" 
d="M-92 466q-18 0 -30.5 13t-12.5 31q0 19 12.5 31.5t30.5 12.5t31 -12.5t13 -31.5q0 -18 -13 -31t-31 -13z" />
    <glyph glyph-name="uni0308" unicode="&#x308;" horiz-adv-x="0" 
d="M-236 466q-17 0 -29.5 12.5t-12.5 29.5t12.5 29t29.5 12t29.5 -12t12.5 -29t-12.5 -29.5t-29.5 -12.5zM-97 466q-17 0 -29 12.5t-12 29.5t12 29t29 12t29.5 -12t12.5 -29t-12.5 -29.5t-29.5 -12.5z" />
    <glyph glyph-name="uni030A" unicode="&#x30a;" horiz-adv-x="0" 
d="M-116 436q-35 0 -60.5 25t-25.5 60t25.5 61t60.5 26t61 -26t26 -61t-26 -60t-61 -25zM-116 477q20 0 33 12t13 32q0 19 -13.5 32.5t-32.5 13.5q-18 0 -31.5 -13.5t-13.5 -32.5q0 -20 13 -32t32 -12z" />
    <glyph glyph-name="uni030B" unicode="&#x30b;" horiz-adv-x="0" 
d="M-294 448l-43 44l137 131l41 -45zM-141 448l-43 44l137 131l41 -45z" />
    <glyph glyph-name="uni030C" unicode="&#x30c;" horiz-adv-x="0" 
d="M-203 520l67 56h86l-152 -135h-2l-152 135h86z" />
    <glyph glyph-name="uni0312" unicode="&#x312;" horiz-adv-x="0" 
d="M-94 435q-17 0 -30 12.5t-13 29.5q0 12 6 26l32 81l29 -9l-17 -55q16 -2 26.5 -14t10.5 -29t-13.5 -29.5t-30.5 -12.5z" />
    <glyph glyph-name="uni0326" unicode="&#x326;" horiz-adv-x="0" 
d="M-93 -28q17 0 30 -12.5t13 -29.5q0 -12 -6 -26l-32 -81l-29 9l17 55q-16 2 -26.5 14t-10.5 29t13.5 29.5t30.5 12.5z" />
    <glyph glyph-name="uni0327" unicode="&#x327;" horiz-adv-x="0" 
d="M-53 15l-46 -45q24 -8 38.5 -28.5t14.5 -45.5q0 -32 -22 -55t-54 -23q-28 0 -49 17.5t-27 43.5h46q10 -18 30 -18q14 0 24 10.5t10 24.5t-10 24.5t-25 10.5q-17 0 -27 -13h-48q5 18 23 36l59 61v19h63v-19z" />
    <glyph glyph-name="uni0328" unicode="&#x328;" horiz-adv-x="0" 
d="M-132 0h63q-70 -18 -70 -70q0 -27 27.5 -43.5t61.5 -16.5l-12 -58h-22q-52 0 -88.5 28.5t-37.5 66.5q0 34 22.5 58t55.5 35z" />
    <glyph glyph-name="uni0394" unicode="&#x394;" horiz-adv-x="457" 
d="M263 463l174 -463h-417l174 463h69zM346 63l-117 313l-117 -313h234z" />
    <glyph glyph-name="uni03A9" unicode="&#x3a9;" horiz-adv-x="810" 
d="M255 75v-75h-183v64h98q-46 47 -74.5 114t-28.5 130q0 150 96.5 246t241.5 96q146 0 242 -97t96 -245q0 -64 -28.5 -131t-74.5 -113h98v-64h-184v75q53 36 89.5 101.5t36.5 131.5q0 123 -78.5 201t-196.5 78t-196.5 -78t-78.5 -201q0 -66 36 -131.5t89 -101.5z" />
    <glyph glyph-name="uni03BC" unicode="&#x3bc;" horiz-adv-x="548" 
d="M133 48v-278h-63v645h63v-215q0 -62 44.5 -107t106.5 -45t106 45t44 107v215h63v-215q0 -89 -62.5 -152t-150.5 -63t-151 63z" />
    <glyph glyph-name="pi" unicode="&#x3c0;" horiz-adv-x="499" 
d="M165 352v-352h-63v352h-58v63h411v-63h-58v-352h-63v352h-169z" />
    <glyph glyph-name="Wgrave" unicode="&#x1e80;" horiz-adv-x="875" 
d="M362 831l188 -95l-27 -54l-188 94zM272 -15q-81 0 -139 57.5t-58 139.5v468h63v-466q0 -56 39 -95t95 -39q54 0 94 37.5t40 85.5v477h63v-477q0 -49 40 -86t93 -37q56 0 95.5 39.5t39.5 94.5v466h63v-468q0 -82 -58 -139.5t-140 -57.5q-49 0 -93 24t-72 66
q-25 -42 -70 -66t-95 -24z" />
    <glyph glyph-name="wgrave" unicode="&#x1e81;" horiz-adv-x="732" 
d="M290 611l188 -95l-27 -54l-188 94zM503 74l141 341h68l-174 -415h-70l-102 235l-102 -235h-70l-174 415h68l142 -341l102 238l-44 103h68z" />
    <glyph glyph-name="Wacute" unicode="&#x1e82;" horiz-adv-x="875" 
d="M361 682l-27 54l188 95l27 -55zM272 -15q-81 0 -139 57.5t-58 139.5v468h63v-466q0 -56 39 -95t95 -39q54 0 94 37.5t40 85.5v477h63v-477q0 -49 40 -86t93 -37q56 0 95.5 39.5t39.5 94.5v466h63v-468q0 -82 -58 -139.5t-140 -57.5q-49 0 -93 24t-72 66q-25 -42 -70 -66
t-95 -24z" />
    <glyph glyph-name="wacute" unicode="&#x1e83;" horiz-adv-x="732" 
d="M450 611l27 -55l-188 -94l-27 54zM503 74l141 341h68l-174 -415h-70l-102 235l-102 -235h-70l-174 415h68l142 -341l102 238l-44 103h68z" />
    <glyph glyph-name="Wdieresis" unicode="&#x1e84;" horiz-adv-x="875" 
d="M369 701q-17 0 -29.5 12.5t-12.5 29.5t12.5 29t29.5 12t29.5 -12t12.5 -29t-12.5 -29.5t-29.5 -12.5zM508 701q-17 0 -29 12.5t-12 29.5t12 29t29 12t29.5 -12t12.5 -29t-12.5 -29.5t-29.5 -12.5zM272 -15q-81 0 -139 57.5t-58 139.5v468h63v-466q0 -56 39 -95t95 -39
q54 0 94 37.5t40 85.5v477h63v-477q0 -49 40 -86t93 -37q56 0 95.5 39.5t39.5 94.5v466h63v-468q0 -82 -58 -139.5t-140 -57.5q-49 0 -93 24t-72 66q-25 -42 -70 -66t-95 -24z" />
    <glyph glyph-name="wdieresis" unicode="&#x1e85;" horiz-adv-x="732" 
d="M297 481q-17 0 -29.5 12.5t-12.5 29.5t12.5 29t29.5 12t29.5 -12t12.5 -29t-12.5 -29.5t-29.5 -12.5zM436 481q-17 0 -29 12.5t-12 29.5t12 29t29 12t29.5 -12t12.5 -29t-12.5 -29.5t-29.5 -12.5zM503 74l141 341h68l-174 -415h-70l-102 235l-102 -235h-70l-174 415h68
l142 -341l102 238l-44 103h68z" />
    <glyph glyph-name="uni1E9E" unicode="&#x1e9e;" horiz-adv-x="484" 
d="M133 0h-63v462q0 93 52 148t130 55q71 0 115 -42.5t44 -109.5q0 -42 -23 -74.5t-50 -48.5t-50 -39t-23 -50q0 -20 18.5 -35.5t44.5 -28.5t52.5 -29t45 -43.5t18.5 -64.5q0 -45 -36 -80t-97 -35q-53 0 -88.5 32.5t-48.5 85.5h69q21 -62 79 -62q25 0 42.5 16.5t17.5 39.5
q0 24 -18.5 43t-45.5 33t-53.5 29.5t-45.5 40.5t-19 58q0 34 15 59.5t37 42t44 31.5t37 36t15 48q0 39 -28 61.5t-74 22.5q-47 0 -80 -36.5t-33 -117.5v-448z" />
    <glyph glyph-name="Ygrave" unicode="&#x1ef2;" horiz-adv-x="492" 
d="M170 846l188 -95l-27 -54l-188 94zM246 400l145 250h76l-189 -325v-325h-65v325l-188 325h76z" />
    <glyph glyph-name="ygrave" unicode="&#x1ef3;" horiz-adv-x="480" 
d="M165 611l188 -95l-27 -54l-188 94zM352 171v244h63v-439q0 -86 -60.5 -146t-143.5 -60q-71 0 -127 46t-71 117h65q14 -43 51 -70.5t82 -27.5q57 0 99 42.5t42 102.5v61q-39 -51 -109 -51q-80 0 -128 47.5t-48 123.5v254h63v-252q0 -46 33 -76.5t80 -30.5q49 0 79 35
t30 80z" />
    <glyph glyph-name="uni2007" unicode="&#x2007;" horiz-adv-x="765" 
 />
    <glyph glyph-name="uni2008" unicode="&#x2008;" horiz-adv-x="232" 
 />
    <glyph glyph-name="uni200B" unicode="&#x200b;" horiz-adv-x="40" 
 />
    <glyph glyph-name="endash" unicode="&#x2013;" horiz-adv-x="506" 
d="M434 245v-63h-362v63h362z" />
    <glyph glyph-name="emdash" unicode="&#x2014;" horiz-adv-x="616" 
d="M544 245v-63h-472v63h472z" />
    <glyph glyph-name="quoteleft" unicode="&#x2018;" horiz-adv-x="216" 
d="M108 460q-22 0 -38.5 16t-16.5 39q0 11 8 32l41 103l37 -11l-22 -70q20 -3 33 -18.5t13 -35.5q0 -23 -16.5 -39t-38.5 -16z" />
    <glyph glyph-name="quoteright" unicode="&#x2019;" horiz-adv-x="213" 
d="M101 645q23 0 39 -16.5t16 -38.5q0 -11 -8 -32l-41 -103l-37 11l22 70q-20 3 -33 18.5t-13 35.5q0 22 16 38.5t39 16.5z" />
    <glyph glyph-name="quotesinglbase" unicode="&#x201a;" horiz-adv-x="235" 
d="M110 105q22 0 38.5 -16.5t16.5 -38.5q0 -11 -8 -32l-41 -103l-37 11l22 70q-20 3 -33 18.5t-13 35.5q0 22 16.5 38.5t38.5 16.5z" />
    <glyph glyph-name="quotedblleft" unicode="&#x201c;" horiz-adv-x="349" 
d="M115 459q-23 0 -39 16.5t-16 38.5q0 11 8 32l41 103l37 -11l-22 -70q20 -3 33 -18.5t13 -35.5q0 -22 -16 -38.5t-39 -16.5zM248 459q-22 0 -38.5 16.5t-16.5 38.5q0 11 8 32l41 103l37 -11l-22 -70q20 -3 33 -18.5t13 -35.5q0 -22 -16.5 -38.5t-38.5 -16.5z" />
    <glyph glyph-name="quotedblright" unicode="&#x201d;" horiz-adv-x="346" 
d="M101 645q23 0 39 -16.5t16 -38.5q0 -11 -8 -32l-41 -103l-37 11l22 70q-20 3 -33 18.5t-13 35.5q0 22 16 38.5t39 16.5zM234 645q22 0 38.5 -16.5t16.5 -38.5q0 -11 -8 -32l-41 -103l-37 11l22 70q-20 3 -33 18.5t-13 35.5q0 22 16.5 38.5t38.5 16.5z" />
    <glyph glyph-name="quotedblbase" unicode="&#x201e;" horiz-adv-x="368" 
d="M110 103q22 0 38.5 -16.5t16.5 -38.5q0 -11 -8 -32l-41 -103l-37 11l22 70q-20 3 -33 18.5t-13 35.5q0 22 16.5 38.5t38.5 16.5zM243 103q23 0 39 -16.5t16 -38.5q0 -11 -8 -32l-41 -103l-37 11l22 70q-20 3 -33 18.5t-13 35.5q0 22 16 38.5t39 16.5z" />
    <glyph glyph-name="dagger" unicode="&#x2020;" horiz-adv-x="399" 
d="M231 294v-294h-63v294h-119v63h119v293h63v-293h118v-63h-118z" />
    <glyph glyph-name="daggerdbl" unicode="&#x2021;" horiz-adv-x="402" 
d="M232 229v-229h-63v229h-118v63h118v66h-118v63h118v229h63v-229h119v-63h-119v-66h119v-63h-119z" />
    <glyph glyph-name="bullet" unicode="&#x2022;" horiz-adv-x="393" 
d="M197 91q-47 0 -80.5 33.5t-33.5 80.5t33.5 80.5t80.5 33.5t80 -33.5t33 -80.5t-33 -80.5t-80 -33.5z" />
    <glyph glyph-name="ellipsis" unicode="&#x2026;" horiz-adv-x="651" 
d="M110 -5q-22 0 -38.5 16.5t-16.5 38.5t16.5 38.5t38.5 16.5t38.5 -16.5t16.5 -38.5t-16.5 -38.5t-38.5 -16.5zM325 -5q-23 0 -39 16.5t-16 38.5t16 38.5t39 16.5t39 -16.5t16 -38.5t-16 -38.5t-39 -16.5zM541 -5q-23 0 -39 16.5t-16 38.5t16 38.5t39 16.5t39 -16.5
t16 -38.5t-16 -38.5t-39 -16.5z" />
    <glyph glyph-name="perthousand" unicode="&#x2030;" horiz-adv-x="1124" 
d="M180 382q-56 0 -95 39t-39 95t39 95t95 39t95 -39t39 -95t-39 -95t-95 -39zM576 650l-278 -650h-67l278 650h67zM180 433q34 0 58.5 24.5t24.5 58.5t-24.5 58.5t-58.5 24.5t-58.5 -24.5t-24.5 -58.5t24.5 -58.5t58.5 -24.5zM626 0q-56 0 -95 39t-39 95t39 95t95 39
t95 -39t39 -95t-39 -95t-95 -39zM944 0q-56 0 -95 39t-39 95t39 95t95 39t95 -39t39 -95t-39 -95t-95 -39zM626 51q34 0 58.5 24.5t24.5 58.5t-24.5 58.5t-58.5 24.5t-58.5 -24.5t-24.5 -58.5t24.5 -58.5t58.5 -24.5zM944 51q34 0 58.5 24.5t24.5 58.5t-24.5 58.5
t-58.5 24.5t-58.5 -24.5t-24.5 -58.5t24.5 -58.5t58.5 -24.5z" />
    <glyph glyph-name="guilsinglleft" unicode="&#x2039;" horiz-adv-x="304" 
d="M139 199l96 -96l-44 -45l-141 141l144 145l45 -45z" />
    <glyph glyph-name="guilsinglright" unicode="&#x203a;" horiz-adv-x="305" 
d="M114 344l141 -141l-144 -145l-45 45l100 100l-97 96z" />
    <glyph glyph-name="fraction" unicode="&#x2044;" horiz-adv-x="593" 
d="M610 650l-543 -649h-81l543 649h81z" />
    <glyph glyph-name="Euro" unicode="&#x20ac;" horiz-adv-x="523" 
d="M468 650v-64q-80 0 -143 -44.5t-90 -118.5h101v-63h-116q-2 -22 -2 -35t2 -35h116v-63h-101q27 -74 90 -118.5t143 -44.5v-64q-105 0 -187.5 63t-112.5 164h-117v63h105q-2 22 -2 35t2 35h-105v63h117q30 100 112.5 163.5t187.5 63.5z" />
    <glyph glyph-name="uni2117" unicode="&#x2117;" horiz-adv-x="513" 
d="M256 243q-84 0 -143.5 59.5t-59.5 143.5q0 85 59.5 144.5t143.5 59.5t144 -59.5t60 -144.5q0 -84 -60 -143.5t-144 -59.5zM256 284q67 0 114.5 47.5t47.5 114.5t-47.5 114.5t-114.5 47.5t-114.5 -47.5t-47.5 -114.5t47.5 -114.5t114.5 -47.5zM231 425v-83h-40v206h82
q28 0 46.5 -18t18.5 -42q0 -25 -15.5 -43t-42.5 -19zM260 508h-29v-43h29q36 0 36 23q0 20 -36 20z" />
    <glyph glyph-name="trademark" unicode="&#x2122;" horiz-adv-x="585" 
d="M155 592v-177h-57v177h-44v58h145v-58h-44zM275 556v-141h-58v141q0 39 27.5 66.5t66.5 27.5t65 -26q26 26 64 26q39 0 67 -27.5t28 -66.5v-141h-59v141q0 15 -9.5 25.5t-25.5 10.5q-15 0 -25.5 -10.5t-10.5 -25.5v-141h-59l1 141q0 14 -10.5 25t-25.5 11t-25.5 -11
t-10.5 -25z" />
    <glyph glyph-name="arrowleft" unicode="&#x2190;" horiz-adv-x="677" 
d="M70 279l222 226l45 -44l-147 -149h417v-63h-417l150 -148l-44 -45z" />
    <glyph glyph-name="arrowup" unicode="&#x2191;" horiz-adv-x="549" 
d="M320 563l179 -182l-45 -44l-148 150v-417h-63v417l-149 -147l-44 45l225 222h1l27 -28z" />
    <glyph glyph-name="arrowright" unicode="&#x2192;" horiz-adv-x="677" 
d="M340 461l45 44l222 -226l-226 -223l-44 45l150 148h-417v63h417z" />
    <glyph glyph-name="arrowdown" unicode="&#x2193;" horiz-adv-x="549" 
d="M499 296l-179 -182l-17 -16l-27 -28h-1l-225 222l44 45l149 -147v417h63v-417l148 150z" />
    <glyph glyph-name="emptyset" unicode="&#x2205;" horiz-adv-x="759" 
d="M691 650l-74 -88q92 -98 92 -237q0 -144 -96 -242t-234 -98q-108 0 -194 64l-69 -83l-50 42l71 84q-87 98 -87 233q0 142 96 241t233 99q104 0 189 -60l73 87zM117 325q0 -105 63 -181l345 410q-64 44 -146 44q-110 0 -186 -78t-76 -195zM379 52q111 0 187 78t76 195
q0 108 -68 186l-346 -411q67 -48 151 -48z" />
    <glyph glyph-name="product" unicode="&#x220f;" horiz-adv-x="514" 
d="M173 587v-587h-63v587h-59v63h412v-63h-59v-587h-63v587h-168z" />
    <glyph glyph-name="summation" unicode="&#x2211;" horiz-adv-x="574" 
d="M522 63v-63h-472v63l261 262l-261 262v63h472v-63h-383l262 -262l-262 -262h383z" />
    <glyph glyph-name="minus" unicode="&#x2212;" horiz-adv-x="503" 
d="M433 346v-63h-363v63h363z" />
    <glyph glyph-name="radical" unicode="&#x221a;" 
d="M495 683l-275 -683h-26l-110 259h-63v63h106l79 -188l221 549h68z" />
    <glyph glyph-name="infinity" unicode="&#x221e;" horiz-adv-x="788" 
d="M394 242q-33 -51 -69.5 -76t-88.5 -25q-70 0 -120 50t-50 122q0 73 49 122.5t121 49.5q53 0 90 -25.5t68 -75.5q31 50 68 75.5t90 25.5q72 0 121 -49.5t49 -122.5q0 -72 -50 -122t-120 -50q-52 0 -88.5 25t-69.5 76zM236 205q78 0 124 108q-47 109 -124 109
q-45 0 -75.5 -29.5t-30.5 -79.5q0 -45 31 -76.5t75 -31.5zM552 205q44 0 75 31.5t31 76.5q0 50 -30.5 79.5t-75.5 29.5q-77 0 -124 -109q46 -108 124 -108z" />
    <glyph glyph-name="integral" unicode="&#x222b;" horiz-adv-x="283" 
d="M92 0q-27 0 -50 13l15 64q16 -11 28 -11q25 0 25 46v432q0 50 21 78t61 28q27 0 50 -13l-15 -64q-16 11 -28 11q-26 0 -26 -46v-432q0 -106 -81 -106z" />
    <glyph glyph-name="approxequal" unicode="&#x2248;" horiz-adv-x="503" 
d="M145 331l-52 35q30 55 94 55q21 0 71 -11t62 -11q23 0 40 23l52 -35q-34 -56 -91 -56q-19 0 -59 11t-63 11q-40 0 -54 -22zM145 200l-52 35q31 55 95 55q20 0 70 -11t62 -11q23 0 40 23l52 -35q-34 -56 -91 -56q-19 0 -59 11t-63 11q-40 0 -54 -22z" />
    <glyph glyph-name="notequal" unicode="&#x2260;" horiz-adv-x="503" 
d="M236 202l-32 -73h-69l32 73h-97v63h124l45 102h-169v63h197l31 73h69l-31 -73h97v-63h-125l-45 -102h170v-63h-197z" />
    <glyph glyph-name="lessequal" unicode="&#x2264;" horiz-adv-x="503" 
d="M89 384l316 101v-66l-182 -59l182 -58v-67l-316 101v48zM405 128h-316v63h316v-63z" />
    <glyph glyph-name="greaterequal" unicode="&#x2265;" horiz-adv-x="503" 
d="M98 419v66l316 -101v-48l-316 -101v67l182 58zM414 128h-316v63h316v-63z" />
    <glyph glyph-name="uni2460" unicode="&#x2460;" horiz-adv-x="794" 
d="M70 327l327 328l327 -328l-327 -327zM683 327l-286 286l-286 -286l286 -286zM420 464v-273h-34v239h-27v34h61z" />
    <glyph glyph-name="uni2461" unicode="&#x2461;" horiz-adv-x="794" 
d="M70 327l327 328l327 -328l-327 -327zM683 327l-286 286l-286 -286l286 -286zM458 346l-109 -129h132v-29h-168v31l120 142q18 22 18 42q0 23 -15.5 38.5t-38.5 15.5t-39 -16t-16 -38v-3h-29v3q0 35 24.5 59.5t59.5 24.5t59.5 -24.5t24.5 -59.5q0 -30 -23 -57z" />
    <glyph glyph-name="uni2462" unicode="&#x2462;" horiz-adv-x="791" 
d="M70 327l327 328l327 -328l-327 -327zM683 327l-286 286l-286 -286l286 -286zM474 390q0 -39 -34 -63q34 -24 34 -63q0 -32 -22.5 -54.5t-54.5 -22.5t-54.5 22.5t-22.5 54.5v3h27v-4q0 -20 14.5 -34.5t35.5 -14.5t35.5 14.5t14.5 34.5q0 21 -14.5 35.5t-35.5 14.5h-12v28
h12q21 0 35.5 14.5t14.5 35.5q0 20 -14.5 34.5t-35.5 14.5t-35.5 -14.5t-14.5 -34.5v-4h-27v3q0 32 22.5 54.5t54.5 22.5t54.5 -22.5t22.5 -54.5z" />
    <glyph glyph-name="uni2463" unicode="&#x2463;" horiz-adv-x="794" 
d="M70 327l327 328l327 -328l-327 -327zM397 613l-286 -286l286 -286l286 286zM424 473v-186h47v-26h-47v-61h-26v61h-111l111 212h26zM398 415l-67 -128h67v128z" />
    <glyph glyph-name="uni2464" unicode="&#x2464;" horiz-adv-x="794" 
d="M70 325l326 325l325 -325l-326 -325zM111 325l284 -284l285 284l-284 284zM395 359q36 0 61 -25.5t25 -61.5q0 -35 -25.5 -60.5t-60.5 -25.5q-49 0 -76 44l24 12q18 -30 52 -30q25 0 42.5 18t17.5 42q0 25 -17.5 42.5t-42.5 17.5t-41 -16h-26l28 149h96v-26h-75l-16 -87
q17 7 34 7z" />
    <glyph glyph-name="uni2465" unicode="&#x2465;" horiz-adv-x="795" 
d="M70 327l327 328l327 -328l-327 -327zM683 327l-286 286l-286 -286l286 -286zM441 466l-65 -122q4 2 15 2q34 0 57 -23t23 -56t-23 -56t-56 -23q-34 0 -56.5 23.5t-22.5 55.5q0 18 11 40l88 159h29zM392 214q22 0 37.5 15.5t15.5 37.5t-15.5 37.5t-37.5 15.5
q-23 0 -38 -15.5t-15 -37.5t15.5 -37.5t37.5 -15.5z" />
    <glyph glyph-name="uni2466" unicode="&#x2466;" horiz-adv-x="794" 
d="M70 327l327 328l327 -328l-327 -327zM397 613l-286 -286l286 -286l286 286zM327 440v27h140l-80 -279h-28l73 252h-105z" />
    <glyph glyph-name="uni2467" unicode="&#x2467;" horiz-adv-x="795" 
d="M70 327l327 328l327 -328l-327 -327zM683 327l-286 286l-286 -286l286 -286zM435 347q46 -23 46 -75q0 -35 -24.5 -59.5t-59.5 -24.5t-60 24.5t-25 59.5q0 51 46 76q-10 7 -18 22.5t-8 29.5q0 28 19 47t46 19t46 -19t19 -47q0 -35 -27 -53zM397 439q-17 0 -27.5 -10.5
t-10.5 -28.5q0 -16 11 -27.5t27 -11.5t27 11.5t11 27.5q0 18 -10.5 28.5t-27.5 10.5zM397 213q24 0 41.5 17t17.5 42t-17.5 42t-41.5 17q-25 0 -42.5 -17t-17.5 -42t17.5 -42t42.5 -17z" />
    <glyph glyph-name="uni2468" unicode="&#x2468;" horiz-adv-x="794" 
d="M70 327l327 328l327 -328l-327 -327zM683 327l-286 286l-286 -286l286 -286zM484 381q0 -23 -11 -43l-82 -150h-30l60 109q-44 -10 -77 15.5t-33 68.5q0 35 25 60t62 25q36 0 61 -25t25 -60zM398 321q25 0 42.5 17.5t17.5 42.5t-17.5 42.5t-42.5 17.5t-43 -17.5
t-18 -42.5q0 -26 18 -43t43 -17z" />
    <glyph glyph-name="uni24EA" unicode="&#x24ea;" horiz-adv-x="791" 
d="M70 325l326 325l325 -325l-326 -325zM111 325l284 -284l285 284l-284 284zM395 186q-57 0 -98 40.5t-41 98.5t41 98.5t98 40.5q58 0 99 -40.5t41 -98.5t-41 -98.5t-99 -40.5zM395 219q44 0 75.5 31t31.5 75t-31.5 75t-75.5 31t-75 -31t-31 -75t31 -75t75 -31z" />
    <glyph glyph-name="filledbox" unicode="&#x25a0;" horiz-adv-x="841" 
d="M70 4v701h701v-701h-701z" />
    <glyph glyph-name="uni25A1" unicode="&#x25a1;" horiz-adv-x="841" 
d="M70 4v701h701v-701h-701zM708 642h-574v-575h574v575z" />
    <glyph glyph-name="uni25AF" unicode="&#x25af;" horiz-adv-x="497" 
d="M407 0h-317v650h317v-650zM153 587v-524h191v524h-191z" />
    <glyph glyph-name="lozenge" unicode="&#x25ca;" horiz-adv-x="362" 
d="M157 543h48l101 -229l-101 -229h-48l-101 229zM123 314l58 -134l59 134l-59 134z" />
    <glyph glyph-name="circle" unicode="&#x25cb;" horiz-adv-x="823" 
d="M412 1q-150 0 -256 106t-106 256q0 149 106 255t256 106q149 0 255 -106t106 -255q0 -150 -106 -256t-255 -106zM412 63q124 0 212 87.5t88 211.5t-88 212t-212 88t-212 -88t-88 -212t88 -211.5t212 -87.5z" />
    <glyph glyph-name="uni25CF" unicode="&#x25cf;" horiz-adv-x="823" 
d="M412 1q-150 0 -256 106t-106 256q0 149 106 255t256 106q149 0 255 -106t106 -255q0 -150 -106 -256t-255 -106z" />
    <glyph glyph-name="openbullet" unicode="&#x25e6;" horiz-adv-x="389" 
d="M195 205q-48 0 -81.5 33.5t-33.5 81.5q0 47 33.5 80.5t81.5 33.5q47 0 80.5 -33.5t33.5 -80.5q0 -48 -33.5 -81.5t-80.5 -33.5zM195 262q24 0 41 16.5t17 40.5q0 25 -17 42t-41 17q-25 0 -42 -17t-16 -42q-1 -24 16 -40.5t42 -16.5z" />
    <glyph glyph-name="uni25FB" unicode="&#x25fb;" horiz-adv-x="516" 
d="M80 188v356h356v-356h-356zM375 482h-232v-232h232v232z" />
    <glyph glyph-name="uni25FC" unicode="&#x25fc;" horiz-adv-x="516" 
d="M80 188v356h356v-356h-356z" />
    <glyph glyph-name="uni2713" unicode="&#x2713;" horiz-adv-x="709" 
d="M272 139l335 478l52 -36l-387 -551l-222 317l51 36z" />
    <glyph glyph-name="uni2715" unicode="&#x2715;" horiz-adv-x="701" 
d="M626 644l45 -45l-275 -275l275 -276l-45 -45l-275 276l-276 -276l-45 45l276 276l-276 275l45 45l276 -275z" />
    <glyph glyph-name="uni3046" unicode="&#x3046;" horiz-adv-x="920" 
d="M615 471v-58q-225 0 -361 63l28 51q50 -26 141.5 -41t191.5 -15zM226 -96l-13 58q415 115 415 270q0 86 -168 86q-33 0 -113.5 -10.5t-143.5 -27.5l-14 58q44 15 132 27t136 12q104 0 167.5 -36t63.5 -109q0 -59 -43 -113.5t-114 -95t-147.5 -70.5t-157.5 -49z" />
    <glyph glyph-name="uni304D" unicode="&#x304d;" horiz-adv-x="920" 
d="M353 -101q-74 0 -120 32t-46 94q0 51 34.5 84.5t85.5 46.5t116 13q69 0 136 -8q-30 41 -68 108q-103 -11 -191 -11q-28 0 -88 2l3 56q60 -2 81 -2q67 0 166 9l-25 52q-78 -6 -139 -6q-26 0 -86 2l3 56q22 -1 68 -1q69 0 129 3q-11 25 -21 49.5t-15 37.5l-5 12l53 20
q0 -9 47 -113q67 8 121 18q71 16 120 34l20 -52q-56 -21 -123 -36q-53 -11 -112 -18q16 -34 25 -51q47 7 92 18q52 12 98 29l20 -53q-43 -17 -102 -31q-65 -13 -79 -15q45 -80 103 -144l-17 -41q-123 20 -195 20q-96 0 -149.5 -21.5t-49.5 -73.5q4 -63 125 -63q112 0 265 45
l17 -53q-61 -21 -144.5 -34.5t-152.5 -13.5z" />
    <glyph glyph-name="uni3068" unicode="&#x3068;" horiz-adv-x="920" 
d="M679 29l18 -58q-140 -36 -269 -36q-103 0 -165 34t-62 108q0 114 157 210l-84 269h62l76 -240q128 64 248 89l12 -59q-63 -15 -128 -38.5t-132 -57t-109 -78.5t-42 -93q0 -84 166 -84q122 0 252 34z" />
    <glyph glyph-name="uni3088" unicode="&#x3088;" horiz-adv-x="920" 
d="M483 295v-132q72 -5 120 -30.5t94 -81.5l-46 -37q-37 46 -73 65t-95 24v-26q0 -64 -41.5 -106t-106.5 -42q-58 0 -97.5 34.5t-39.5 84.5q0 47 38.5 82.5t108.5 35.5h78v347h60v-159q96 2 143 26l25 -54q-64 -31 -168 -31zM335 -11q88 0 88 97v19q-26 1 -88 1
q-34 0 -56.5 -16.5t-22.5 -41.5q0 -27 22.5 -43t56.5 -16z" />
    <glyph glyph-name="uni30B3" unicode="&#x30b3;" horiz-adv-x="1040" 
d="M811 526v-647h-60v53h-545v60h545v474h-545v60h605z" />
    <glyph glyph-name="uni30D9" unicode="&#x30d9;" horiz-adv-x="1040" 
d="M731 532l110 -109l-42 -43l-110 110zM644 445l109 -110l-42 -42l-110 109zM385 399l457 -457l-42 -43l-415 415l-214 -211l-43 43z" />
    <glyph glyph-name="uni5E02" unicode="&#x5e02;" horiz-adv-x="920" 
d="M728 382v-60h-532v60h236v124h60v-124h236zM492 197v-308h-60v308h-105v-197h-60v257h165v37h60v-37h165v-112q0 -53 -30.5 -96.5t-79.5 -61.5v70q47 32 47 88v52h-102z" />
    <glyph glyph-name="uni6238" unicode="&#x6238;" horiz-adv-x="920" 
d="M727 495v-60h-531v60h531zM197 -124l-40 37q110 120 110 256v202h390v-326h-60v69h-275q-15 -80 -40 -127t-85 -111zM597 311h-270v-137h270v137z" />
    <glyph glyph-name="uni795E" unicode="&#x795e;" horiz-adv-x="920" 
d="M272 177v-250h-60v252q-59 -46 -126 -72v65q71 33 137 93.5t96 120.5h-233v60h126v101h60v-101h140q-13 -46 -49.5 -103t-77.5 -101q52 -43 111 -70v-65q-68 29 -124 70zM666 83v-156h-60v156h-99v-48h-60v411h159v101h60v-101h159v-411h-60v48h-99zM606 386h-99v-92h99
v92zM765 294v92h-99v-92h99zM606 234h-99v-91h99v91zM765 143v91h-99v-91h99z" />
    <glyph glyph-name="uniFEFF" unicode="&#xfeff;" horiz-adv-x="40" 
 />
    <glyph glyph-name="A.ss01" 
d="M476 650l13 -64q-47 -10 -83 -25v-561h-65v169h-229q-17 -78 -17 -169h-65q0 247 113 420q121 189 333 230zM128 234h213v294q-86 -52 -144 -143q-43 -67 -69 -151z" />
    <glyph glyph-name="Aacute.ss01" 
d="M481 846l27 -55l-188 -94l-27 54zM476 650l13 -64q-47 -10 -83 -25v-561h-65v169h-229q-17 -78 -17 -169h-65q0 247 113 420q121 189 333 230zM128 234h213v294q-86 -52 -144 -143q-43 -67 -69 -151z" />
    <glyph glyph-name="Abreve.ss01" 
d="M397 686q-39 0 -67 26t-31 64h55q3 -15 15 -25t28 -10t28 10t15 25h55q-3 -38 -31.5 -64t-66.5 -26zM476 650l13 -64q-47 -10 -83 -25v-561h-65v169h-229q-17 -78 -17 -169h-65q0 247 113 420q121 189 333 230zM128 234h213v294q-86 -52 -144 -143q-43 -67 -69 -151z" />
    <glyph glyph-name="Acircumflex.ss01" 
d="M464 702l-67 57l-67 -57h-86l152 140h2l152 -140h-86zM476 650l13 -64q-47 -10 -83 -25v-561h-65v169h-229q-17 -78 -17 -169h-65q0 247 113 420q121 189 333 230zM128 234h213v294q-86 -52 -144 -143q-43 -67 -69 -151z" />
    <glyph glyph-name="Adieresis.ss01" 
d="M328 716q-17 0 -29.5 12.5t-12.5 29.5t12.5 29t29.5 12t29.5 -12t12.5 -29t-12.5 -29.5t-29.5 -12.5zM467 799q17 0 29.5 -12t12.5 -29t-12.5 -29.5t-29.5 -12.5t-29 12.5t-12 29.5t12 29t29 12zM476 650l13 -64q-47 -10 -83 -25v-561h-65v169h-229q-17 -78 -17 -169h-65
q0 247 113 420q121 189 333 230zM128 234h213v294q-86 -52 -144 -143q-43 -67 -69 -151z" />
    <glyph glyph-name="Agrave.ss01" 
d="M321 846l188 -95l-27 -54l-188 94zM476 650l13 -64q-47 -10 -83 -25v-561h-65v169h-229q-17 -78 -17 -169h-65q0 247 113 420q121 189 333 230zM128 234h213v294q-86 -52 -144 -143q-43 -67 -69 -151z" />
    <glyph glyph-name="Amacron.ss01" 
d="M305 704v63h184v-63h-184zM476 650l13 -64q-47 -10 -83 -25v-561h-65v169h-229q-17 -78 -17 -169h-65q0 247 113 420q121 189 333 230zM128 234h213v294q-86 -52 -144 -143q-43 -67 -69 -151z" />
    <glyph glyph-name="Aogonek.ss01" 
d="M334 -70q0 -27 27.5 -43.5t61.5 -16.5l-12 -58h-22q-52 0 -88.5 28.5t-37.5 66.5q0 34 22.5 58t55.5 35v169h-229q-17 -78 -17 -169h-65q0 247 113 420q121 189 333 230l13 -64q-47 -10 -83 -25v-561h-2q-70 -18 -70 -70zM128 234h213v294q-86 -52 -144 -143
q-43 -67 -69 -151z" />
    <glyph glyph-name="Aring.ss01" 
d="M320 643q-35 0 -60.5 25t-25.5 60t25.5 61t60.5 26t61 -26t26 -61t-26 -60t-61 -25zM320 774q-18 0 -31.5 -13.5t-13.5 -32.5q0 -20 13 -32t32 -12q20 0 33 12t13 32q0 19 -13.5 32.5t-32.5 13.5zM453 650l13 -64q-47 -10 -83 -25v-561h-65v169h-229q-17 -78 -17 -169
h-65q0 247 113 420q121 189 333 230zM105 234h213v294q-86 -52 -144 -143q-43 -67 -69 -151z" />
    <glyph glyph-name="Atilde.ss01" 
d="M484 802h44q-8 -100 -75 -100q-26 0 -62 15.5t-52 15.5q-29 0 -29 -37h-44q5 100 78 100q25 0 59.5 -16t48.5 -16q32 0 32 38zM476 650l13 -64q-47 -10 -83 -25v-561h-65v169h-229q-17 -78 -17 -169h-65q0 247 113 420q121 189 333 230zM128 234h213v294
q-86 -52 -144 -143q-43 -67 -69 -151z" />
    <glyph glyph-name="AE.ss01" horiz-adv-x="690" 
d="M643 585h-169q-53 0 -89 -9v-218h181v-65h-181v-228h258v-65h-323v169h-233q-15 -90 -15 -169h-65q0 257 110 440q127 210 343 210h183v-65zM101 234h219v318q-150 -75 -219 -318z" />
    <glyph glyph-name="L.ss01" horiz-adv-x="334" 
d="M70 315q-38 -225 61 -338q65 -78 193 -78v65q-97 0 -145 57q-77 88 -45 282q19 115 65 335l-64 12q-52 -247 -65 -335z" />
    <glyph glyph-name="Lacute.ss01" horiz-adv-x="334" 
d="M87 697l-27 54l188 95l27 -55zM70 315q-38 -225 61 -338q65 -78 193 -78v65q-97 0 -145 57q-77 88 -45 282q19 115 65 335l-64 12q-52 -247 -65 -335z" />
    <glyph glyph-name="Lcaron.ss01" horiz-adv-x="334" 
d="M224 510l42 153l63 -19l-59 -148zM70 315q-38 -225 61 -338q65 -78 193 -78v65q-97 0 -145 57q-77 88 -45 282q19 115 65 335l-64 12q-52 -247 -65 -335z" />
    <glyph glyph-name="uni013B.ss01" horiz-adv-x="334" 
d="M70 315q-38 -225 61 -338q65 -78 193 -78v65q-97 0 -145 57q-77 88 -45 282q19 115 65 335l-64 12q-52 -247 -65 -335zM241 -129q17 0 30 -12.5t13 -29.5q0 -12 -6 -26l-32 -81l-29 9l17 55q-16 2 -26.5 14t-10.5 29t13.5 29.5t30.5 12.5z" />
    <glyph glyph-name="Lslash.ss01" horiz-adv-x="377" 
d="M202 21q48 -57 145 -57v-65q-129 0 -193 78q-86 98 -68 282l-40 -18v63l49 22q14 94 63 324l64 -12q-42 -208 -55 -279l121 56v-63l-133 -61q-28 -184 47 -270z" />
    <glyph glyph-name="M.ss01" horiz-adv-x="830" 
d="M415 84l275 566h63v-650h-65v496l-243 -496h-61l-242 496v-496h-65v650h63z" />
    <glyph glyph-name="N.ss01" horiz-adv-x="549" 
d="M407 137v513h65v-650h-68l-262 513v-513h-65v650h68z" />
    <glyph glyph-name="Nacute.ss01" horiz-adv-x="549" 
d="M345 846l27 -55l-188 -94l-27 54zM407 137v513h65v-650h-68l-262 513v-513h-65v650h68z" />
    <glyph glyph-name="Ncaron.ss01" horiz-adv-x="549" 
d="M414 826l-152 -135h-2l-152 135h86l67 -56l67 56h86zM407 137v513h65v-650h-68l-262 513v-513h-65v650h68z" />
    <glyph glyph-name="uni0145.ss01" horiz-adv-x="549" 
d="M407 137v513h65v-650h-68l-262 513v-513h-65v650h68zM276 -43q17 0 30 -12.5t13 -29.5q0 -12 -6 -26l-32 -81l-29 9l17 55q-16 2 -26.5 14t-10.5 29t13.5 29.5t30.5 12.5z" />
    <glyph glyph-name="Eng.ss01" horiz-adv-x="598" 
d="M420 137v513h65v-650q0 -47 -34.5 -82t-81.5 -39h-9l-2 63q24 0 39.5 17.5t15.5 48.5l-258 505v-513h-65v650h68z" />
    <glyph glyph-name="Ntilde.ss01" horiz-adv-x="549" 
d="M203 733q-29 0 -29 -37h-44q5 100 78 100q25 0 59.5 -16t48.5 -16q32 0 32 38h44q-8 -100 -75 -100q-26 0 -62 15.5t-52 15.5zM407 137v513h65v-650h-68l-262 513v-513h-65v650h68z" />
    <glyph glyph-name="Q.ss01" horiz-adv-x="632" 
d="M133 106q0 -17 12.5 -29t37.5 -12h388v-65h-391q-51 0 -82 31.5t-31 74.5q0 40 26.5 69t64.5 33q-91 76 -91 194q0 104 74.5 178.5t179.5 74.5t179 -74.5t74 -178.5t-73.5 -179t-176.5 -75h-149q-18 0 -30 -12t-12 -30zM133 402q0 -79 54.5 -134t133.5 -55q78 0 132.5 55
t54.5 134q0 78 -54.5 132.5t-132.5 54.5q-79 0 -133.5 -54.5t-54.5 -132.5z" />
    <glyph glyph-name="R.ss01" horiz-adv-x="521" 
d="M276 327q81 -179 230 -288l-40 -54q-170 124 -249 313q-75 -47 -75 -132v-166h-65v650h173q73 0 120.5 -43t47.5 -111q0 -48 -34 -94t-108 -75zM142 585v-265q30 30 122 72q89 41 89 104q0 42 -28.5 65.5t-74.5 23.5h-108z" />
    <glyph glyph-name="Racute.ss01" horiz-adv-x="521" 
d="M334 846l27 -55l-188 -94l-27 54zM276 327q81 -179 230 -288l-40 -54q-170 124 -249 313q-75 -47 -75 -132v-166h-65v650h173q73 0 120.5 -43t47.5 -111q0 -48 -34 -94t-108 -75zM142 585v-265q30 30 122 72q89 41 89 104q0 42 -28.5 65.5t-74.5 23.5h-108z" />
    <glyph glyph-name="Rcaron.ss01" horiz-adv-x="521" 
d="M403 826l-152 -135h-2l-152 135h86l67 -56l67 56h86zM276 327q81 -179 230 -288l-40 -54q-170 124 -249 313q-75 -47 -75 -132v-166h-65v650h173q73 0 120.5 -43t47.5 -111q0 -48 -34 -94t-108 -75zM142 585v-265q30 30 122 72q89 41 89 104q0 42 -28.5 65.5t-74.5 23.5
h-108z" />
    <glyph glyph-name="uni0156.ss01" horiz-adv-x="521" 
d="M276 327q81 -179 230 -288l-40 -54q-170 124 -249 313q-75 -47 -75 -132v-166h-65v650h173q73 0 120.5 -43t47.5 -111q0 -48 -34 -94t-108 -75zM142 585v-265q30 30 122 72q89 41 89 104q0 42 -28.5 65.5t-74.5 23.5h-108zM303 -43q17 0 30 -12.5t13 -29.5q0 -12 -6 -26
l-32 -81l-29 9l17 55q-16 2 -26.5 14t-10.5 29t13.5 29.5t30.5 12.5z" />
    <glyph glyph-name="T.ss01" horiz-adv-x="645" 
d="M544 259h66q0 -113 -81 -193.5t-194 -80.5q-114 0 -194.5 82t-80.5 203q0 95 60 170.5t176 144.5h-234v65h548v-65h-183q-147 -70 -223.5 -146.5t-76.5 -168.5q0 -94 60 -156t148 -62t148 59.5t61 147.5z" />
    <glyph glyph-name="Tbar.ss01" horiz-adv-x="735" 
d="M680 585h-183q-225 -108 -280 -226h159v-65h-178q-1 -8 -1 -24q0 -94 60 -156t148 -62t148 59.5t61 147.5h66q0 -113 -81 -193.5t-194 -80.5q-114 0 -194.5 82t-80.5 203q0 16 1 24h-81v65h95q42 120 221 226h-234v65h548v-65z" />
    <glyph glyph-name="Tcaron.ss01" horiz-adv-x="645" 
d="M512 826l-152 -135h-2l-152 135h86l67 -56l67 56h86zM610 585h-183q-147 -70 -223.5 -146.5t-76.5 -168.5q0 -94 60 -156t148 -62t148 59.5t61 147.5h66q0 -113 -81 -193.5t-194 -80.5q-114 0 -194.5 82t-80.5 203q0 95 60 170.5t176 144.5h-234v65h548v-65z" />
    <glyph glyph-name="uni0162.ss01" horiz-adv-x="645" 
d="M610 585h-183q-147 -70 -223.5 -146.5t-76.5 -168.5q0 -94 60 -156t148 -62t148 59.5t61 147.5h66q0 -108 -73.5 -186.5t-179.5 -86.5l-32 -31q24 -8 38.5 -28.5t14.5 -45.5q0 -32 -22 -55t-54 -23q-28 0 -49 17.5t-27 43.5h46q10 -18 30 -18q14 0 24 10.5t10 24.5
t-10 24.5t-25 10.5q-17 0 -27 -13h-48q5 18 23 36l47 49q-101 14 -168.5 93t-67.5 189q0 95 60 170.5t176 144.5h-234v65h548v-65z" />
    <glyph glyph-name="uni021A.ss01" horiz-adv-x="645" 
d="M544 259h66q0 -113 -81 -193.5t-194 -80.5q-114 0 -194.5 82t-80.5 203q0 95 60 170.5t176 144.5h-234v65h548v-65h-183q-147 -70 -223.5 -146.5t-76.5 -168.5q0 -94 60 -156t148 -62t148 59.5t61 147.5zM340 -43q17 0 30 -12.5t13 -29.5q0 -12 -6 -26l-32 -81l-29 9
l17 55q-16 2 -26.5 14t-10.5 29t13.5 29.5t30.5 12.5z" />
    <glyph glyph-name="W.ss01" horiz-adv-x="915" 
d="M491 650l164 -539l163 539h67l-197 -650h-67l-163 539l-164 -539h-67l-197 650h67l164 -539l163 539h67z" />
    <glyph glyph-name="Wacute.ss01" horiz-adv-x="915" 
d="M386 697l-27 54l188 95l27 -55zM491 650l164 -539l163 539h67l-197 -650h-67l-163 539l-164 -539h-67l-197 650h67l164 -539l163 539h67z" />
    <glyph glyph-name="Wcircumflex.ss01" horiz-adv-x="915" 
d="M462 842h2l152 -140h-86l-67 57l-67 -57h-86zM491 650l164 -539l163 539h67l-197 -650h-67l-163 539l-164 -539h-67l-197 650h67l164 -539l163 539h67z" />
    <glyph glyph-name="Wdieresis.ss01" horiz-adv-x="915" 
d="M394 716q-17 0 -29.5 12.5t-12.5 29.5t12.5 29t29.5 12t29.5 -12t12.5 -29t-12.5 -29.5t-29.5 -12.5zM533 716q-17 0 -29 12.5t-12 29.5t12 29t29 12t29.5 -12t12.5 -29t-12.5 -29.5t-29.5 -12.5zM491 650l164 -539l163 539h67l-197 -650h-67l-163 539l-164 -539h-67
l-197 650h67l164 -539l163 539h67z" />
    <glyph glyph-name="Wgrave.ss01" horiz-adv-x="915" 
d="M387 846l188 -95l-27 -54l-188 94zM491 650l164 -539l163 539h67l-197 -650h-67l-163 539l-164 -539h-67l-197 650h67l164 -539l163 539h67z" />
    <glyph glyph-name="Y.ss01" horiz-adv-x="539" 
d="M449 650h65q1 -106 -57 -192.5t-155 -101.5v-356h-65v356q-66 11 -115.5 56.5t-73 107t-23.5 130.5h65q0 -97 53.5 -166.5t125.5 -69.5q73 0 126.5 69.5t53.5 166.5z" />
    <glyph glyph-name="Yacute.ss01" horiz-adv-x="539" 
d="M352 846l27 -55l-188 -94l-27 54zM449 650h65q1 -106 -57 -192.5t-155 -101.5v-356h-65v356q-66 11 -115.5 56.5t-73 107t-23.5 130.5h65q0 -97 53.5 -166.5t125.5 -69.5q73 0 126.5 69.5t53.5 166.5z" />
    <glyph glyph-name="Ycircumflex.ss01" horiz-adv-x="539" 
d="M335 702l-67 57l-67 -57h-86l152 140h2l152 -140h-86zM449 650h65q1 -106 -57 -192.5t-155 -101.5v-356h-65v356q-66 11 -115.5 56.5t-73 107t-23.5 130.5h65q0 -97 53.5 -166.5t125.5 -69.5q73 0 126.5 69.5t53.5 166.5z" />
    <glyph glyph-name="Ydieresis.ss01" horiz-adv-x="539" 
d="M199 716q-17 0 -29.5 12.5t-12.5 29.5t12.5 29t29.5 12t29.5 -12t12.5 -29t-12.5 -29.5t-29.5 -12.5zM338 716q-17 0 -29 12.5t-12 29.5t12 29t29 12t29.5 -12t12.5 -29t-12.5 -29.5t-29.5 -12.5zM449 650h65q1 -106 -57 -192.5t-155 -101.5v-356h-65v356
q-66 11 -115.5 56.5t-73 107t-23.5 130.5h65q0 -97 53.5 -166.5t125.5 -69.5q73 0 126.5 69.5t53.5 166.5z" />
    <glyph glyph-name="Ygrave.ss01" horiz-adv-x="539" 
d="M192 846l188 -95l-27 -54l-188 94zM449 650h65q1 -106 -57 -192.5t-155 -101.5v-356h-65v356q-66 11 -115.5 56.5t-73 107t-23.5 130.5h65q0 -97 53.5 -166.5t125.5 -69.5q73 0 126.5 69.5t53.5 166.5z" />
    <glyph glyph-name="A.ss02" 
d="M466 0h-65q0 91 -17 169h-229v-169h-65v561q-36 15 -83 25l13 64q212 -41 333 -230q113 -173 113 -420zM155 528v-294h213q-26 84 -69 151q-58 91 -144 143z" />
    <glyph glyph-name="Aacute.ss02" 
d="M239 846l27 -55l-188 -94l-27 54zM466 0h-65q0 91 -17 169h-229v-169h-65v561q-36 15 -83 25l13 64q212 -41 333 -230q113 -173 113 -420zM155 528v-294h213q-26 84 -69 151q-58 91 -144 143z" />
    <glyph glyph-name="Abreve.ss02" 
d="M155 686q-39 0 -67 26t-31 64h55q3 -15 15 -25t28 -10t28 10t15 25h55q-3 -38 -31.5 -64t-66.5 -26zM466 0h-65q0 91 -17 169h-229v-169h-65v561q-36 15 -83 25l13 64q212 -41 333 -230q113 -173 113 -420zM155 528v-294h213q-26 84 -69 151q-58 91 -144 143z" />
    <glyph glyph-name="Acircumflex.ss02" 
d="M222 702l-67 57l-67 -57h-86l152 140h2l152 -140h-86zM466 0h-65q0 91 -17 169h-229v-169h-65v561q-36 15 -83 25l13 64q212 -41 333 -230q113 -173 113 -420zM155 528v-294h213q-26 84 -69 151q-58 91 -144 143z" />
    <glyph glyph-name="Adieresis.ss02" 
d="M86 716q-17 0 -29.5 12.5t-12.5 29.5t12.5 29t29.5 12t29.5 -12t12.5 -29t-12.5 -29.5t-29.5 -12.5zM225 716q-17 0 -29 12.5t-12 29.5t12 29t29 12t29.5 -12t12.5 -29t-12.5 -29.5t-29.5 -12.5zM466 0h-65q0 91 -17 169h-229v-169h-65v561q-36 15 -83 25l13 64
q212 -41 333 -230q113 -173 113 -420zM155 528v-294h213q-26 84 -69 151q-58 91 -144 143z" />
    <glyph glyph-name="Agrave.ss02" 
d="M79 846l188 -95l-27 -54l-188 94zM466 0h-65q0 91 -17 169h-229v-169h-65v561q-36 15 -83 25l13 64q212 -41 333 -230q113 -173 113 -420zM155 528v-294h213q-26 84 -69 151q-58 91 -144 143z" />
    <glyph glyph-name="Amacron.ss02" 
d="M63 767h184v-63h-184v63zM466 0h-65q0 91 -17 169h-229v-169h-65v561q-36 15 -83 25l13 64q212 -41 333 -230q113 -173 113 -420zM155 528v-294h213q-26 84 -69 151q-58 91 -144 143z" />
    <glyph glyph-name="Aogonek.ss02" 
d="M396 -70q0 -27 27.5 -43.5t61.5 -16.5l-12 -58h-22q-52 0 -88.5 28.5t-37.5 66.5q0 34 22.5 58t55.5 35h-2q0 91 -17 169h-229v-169h-65v561q-36 15 -83 25l13 64q212 -41 333 -230q113 -173 113 -420q-70 -18 -70 -70zM155 528v-294h213q-26 84 -69 151q-58 91 -144 143
z" />
    <glyph glyph-name="Aring.ss02" 
d="M168 643q-35 0 -60.5 25t-25.5 60t25.5 61t60.5 26t61 -26t26 -61t-26 -60t-61 -25zM168 774q-18 0 -31.5 -13.5t-13.5 -32.5q0 -20 13 -32t32 -12q20 0 33 12t13 32q0 19 -13.5 32.5t-32.5 13.5zM489 0h-65q0 91 -17 169h-229v-169h-65v561q-36 15 -83 25l13 64
q212 -41 333 -230q113 -173 113 -420zM178 528v-294h213q-26 84 -69 151q-58 91 -144 143z" />
    <glyph glyph-name="Atilde.ss02" 
d="M97 733q-29 0 -29 -37h-44q5 100 78 100q25 0 59.5 -16t48.5 -16q32 0 32 38h44q-8 -100 -75 -100q-26 0 -62 15.5t-52 15.5zM466 0h-65q0 91 -17 169h-229v-169h-65v561q-36 15 -83 25l13 64q212 -41 333 -230q113 -173 113 -420zM155 528v-294h213q-26 84 -69 151
q-58 91 -144 143z" />
    <glyph glyph-name="M.ss02" horiz-adv-x="831" 
d="M399 226l291 424h64v-650h-65l1 536l-243 -354q76 -63 177 -126l-33 -56q-325 193 -449 477v-477h-65v650h65q76 -250 257 -424z" />
    <glyph glyph-name="N.ss02" horiz-adv-x="596" 
d="M454 522v128h65v-650h-65v446q-121 71 -265 109v-555h-65v570q-42 9 -84 15l10 65q220 -32 404 -128z" />
    <glyph glyph-name="Nacute.ss02" horiz-adv-x="596" 
d="M396 846l27 -55l-188 -94l-27 54zM454 522v128h65v-650h-65v446q-121 71 -265 109v-555h-65v570q-42 9 -84 15l10 65q220 -32 404 -128z" />
    <glyph glyph-name="Ncaron.ss02" horiz-adv-x="596" 
d="M465 826l-152 -135h-2l-152 135h86l67 -56l67 56h86zM454 522v128h65v-650h-65v446q-121 71 -265 109v-555h-65v570q-42 9 -84 15l10 65q220 -32 404 -128z" />
    <glyph glyph-name="uni0145.ss02" horiz-adv-x="596" 
d="M454 522v128h65v-650h-65v446q-121 71 -265 109v-555h-65v570q-42 9 -84 15l10 65q220 -32 404 -128zM317 -43q17 0 30 -12.5t13 -29.5q0 -12 -6 -26l-32 -81l-29 9l17 55q-16 2 -26.5 14t-10.5 29t13.5 29.5t30.5 12.5z" />
    <glyph glyph-name="Eng.ss02" horiz-adv-x="596" 
d="M454 522v128h65v-652q0 -55 -33 -88t-74 -33h-15v63q57 0 57 58v448q-116 68 -264 109l-1 -555h-65l1 570q-43 9 -85 15l10 65q220 -32 404 -128z" />
    <glyph glyph-name="Ntilde.ss02" horiz-adv-x="596" 
d="M254 733q-29 0 -29 -37h-44q5 100 78 100q25 0 59.5 -16t48.5 -16q32 0 32 38h44q-8 -100 -75 -100q-26 0 -62 15.5t-52 15.5zM454 522v128h65v-650h-65v446q-121 71 -265 109v-555h-65v570q-42 9 -84 15l10 65q220 -32 404 -128z" />
    <glyph glyph-name="W.ss02" horiz-adv-x="896" 
d="M637 114l162 536h67l-197 -650h-67q-38 169 -144 336l-164 -336h-67l-197 650h67l170 -560l150 307q-85 119 -186 199l36 54q257 -205 370 -536z" />
    <glyph glyph-name="Wacute.ss02" horiz-adv-x="896" 
d="M547 846l27 -55l-188 -94l-27 54zM637 114l162 536h67l-197 -650h-67q-38 169 -144 336l-164 -336h-67l-197 650h67l170 -560l150 307q-85 119 -186 199l36 54q257 -205 370 -536z" />
    <glyph glyph-name="Wcircumflex.ss02" horiz-adv-x="896" 
d="M530 702l-67 57l-67 -57h-86l152 140h2l152 -140h-86zM637 114l162 536h67l-197 -650h-67q-38 169 -144 336l-164 -336h-67l-197 650h67l170 -560l150 307q-85 119 -186 199l36 54q257 -205 370 -536z" />
    <glyph glyph-name="Wdieresis.ss02" horiz-adv-x="896" 
d="M394 716q-17 0 -29.5 12.5t-12.5 29.5t12.5 29t29.5 12t29.5 -12t12.5 -29t-12.5 -29.5t-29.5 -12.5zM533 716q-17 0 -29 12.5t-12 29.5t12 29t29 12t29.5 -12t12.5 -29t-12.5 -29.5t-29.5 -12.5zM637 114l162 536h67l-197 -650h-67q-38 169 -144 336l-164 -336h-67
l-197 650h67l170 -560l150 307q-85 119 -186 199l36 54q257 -205 370 -536z" />
    <glyph glyph-name="Wgrave.ss02" horiz-adv-x="896" 
d="M387 846l188 -95l-27 -54l-188 94zM637 114l162 536h67l-197 -650h-67q-38 169 -144 336l-164 -336h-67l-197 650h67l170 -560l150 307q-85 119 -186 199l36 54q257 -205 370 -536z" />
    <glyph glyph-name="Y.ss02" horiz-adv-x="494" 
d="M409 650h65q0 -247 -113 -420q-121 -189 -333 -230l-13 64q117 23 204 99q-30 35 -50 67q-113 173 -113 420h65q-2 -227 102 -385q21 -32 42 -56q21 24 42 56q104 158 102 385z" />
    <glyph glyph-name="Yacute.ss02" horiz-adv-x="494" 
d="M362 846l27 -55l-188 -94l-27 54zM409 650h65q0 -247 -113 -420q-121 -189 -333 -230l-13 64q117 23 204 99q-30 35 -50 67q-113 173 -113 420h65q-2 -227 102 -385q21 -32 42 -56q21 24 42 56q104 158 102 385z" />
    <glyph glyph-name="Ycircumflex.ss02" horiz-adv-x="494" 
d="M345 702l-67 57l-67 -57h-86l152 140h2l152 -140h-86zM409 650h65q0 -247 -113 -420q-121 -189 -333 -230l-13 64q117 23 204 99q-30 35 -50 67q-113 173 -113 420h65q-2 -227 102 -385q21 -32 42 -56q21 24 42 56q104 158 102 385z" />
    <glyph glyph-name="Ydieresis.ss02" horiz-adv-x="494" 
d="M209 716q-17 0 -29.5 12.5t-12.5 29.5t12.5 29t29.5 12t29.5 -12t12.5 -29t-12.5 -29.5t-29.5 -12.5zM348 716q-17 0 -29 12.5t-12 29.5t12 29t29 12t29.5 -12t12.5 -29t-12.5 -29.5t-29.5 -12.5zM409 650h65q0 -247 -113 -420q-121 -189 -333 -230l-13 64q117 23 204 99
q-30 35 -50 67q-113 173 -113 420h65q-2 -227 102 -385q21 -32 42 -56q21 24 42 56q104 158 102 385z" />
    <glyph glyph-name="Ygrave.ss02" horiz-adv-x="494" 
d="M202 846l188 -95l-27 -54l-188 94zM409 650h65q0 -247 -113 -420q-121 -189 -333 -230l-13 64q117 23 204 99q-30 35 -50 67q-113 173 -113 420h65q-2 -227 102 -385q21 -32 42 -56q21 24 42 56q104 158 102 385z" />
    <glyph glyph-name="M.ss03" horiz-adv-x="828" 
d="M414 215l272 435h65v-650h-65v528l-239 -381v-147h-65v147l-240 381v-528h-65v650h65z" />
    <glyph glyph-name="i.loclTRK" horiz-adv-x="214" 
d="M102 481q-18 0 -30.5 13t-12.5 31q0 19 12.5 31.5t30.5 12.5t31 -12.5t13 -31.5q0 -18 -13 -31t-31 -13zM149 415v-415h-63v352h-40v63h103z" />
    <glyph glyph-name="i.latn_TRK" horiz-adv-x="214" 
d="M102 481q-18 0 -30.5 13t-12.5 31q0 19 12.5 31.5t30.5 12.5t31 -12.5t13 -31.5q0 -18 -13 -31t-31 -13zM149 415v-415h-63v352h-40v63h103z" />
    <glyph glyph-name="a.ss01" horiz-adv-x="459" 
d="M408 290v-290h-177q-88 0 -142 44.5t-54 117.5q0 84 76 130q3 60 48 96.5t105 36.5q64 0 104 -38.5t40 -96.5zM263 360q-30 0 -51.5 -13.5t-30.5 -32.5q94 10 164 -44v16q0 33 -23.5 53.5t-58.5 20.5zM231 63h114v69q0 55 -41 87.5t-99 32.5q-43 0 -74 -25t-31 -65
t32.5 -69.5t98.5 -29.5z" />
    <glyph glyph-name="aacute.ss01" horiz-adv-x="459" 
d="M182 462l-27 54l188 95l27 -55zM408 290v-290h-177q-88 0 -142 44.5t-54 117.5q0 84 76 130q3 60 48 96.5t105 36.5q64 0 104 -38.5t40 -96.5zM263 360q-30 0 -51.5 -13.5t-30.5 -32.5q94 10 164 -44v16q0 33 -23.5 53.5t-58.5 20.5zM231 63h114v69q0 55 -41 87.5
t-99 32.5q-43 0 -74 -25t-31 -65t32.5 -69.5t98.5 -29.5z" />
    <glyph glyph-name="abreve.ss01" horiz-adv-x="459" 
d="M259 451q-39 0 -67 26t-31 64h55q3 -15 15 -25t28 -10t28 10t15 25h55q-3 -38 -31.5 -64t-66.5 -26zM408 290v-290h-177q-88 0 -142 44.5t-54 117.5q0 84 76 130q3 60 48 96.5t105 36.5q64 0 104 -38.5t40 -96.5zM263 360q-30 0 -51.5 -13.5t-30.5 -32.5q94 10 164 -44
v16q0 33 -23.5 53.5t-58.5 20.5zM231 63h114v69q0 55 -41 87.5t-99 32.5q-43 0 -74 -25t-31 -65t32.5 -69.5t98.5 -29.5z" />
    <glyph glyph-name="acircumflex.ss01" horiz-adv-x="459" 
d="M258 607h2l152 -140h-86l-67 57l-67 -57h-86zM408 290v-290h-177q-88 0 -142 44.5t-54 117.5q0 84 76 130q3 60 48 96.5t105 36.5q64 0 104 -38.5t40 -96.5zM263 360q-30 0 -51.5 -13.5t-30.5 -32.5q94 10 164 -44v16q0 33 -23.5 53.5t-58.5 20.5zM231 63h114v69
q0 55 -41 87.5t-99 32.5q-43 0 -74 -25t-31 -65t32.5 -69.5t98.5 -29.5z" />
    <glyph glyph-name="adieresis.ss01" horiz-adv-x="459" 
d="M190 481q-17 0 -29.5 12.5t-12.5 29.5t12.5 29t29.5 12t29.5 -12t12.5 -29t-12.5 -29.5t-29.5 -12.5zM329 481q-17 0 -29 12.5t-12 29.5t12 29t29 12t29.5 -12t12.5 -29t-12.5 -29.5t-29.5 -12.5zM408 290v-290h-177q-88 0 -142 44.5t-54 117.5q0 84 76 130q3 60 48 96.5
t105 36.5q64 0 104 -38.5t40 -96.5zM263 360q-30 0 -51.5 -13.5t-30.5 -32.5q94 10 164 -44v16q0 33 -23.5 53.5t-58.5 20.5zM231 63h114v69q0 55 -41 87.5t-99 32.5q-43 0 -74 -25t-31 -65t32.5 -69.5t98.5 -29.5z" />
    <glyph glyph-name="agrave.ss01" horiz-adv-x="459" 
d="M183 611l188 -95l-27 -54l-188 94zM408 290v-290h-177q-88 0 -142 44.5t-54 117.5q0 84 76 130q3 60 48 96.5t105 36.5q64 0 104 -38.5t40 -96.5zM263 360q-30 0 -51.5 -13.5t-30.5 -32.5q94 10 164 -44v16q0 33 -23.5 53.5t-58.5 20.5zM231 63h114v69q0 55 -41 87.5
t-99 32.5q-43 0 -74 -25t-31 -65t32.5 -69.5t98.5 -29.5z" />
    <glyph glyph-name="amacron.ss01" horiz-adv-x="459" 
d="M351 532v-63h-184v63h184zM408 290v-290h-177q-88 0 -142 44.5t-54 117.5q0 84 76 130q3 60 48 96.5t105 36.5q64 0 104 -38.5t40 -96.5zM263 360q-30 0 -51.5 -13.5t-30.5 -32.5q94 10 164 -44v16q0 33 -23.5 53.5t-58.5 20.5zM231 63h114v69q0 55 -41 87.5t-99 32.5
q-43 0 -74 -25t-31 -65t32.5 -69.5t98.5 -29.5z" />
    <glyph glyph-name="aogonek.ss01" horiz-adv-x="459" 
d="M338 -70q0 -27 27.5 -43.5t61.5 -16.5l-12 -58h-22q-52 0 -88.5 28.5t-37.5 66.5q0 34 22.5 58t55.5 35h-114q-88 0 -142 44.5t-54 117.5q0 84 76 130q3 60 48 96.5t105 36.5q64 0 104 -38.5t40 -96.5v-290q-70 -18 -70 -70zM263 360q-30 0 -51.5 -13.5t-30.5 -32.5
q94 10 164 -44v16q0 33 -23.5 53.5t-58.5 20.5zM231 63h114v69q0 55 -41 87.5t-99 32.5q-43 0 -74 -25t-31 -65t32.5 -69.5t98.5 -29.5z" />
    <glyph glyph-name="aring.ss01" horiz-adv-x="459" 
d="M258 451q-35 0 -60.5 25t-25.5 60t25.5 61t60.5 26t61 -26t26 -61t-26 -60t-61 -25zM258 492q20 0 33 12t13 32q0 19 -13.5 32.5t-32.5 13.5q-18 0 -31.5 -13.5t-13.5 -32.5q0 -20 13 -32t32 -12zM408 290v-290h-177q-88 0 -142 44.5t-54 117.5q0 84 76 130q3 60 48 96.5
t105 36.5q64 0 104 -38.5t40 -96.5zM263 360q-30 0 -51.5 -13.5t-30.5 -32.5q94 10 164 -44v16q0 33 -23.5 53.5t-58.5 20.5zM231 63h114v69q0 55 -41 87.5t-99 32.5q-43 0 -74 -25t-31 -65t32.5 -69.5t98.5 -29.5z" />
    <glyph glyph-name="atilde.ss01" horiz-adv-x="459" 
d="M172 461h-44q5 100 78 100q25 0 59.5 -16t48.5 -16q32 0 32 38h44q-8 -100 -75 -100q-26 0 -62 15.5t-52 15.5q-29 0 -29 -37zM408 290v-290h-177q-88 0 -142 44.5t-54 117.5q0 84 76 130q3 60 48 96.5t105 36.5q64 0 104 -38.5t40 -96.5zM263 360q-30 0 -51.5 -13.5
t-30.5 -32.5q94 10 164 -44v16q0 33 -23.5 53.5t-58.5 20.5zM231 63h114v69q0 55 -41 87.5t-99 32.5q-43 0 -74 -25t-31 -65t32.5 -69.5t98.5 -29.5z" />
    <glyph glyph-name="ae.ss01" horiz-adv-x="788" 
d="M551 63q82 0 124 71h65q-23 -60 -73.5 -98t-115.5 -38q-86 0 -143 59v-57h-177q-88 0 -142 44.5t-54 117.5q0 84 76 130q3 60 48 96.5t105 36.5q45 0 79 -19.5t51 -53.5q58 81 154 81q90 0 147.5 -67t57.5 -162h-343q2 -65 43 -103t98 -38zM551 368q-46 0 -81 -29.5
t-49 -77.5h260q-14 47 -49 77t-81 30zM345 270v16q0 33 -23.5 53.5t-58.5 20.5q-30 0 -51.5 -13.5t-30.5 -32.5q94 10 164 -44zM231 63h114v69q0 55 -41 87.5t-99 32.5q-43 0 -74 -25t-31 -65t32.5 -69.5t98.5 -29.5z" />
    <glyph glyph-name="b.ss01" horiz-adv-x="516" 
d="M276 425q90 0 147.5 -63.5t57.5 -153.5q0 -87 -61.5 -147.5t-146.5 -60.5h-203v650h63v-278q55 53 143 53zM133 63h140q60 0 102.5 41.5t42.5 103.5q0 65 -42 109.5t-111 44.5q-54 0 -93 -38t-39 -96v-165z" />
    <glyph glyph-name="d.ss01" horiz-adv-x="514" 
d="M381 372v278h63v-650h-203q-85 0 -145.5 60.5t-60.5 147.5q0 89 61 153t149 64q81 0 136 -53zM241 63h140v176q0 50 -41.5 86.5t-96.5 36.5q-61 0 -103 -45t-42 -109q0 -62 42 -103.5t101 -41.5z" />
    <glyph glyph-name="dcaron.ss01" horiz-adv-x="514" 
d="M465 510l42 153l63 -19l-59 -148zM381 372v278h63v-650h-203q-85 0 -145.5 60.5t-60.5 147.5q0 89 61 153t149 64q81 0 136 -53zM241 63h140v176q0 50 -41.5 86.5t-96.5 36.5q-61 0 -103 -45t-42 -109q0 -62 42 -103.5t101 -41.5z" />
    <glyph glyph-name="dcroat.ss01" horiz-adv-x="503" 
d="M444 576h58v-55h-58v-521h-203q-85 0 -145.5 60.5t-60.5 147.5q0 89 61 153t149 64q81 0 136 -53v149h-109v55h109v74h63v-74zM241 63h140v176q0 50 -41.5 86.5t-96.5 36.5q-61 0 -103 -45t-42 -109q0 -62 42 -103.5t101 -41.5z" />
    <glyph glyph-name="g.ss01" horiz-adv-x="513" 
d="M241 -15q-86 0 -146 63.5t-60 153.5q0 91 59.5 152t143.5 61h238v-63h-88q58 -60 58 -150t-60 -153.5t-145 -63.5zM241 352q-59 0 -100.5 -41.5t-41.5 -108.5q0 -63 41 -108t101 -45q59 0 100 45t41 108q0 60 -42 105t-99 45zM437 50l56 -27q-61 -129 -183.5 -196.5
t-266.5 -53.5l8 61q119 -13 227 46.5t159 169.5z" />
    <glyph glyph-name="gbreve.ss01" horiz-adv-x="513" 
d="M250 451q-39 0 -67 26t-31 64h55q3 -15 15 -25t28 -10t28 10t15 25h55q-3 -38 -31.5 -64t-66.5 -26zM241 -15q-86 0 -146 63.5t-60 153.5q0 91 59.5 152t143.5 61h238v-63h-88q58 -60 58 -150t-60 -153.5t-145 -63.5zM241 352q-59 0 -100.5 -41.5t-41.5 -108.5
q0 -63 41 -108t101 -45q59 0 100 45t41 108q0 60 -42 105t-99 45zM437 50l56 -27q-61 -129 -183.5 -196.5t-266.5 -53.5l8 61q119 -13 227 46.5t159 169.5z" />
    <glyph glyph-name="uni0123.ss01" horiz-adv-x="513" 
d="M250 450q-17 0 -30 12.5t-13 29.5q0 12 6 26l32 81l29 -9l-17 -55q16 -2 26.5 -14t10.5 -29t-13.5 -29.5t-30.5 -12.5zM241 -15q-86 0 -146 63.5t-60 153.5q0 91 59.5 152t143.5 61h238v-63h-88q58 -60 58 -150t-60 -153.5t-145 -63.5zM241 352q-59 0 -100.5 -41.5
t-41.5 -108.5q0 -63 41 -108t101 -45q59 0 100 45t41 108q0 60 -42 105t-99 45zM437 50l56 -27q-61 -129 -183.5 -196.5t-266.5 -53.5l8 61q119 -13 227 46.5t159 169.5z" />
    <glyph glyph-name="gdotaccent.ss01" horiz-adv-x="513" 
d="M249 481q-18 0 -30.5 13t-12.5 31q0 19 12.5 31.5t30.5 12.5t31 -12.5t13 -31.5q0 -18 -13 -31t-31 -13zM241 -15q-86 0 -146 63.5t-60 153.5q0 91 59.5 152t143.5 61h238v-63h-88q58 -60 58 -150t-60 -153.5t-145 -63.5zM241 352q-59 0 -100.5 -41.5t-41.5 -108.5
q0 -63 41 -108t101 -45q59 0 100 45t41 108q0 60 -42 105t-99 45zM437 50l56 -27q-61 -129 -183.5 -196.5t-266.5 -53.5l8 61q119 -13 227 46.5t159 169.5z" />
    <glyph glyph-name="k.ss01" horiz-adv-x="467" 
d="M412 415l-178 -187q101 -99 228 -175l-34 -56q-172 103 -295 242l1 -239h-64v650h62l1 -310q38 -46 57 -67l135 142h87z" />
    <glyph glyph-name="uni0137.ss01" horiz-adv-x="467" 
d="M412 415l-178 -187q101 -99 228 -175l-34 -56q-172 103 -295 242l1 -239h-64v650h62l1 -310q38 -46 57 -67l135 142h87zM271 -43q17 0 30 -12.5t13 -29.5q0 -12 -6 -26l-32 -81l-29 9l17 55q-16 2 -26.5 14t-10.5 29t13.5 29.5t30.5 12.5z" />
    <glyph glyph-name="m.ss01" horiz-adv-x="690" 
d="M590 260l90 -236l-57 -24l-98 244q-23 58 -55.5 82t-82.5 24h-92q23 -28 50 -90l90 -236l-57 -24l-98 244q-23 58 -55.5 82t-82.5 24h-16v-350h-61v415h77q87 0 145 -56q5 -5 7 -8v64h93q89 0 145 -56q33 -33 58 -99z" />
    <glyph glyph-name="n.ss01" horiz-adv-x="460" 
d="M355 266l95 -241l-60 -24l-95 241q-42 108 -137 108h-30v-350h-63v415h93q140 0 197 -149z" />
    <glyph glyph-name="nacute.ss01" horiz-adv-x="460" 
d="M156 462l-27 54l188 95l27 -55zM355 266l95 -241l-60 -24l-95 241q-42 108 -137 108h-30v-350h-63v415h93q140 0 197 -149z" />
    <glyph glyph-name="ncaron.ss01" horiz-adv-x="460" 
d="M386 591l-152 -135h-2l-152 135h86l67 -56l67 56h86zM355 266l95 -241l-60 -24l-95 241q-42 108 -137 108h-30v-350h-63v415h93q140 0 197 -149z" />
    <glyph glyph-name="uni0146.ss01" horiz-adv-x="460" 
d="M355 266l95 -241l-60 -24l-95 241q-42 108 -137 108h-30v-350h-63v415h93q140 0 197 -149zM250 -43q17 0 30 -12.5t13 -29.5q0 -12 -6 -26l-32 -81l-29 9l17 55q-16 2 -26.5 14t-10.5 29t13.5 29.5t30.5 12.5z" />
    <glyph glyph-name="eng.ss01" horiz-adv-x="459" 
d="M355 266l83 -217q29 -77 -10 -124.5t-96 -47.5h-2v63q27 0 46.5 23.5t8.5 50.5l-90 228q-43 108 -137 108h-30v-350h-63v415h93q140 0 197 -149z" />
    <glyph glyph-name="ntilde.ss01" horiz-adv-x="460" 
d="M146 461h-44q5 100 78 100q25 0 59.5 -16t48.5 -16q32 0 32 38h44q-8 -100 -75 -100q-26 0 -62 15.5t-52 15.5q-29 0 -29 -37zM355 266l95 -241l-60 -24l-95 241q-42 108 -137 108h-30v-350h-63v415h93q140 0 197 -149z" />
    <glyph glyph-name="p.ss01" horiz-adv-x="514" 
d="M70 415h203q85 0 145.5 -60.5t60.5 -147.5q0 -89 -61 -153t-149 -64q-81 0 -136 53v-273h-63v645zM271 53q61 0 103 45t42 109q0 62 -42 103.5t-101 41.5h-140v-176q0 -50 41.5 -86.5t96.5 -36.5z" />
    <glyph glyph-name="q.ss01" horiz-adv-x="509" 
d="M241 415h203v-645h-63v273q-55 -53 -136 -53q-88 0 -149 64t-61 153q0 87 60.5 147.5t145.5 60.5zM243 53q55 0 96.5 36.5t41.5 86.5v176h-140q-59 0 -101 -41.5t-42 -103.5q0 -64 42 -109t103 -45z" />
    <glyph glyph-name="r.ss01" horiz-adv-x="210" 
d="M136 415l44 -46q-72 -78 -72 -196v-173h-63v173q0 148 91 242z" />
    <glyph glyph-name="racute.ss01" horiz-adv-x="210" 
d="M64 462l-27 54l188 95l27 -55zM136 415l44 -46q-72 -78 -72 -196v-173h-63v173q0 148 91 242z" />
    <glyph glyph-name="rcaron.ss01" horiz-adv-x="210" 
d="M294 591l-152 -135h-2l-152 135h86l67 -56l67 56h86zM45 0v173q0 148 91 242l44 -46q-72 -78 -72 -196v-173h-63z" />
    <glyph glyph-name="uni0157.ss01" horiz-adv-x="210" 
d="M136 415l44 -46q-72 -78 -72 -196v-173h-63v173q0 148 91 242zM84 -43q17 0 30 -12.5t13 -29.5q0 -12 -6 -26l-32 -81l-29 9l17 55q-16 2 -26.5 14t-10.5 29t13.5 29.5t30.5 12.5z" />
    <glyph glyph-name="t.ss01" horiz-adv-x="309" 
d="M227 63h52v-63h-52q-44 0 -77 32t-33 73v247h-87v63h87v139h63v-139h99v-63h-99v-239q0 -21 12.5 -35.5t34.5 -14.5z" />
    <glyph glyph-name="tbar.ss01" horiz-adv-x="309" 
d="M276 248v-63h-96v-72q0 -21 12.5 -35.5t34.5 -14.5h52v-63h-52q-44 0 -77 32t-33 73v80h-91v63h91v104h-91v63h91v140h63v-140h96v-63h-96v-104h96z" />
    <glyph glyph-name="tcaron.ss01" horiz-adv-x="309" 
d="M207 451l42 153l63 -19l-59 -148zM227 63h52v-63h-52q-44 0 -77 32t-33 73v247h-87v63h87v139h63v-139h99v-63h-99v-239q0 -21 12.5 -35.5t34.5 -14.5z" />
    <glyph glyph-name="uni0163.ss01" horiz-adv-x="309" 
d="M279 415v-63h-99v-239q0 -21 12.5 -35.5t34.5 -14.5h52v-63h-31l-46 -45q24 -8 38.5 -28.5t14.5 -45.5q0 -32 -22 -55t-54 -23q-28 0 -49 17.5t-27 43.5h46q10 -18 30 -18q14 0 24 10.5t10 24.5t-10 24.5t-25 10.5q-17 0 -27 -13h-48q5 18 23 36l59 61v9q-30 12 -49 39
t-19 57v247h-87v63h87v139h63v-139h99z" />
    <glyph glyph-name="uni021B.ss01" horiz-adv-x="309" 
d="M227 63h52v-63h-52q-44 0 -77 32t-33 73v247h-87v63h87v139h63v-139h99v-63h-99v-239q0 -21 12.5 -35.5t34.5 -14.5zM217 -43q17 0 30 -12.5t13 -29.5q0 -12 -6 -26l-32 -81l-29 9l17 55q-16 2 -26.5 14t-10.5 29t13.5 29.5t30.5 12.5z" />
    <glyph glyph-name="a.ss02" horiz-adv-x="513" 
d="M385 367v48h63v-415h-203q-87 0 -148.5 59t-61.5 149q0 88 58.5 152.5t151.5 64.5q79 0 140 -58zM245 63h140v165q0 55 -37 94.5t-95 39.5q-63 0 -108 -45.5t-45 -108.5q0 -62 42.5 -103.5t102.5 -41.5z" />
    <glyph glyph-name="aacute.ss02" horiz-adv-x="513" 
d="M333 611l27 -55l-188 -94l-27 54zM385 367v48h63v-415h-203q-87 0 -148.5 59t-61.5 149q0 88 58.5 152.5t151.5 64.5q79 0 140 -58zM245 63h140v165q0 55 -37 94.5t-95 39.5q-63 0 -108 -45.5t-45 -108.5q0 -62 42.5 -103.5t102.5 -41.5z" />
    <glyph glyph-name="abreve.ss02" horiz-adv-x="513" 
d="M249 451q-39 0 -67 26t-31 64h55q3 -15 15 -25t28 -10t28 10t15 25h55q-3 -38 -31.5 -64t-66.5 -26zM385 367v48h63v-415h-203q-87 0 -148.5 59t-61.5 149q0 88 58.5 152.5t151.5 64.5q79 0 140 -58zM245 63h140v165q0 55 -37 94.5t-95 39.5q-63 0 -108 -45.5t-45 -108.5
q0 -62 42.5 -103.5t102.5 -41.5z" />
    <glyph glyph-name="acircumflex.ss02" horiz-adv-x="513" 
d="M316 467l-67 57l-67 -57h-86l152 140h2l152 -140h-86zM385 367v48h63v-415h-203q-87 0 -148.5 59t-61.5 149q0 88 58.5 152.5t151.5 64.5q79 0 140 -58zM245 63h140v165q0 55 -37 94.5t-95 39.5q-63 0 -108 -45.5t-45 -108.5q0 -62 42.5 -103.5t102.5 -41.5z" />
    <glyph glyph-name="adieresis.ss02" horiz-adv-x="513" 
d="M180 481q-17 0 -29.5 12.5t-12.5 29.5t12.5 29t29.5 12t29.5 -12t12.5 -29t-12.5 -29.5t-29.5 -12.5zM319 481q-17 0 -29 12.5t-12 29.5t12 29t29 12t29.5 -12t12.5 -29t-12.5 -29.5t-29.5 -12.5zM385 367v48h63v-415h-203q-87 0 -148.5 59t-61.5 149q0 88 58.5 152.5
t151.5 64.5q79 0 140 -58zM245 63h140v165q0 55 -37 94.5t-95 39.5q-63 0 -108 -45.5t-45 -108.5q0 -62 42.5 -103.5t102.5 -41.5z" />
    <glyph glyph-name="agrave.ss02" horiz-adv-x="513" 
d="M173 611l188 -95l-27 -54l-188 94zM385 367v48h63v-415h-203q-87 0 -148.5 59t-61.5 149q0 88 58.5 152.5t151.5 64.5q79 0 140 -58zM245 63h140v165q0 55 -37 94.5t-95 39.5q-63 0 -108 -45.5t-45 -108.5q0 -62 42.5 -103.5t102.5 -41.5z" />
    <glyph glyph-name="amacron.ss02" horiz-adv-x="513" 
d="M157 532h184v-63h-184v63zM385 367v48h63v-415h-203q-87 0 -148.5 59t-61.5 149q0 88 58.5 152.5t151.5 64.5q79 0 140 -58zM245 63h140v165q0 55 -37 94.5t-95 39.5q-63 0 -108 -45.5t-45 -108.5q0 -62 42.5 -103.5t102.5 -41.5z" />
    <glyph glyph-name="aogonek.ss02" horiz-adv-x="513" 
d="M378 -70q0 -27 27.5 -43.5t61.5 -16.5l-12 -58h-22q-52 0 -88.5 28.5t-37.5 66.5q0 34 22.5 58t55.5 35h-140q-87 0 -148.5 59t-61.5 149q0 88 58.5 152.5t151.5 64.5q79 0 140 -58v48h63v-415q-70 -18 -70 -70zM245 63h140v165q0 55 -37 94.5t-95 39.5q-63 0 -108 -45.5
t-45 -108.5q0 -62 42.5 -103.5t102.5 -41.5z" />
    <glyph glyph-name="aring.ss02" horiz-adv-x="513" 
d="M248 451q-35 0 -60.5 25t-25.5 60t25.5 61t60.5 26t61 -26t26 -61t-26 -60t-61 -25zM248 582q-18 0 -31.5 -13.5t-13.5 -32.5q0 -20 13 -32t32 -12q20 0 33 12t13 32q0 19 -13.5 32.5t-32.5 13.5zM385 367v48h63v-415h-203q-87 0 -148.5 59t-61.5 149q0 88 58.5 152.5
t151.5 64.5q79 0 140 -58zM245 63h140v165q0 55 -37 94.5t-95 39.5q-63 0 -108 -45.5t-45 -108.5q0 -62 42.5 -103.5t102.5 -41.5z" />
    <glyph glyph-name="atilde.ss02" horiz-adv-x="513" 
d="M191 498q-29 0 -29 -37h-44q5 100 78 100q25 0 59.5 -16t48.5 -16q32 0 32 38h44q-8 -100 -75 -100q-26 0 -62 15.5t-52 15.5zM385 367v48h63v-415h-203q-87 0 -148.5 59t-61.5 149q0 88 58.5 152.5t151.5 64.5q79 0 140 -58zM245 63h140v165q0 55 -37 94.5t-95 39.5
q-63 0 -108 -45.5t-45 -108.5q0 -62 42.5 -103.5t102.5 -41.5z" />
    <glyph glyph-name="ae.ss02" horiz-adv-x="833" 
d="M596 55q82 0 124 71h65q-23 -60 -73.5 -98t-115.5 -38q-89 0 -148 65v-55h-203q-87 0 -148.5 59t-61.5 149q0 88 58.5 152.5t151.5 64.5q79 0 140 -58v48h63v-59q58 69 145 69q90 0 147.5 -67t57.5 -162h-343q2 -65 43 -103t98 -38zM245 63h140v165q0 55 -37 94.5
t-95 39.5q-63 0 -108 -45.5t-45 -108.5q0 -62 42.5 -103.5t102.5 -41.5zM596 360q-46 0 -81 -29.5t-49 -77.5h260q-14 47 -49 77t-81 30z" />
    <glyph glyph-name="a.ss03" horiz-adv-x="417" 
d="M102 352v63h250v-415h-63v34q-37 -44 -94 -44q-70 0 -115 44.5t-45 108.5q0 66 45 113.5t115 47.5q57 0 94 -42v90h-187zM195 52q44 0 69 28.5t25 68.5q0 38 -27.5 65.5t-66.5 27.5q-42 0 -69.5 -27.5t-27.5 -71.5q0 -41 28.5 -66t68.5 -25z" />
    <glyph glyph-name="aacute.ss03" horiz-adv-x="417" 
d="M300 611l27 -55l-188 -94l-27 54zM102 352v63h250v-415h-63v34q-37 -44 -94 -44q-70 0 -115 44.5t-45 108.5q0 66 45 113.5t115 47.5q57 0 94 -42v90h-187zM195 52q44 0 69 28.5t25 68.5q0 38 -27.5 65.5t-66.5 27.5q-42 0 -69.5 -27.5t-27.5 -71.5q0 -41 28.5 -66
t68.5 -25z" />
    <glyph glyph-name="abreve.ss03" horiz-adv-x="417" 
d="M216 451q-39 0 -67 26t-31 64h55q3 -15 15 -25t28 -10t28 10t15 25h55q-3 -38 -31.5 -64t-66.5 -26zM102 352v63h250v-415h-63v34q-37 -44 -94 -44q-70 0 -115 44.5t-45 108.5q0 66 45 113.5t115 47.5q57 0 94 -42v90h-187zM195 52q44 0 69 28.5t25 68.5q0 38 -27.5 65.5
t-66.5 27.5q-42 0 -69.5 -27.5t-27.5 -71.5q0 -41 28.5 -66t68.5 -25z" />
    <glyph glyph-name="acircumflex.ss03" horiz-adv-x="417" 
d="M283 467l-67 57l-67 -57h-86l152 140h2l152 -140h-86zM289 352h-187v63h250v-415h-63v34q-37 -44 -94 -44q-70 0 -115 44.5t-45 108.5q0 66 45 113.5t115 47.5q57 0 94 -42v90zM195 52q44 0 69 28.5t25 68.5q0 38 -27.5 65.5t-66.5 27.5q-42 0 -69.5 -27.5t-27.5 -71.5
q0 -41 28.5 -66t68.5 -25z" />
    <glyph glyph-name="adieresis.ss03" horiz-adv-x="417" 
d="M147 481q-17 0 -29.5 12.5t-12.5 29.5t12.5 29t29.5 12t29.5 -12t12.5 -29t-12.5 -29.5t-29.5 -12.5zM286 481q-17 0 -29 12.5t-12 29.5t12 29t29 12t29.5 -12t12.5 -29t-12.5 -29.5t-29.5 -12.5zM102 352v63h250v-415h-63v34q-37 -44 -94 -44q-70 0 -115 44.5t-45 108.5
q0 66 45 113.5t115 47.5q57 0 94 -42v90h-187zM195 52q44 0 69 28.5t25 68.5q0 38 -27.5 65.5t-66.5 27.5q-42 0 -69.5 -27.5t-27.5 -71.5q0 -41 28.5 -66t68.5 -25z" />
    <glyph glyph-name="agrave.ss03" horiz-adv-x="417" 
d="M140 611l188 -95l-27 -54l-188 94zM102 352v63h250v-415h-63v34q-37 -44 -94 -44q-70 0 -115 44.5t-45 108.5q0 66 45 113.5t115 47.5q57 0 94 -42v90h-187zM195 52q44 0 69 28.5t25 68.5q0 38 -27.5 65.5t-66.5 27.5q-42 0 -69.5 -27.5t-27.5 -71.5q0 -41 28.5 -66
t68.5 -25z" />
    <glyph glyph-name="amacron.ss03" horiz-adv-x="417" 
d="M124 532h184v-63h-184v63zM102 352v63h250v-415h-63v34q-37 -44 -94 -44q-70 0 -115 44.5t-45 108.5q0 66 45 113.5t115 47.5q57 0 94 -42v90h-187zM195 52q44 0 69 28.5t25 68.5q0 38 -27.5 65.5t-66.5 27.5q-42 0 -69.5 -27.5t-27.5 -71.5q0 -41 28.5 -66t68.5 -25z
" />
    <glyph glyph-name="aogonek.ss03" horiz-adv-x="417" 
d="M282 -70q0 -27 27.5 -43.5t61.5 -16.5l-12 -58h-22q-52 0 -88.5 28.5t-37.5 66.5q0 34 22.5 58t55.5 35v34q-37 -44 -94 -44q-70 0 -115 44.5t-45 108.5q0 66 45 113.5t115 47.5q57 0 94 -42v90h-187v63h250v-415q-70 -18 -70 -70zM195 52q44 0 69 28.5t25 68.5
q0 38 -27.5 65.5t-66.5 27.5q-42 0 -69.5 -27.5t-27.5 -71.5q0 -41 28.5 -66t68.5 -25z" />
    <glyph glyph-name="aring.ss03" horiz-adv-x="417" 
d="M215 451q-35 0 -60.5 25t-25.5 60t25.5 61t60.5 26t61 -26t26 -61t-26 -60t-61 -25zM215 582q-18 0 -31.5 -13.5t-13.5 -32.5q0 -20 13 -32t32 -12q20 0 33 12t13 32q0 19 -13.5 32.5t-32.5 13.5zM102 352v63h250v-415h-63v34q-37 -44 -94 -44q-70 0 -115 44.5t-45 108.5
q0 66 45 113.5t115 47.5q57 0 94 -42v90h-187zM195 52q44 0 69 28.5t25 68.5q0 38 -27.5 65.5t-66.5 27.5q-42 0 -69.5 -27.5t-27.5 -71.5q0 -41 28.5 -66t68.5 -25z" />
    <glyph glyph-name="atilde.ss03" horiz-adv-x="417" 
d="M158 498q-29 0 -29 -37h-44q5 100 78 100q25 0 59.5 -16t48.5 -16q32 0 32 38h44q-8 -100 -75 -100q-26 0 -62 15.5t-52 15.5zM102 352v63h250v-415h-63v34q-37 -44 -94 -44q-70 0 -115 44.5t-45 108.5q0 66 45 113.5t115 47.5q57 0 94 -42v90h-187zM195 52q44 0 69 28.5
t25 68.5q0 38 -27.5 65.5t-66.5 27.5q-42 0 -69.5 -27.5t-27.5 -71.5q0 -41 28.5 -66t68.5 -25z" />
    <glyph glyph-name="ae.ss03" horiz-adv-x="736" 
d="M499 55q82 0 124 71h65q-23 -60 -73.5 -98t-115.5 -38q-87 0 -147 63v-53h-63v34q-37 -44 -94 -44q-70 0 -115 44.5t-45 108.5q0 66 45 113.5t115 47.5q57 0 94 -42v90h-187v63h250v-58q58 68 144 68q90 0 147.5 -67t57.5 -162h-343q2 -65 43 -103t98 -38zM499 360
q-46 0 -81 -29.5t-49 -77.5h260q-14 47 -49 77t-81 30zM195 52q44 0 69 28.5t25 68.5q0 38 -27.5 65.5t-66.5 27.5q-42 0 -69.5 -27.5t-27.5 -71.5q0 -41 28.5 -66t68.5 -25z" />
    <glyph glyph-name="a.ss04" horiz-adv-x="520" 
d="M455 415v-415h-63v352h-350v63h413zM195 -10q-66 0 -113 47.5t-47 114.5q0 66 47 113t113 47q67 0 114 -47t47 -113q0 -67 -47 -114.5t-114 -47.5zM195 56q40 0 67.5 28t27.5 68q0 39 -27.5 66.5t-67.5 27.5q-39 0 -66.5 -27.5t-27.5 -66.5q0 -40 27.5 -68t66.5 -28z" />
    <glyph glyph-name="aacute.ss04" horiz-adv-x="520" 
d="M172 462l-27 54l188 95l27 -55zM455 415v-415h-63v352h-350v63h413zM195 -10q-66 0 -113 47.5t-47 114.5q0 66 47 113t113 47q67 0 114 -47t47 -113q0 -67 -47 -114.5t-114 -47.5zM195 56q40 0 67.5 28t27.5 68q0 39 -27.5 66.5t-67.5 27.5q-39 0 -66.5 -27.5
t-27.5 -66.5q0 -40 27.5 -68t66.5 -28z" />
    <glyph glyph-name="abreve.ss04" horiz-adv-x="520" 
d="M249 451q-39 0 -67 26t-31 64h55q3 -15 15 -25t28 -10t28 10t15 25h55q-3 -38 -31.5 -64t-66.5 -26zM455 415v-415h-63v352h-350v63h413zM195 -10q-66 0 -113 47.5t-47 114.5q0 66 47 113t113 47q67 0 114 -47t47 -113q0 -67 -47 -114.5t-114 -47.5zM195 56q40 0 67.5 28
t27.5 68q0 39 -27.5 66.5t-67.5 27.5q-39 0 -66.5 -27.5t-27.5 -66.5q0 -40 27.5 -68t66.5 -28z" />
    <glyph glyph-name="acircumflex.ss04" horiz-adv-x="520" 
d="M248 607h2l152 -140h-86l-67 57l-67 -57h-86zM455 415v-415h-63v352h-350v63h413zM195 -10q-66 0 -113 47.5t-47 114.5q0 66 47 113t113 47q67 0 114 -47t47 -113q0 -67 -47 -114.5t-114 -47.5zM195 56q40 0 67.5 28t27.5 68q0 39 -27.5 66.5t-67.5 27.5
q-39 0 -66.5 -27.5t-27.5 -66.5q0 -40 27.5 -68t66.5 -28z" />
    <glyph glyph-name="adieresis.ss04" horiz-adv-x="520" 
d="M180 481q-17 0 -29.5 12.5t-12.5 29.5t12.5 29t29.5 12t29.5 -12t12.5 -29t-12.5 -29.5t-29.5 -12.5zM319 481q-17 0 -29 12.5t-12 29.5t12 29t29 12t29.5 -12t12.5 -29t-12.5 -29.5t-29.5 -12.5zM455 415v-415h-63v352h-350v63h413zM195 -10q-66 0 -113 47.5t-47 114.5
q0 66 47 113t113 47q67 0 114 -47t47 -113q0 -67 -47 -114.5t-114 -47.5zM195 56q40 0 67.5 28t27.5 68q0 39 -27.5 66.5t-67.5 27.5q-39 0 -66.5 -27.5t-27.5 -66.5q0 -40 27.5 -68t66.5 -28z" />
    <glyph glyph-name="agrave.ss04" horiz-adv-x="520" 
d="M173 611l188 -95l-27 -54l-188 94zM455 415v-415h-63v352h-350v63h413zM195 -10q-66 0 -113 47.5t-47 114.5q0 66 47 113t113 47q67 0 114 -47t47 -113q0 -67 -47 -114.5t-114 -47.5zM195 56q40 0 67.5 28t27.5 68q0 39 -27.5 66.5t-67.5 27.5q-39 0 -66.5 -27.5
t-27.5 -66.5q0 -40 27.5 -68t66.5 -28z" />
    <glyph glyph-name="amacron.ss04" horiz-adv-x="520" 
d="M341 532v-63h-184v63h184zM455 415v-415h-63v352h-350v63h413zM195 -10q-66 0 -113 47.5t-47 114.5q0 66 47 113t113 47q67 0 114 -47t47 -113q0 -67 -47 -114.5t-114 -47.5zM195 56q40 0 67.5 28t27.5 68q0 39 -27.5 66.5t-67.5 27.5q-39 0 -66.5 -27.5t-27.5 -66.5
q0 -40 27.5 -68t66.5 -28z" />
    <glyph glyph-name="aogonek.ss04" horiz-adv-x="520" 
d="M385 -70q0 -27 27.5 -43.5t61.5 -16.5l-12 -58h-22q-52 0 -88.5 28.5t-37.5 66.5q0 34 22.5 58t55.5 35v352h-350v63h413v-415q-70 -18 -70 -70zM195 312q67 0 114 -47t47 -113q0 -67 -47 -114.5t-114 -47.5q-66 0 -113 47.5t-47 114.5q0 66 47 113t113 47zM195 56
q40 0 67.5 28t27.5 68q0 39 -27.5 66.5t-67.5 27.5q-39 0 -66.5 -27.5t-27.5 -66.5q0 -40 27.5 -68t66.5 -28z" />
    <glyph glyph-name="aring.ss04" horiz-adv-x="520" 
d="M248 451q-35 0 -60.5 25t-25.5 60t25.5 61t60.5 26t61 -26t26 -61t-26 -60t-61 -25zM248 492q20 0 33 12t13 32q0 19 -13.5 32.5t-32.5 13.5q-18 0 -31.5 -13.5t-13.5 -32.5q0 -20 13 -32t32 -12zM455 415v-415h-63v352h-350v63h413zM195 -10q-66 0 -113 47.5t-47 114.5
q0 66 47 113t113 47q67 0 114 -47t47 -113q0 -67 -47 -114.5t-114 -47.5zM195 56q40 0 67.5 28t27.5 68q0 39 -27.5 66.5t-67.5 27.5q-39 0 -66.5 -27.5t-27.5 -66.5q0 -40 27.5 -68t66.5 -28z" />
    <glyph glyph-name="atilde.ss04" horiz-adv-x="520" 
d="M162 461h-44q5 100 78 100q25 0 59.5 -16t48.5 -16q32 0 32 38h44q-8 -100 -75 -100q-26 0 -62 15.5t-52 15.5q-29 0 -29 -37zM455 415v-415h-63v352h-350v63h413zM195 -10q-66 0 -113 47.5t-47 114.5q0 66 47 113t113 47q67 0 114 -47t47 -113q0 -67 -47 -114.5
t-114 -47.5zM195 56q40 0 67.5 28t27.5 68q0 39 -27.5 66.5t-67.5 27.5q-39 0 -66.5 -27.5t-27.5 -66.5q0 -40 27.5 -68t66.5 -28z" />
    <glyph glyph-name="ae.ss04" horiz-adv-x="839" 
d="M602 55q82 0 124 71h65q-23 -60 -73.5 -98t-115.5 -38q-87 0 -147 63v-53h-63v352h-350v63h413v-58q58 68 144 68q90 0 147.5 -67t57.5 -162h-343q2 -65 43 -103t98 -38zM602 360q-46 0 -81 -29.5t-49 -77.5h260q-14 47 -49 77t-81 30zM195 312q67 0 114 -47t47 -113
q0 -67 -47 -114.5t-114 -47.5q-66 0 -113 47.5t-47 114.5q0 66 47 113t113 47zM195 56q40 0 67.5 28t27.5 68q0 39 -27.5 66.5t-67.5 27.5q-39 0 -66.5 -27.5t-27.5 -66.5q0 -40 27.5 -68t66.5 -28z" />
    <glyph glyph-name="A_B" horiz-adv-x="1022" 
d="M831 404q63 -22 103 -76t40 -123q0 -83 -60.5 -144t-144.5 -61h-214v585h-72q-39 0 -75 -9v-576h-65v169h-233q-15 -90 -15 -169h-65q0 257 110 440q127 210 343 210h239q66 0 110.5 -38.5t44.5 -103.5q0 -64 -46 -104zM722 585h-102v-228q25 25 114 64q76 34 76 87
q0 39 -24 58t-64 19zM124 234h219v318q-150 -75 -219 -318zM620 65h149q64 0 101 39.5t37 106.5q0 57 -40.5 98.5t-97.5 41.5q-61 0 -105 -41.5t-44 -98.5v-146z" />
    <glyph glyph-name="A_H" horiz-adv-x="1036" 
d="M894 358v292h65v-650h-65v293h-274v-293h-65v585h-72q-39 0 -75 -9v-576h-65v169h-233q-15 -90 -15 -169h-65q0 257 110 440q127 210 343 210h137v-292h274zM124 234h219v318q-150 -75 -219 -318z" />
    <glyph glyph-name="A_L" horiz-adv-x="891" 
d="M620 650v-585h241v-65h-306v585h-72q-39 0 -75 -9v-576h-65v169h-233q-15 -90 -15 -169h-65q0 257 110 440q127 210 343 210h137zM124 234h219v318q-150 -75 -219 -318z" />
    <glyph glyph-name="A_N" horiz-adv-x="1021" 
d="M888 522v128h65v-650h-65v447q-148 88 -265 119v-566h-65v579q-38 6 -75 6q-34 0 -75 -9v-576h-65v169h-233q-15 -90 -15 -169h-65q0 257 110 440q127 210 343 210q172 0 405 -128zM124 234h219v318q-150 -75 -219 -318z" />
    <glyph glyph-name="A_P" horiz-adv-x="960" 
d="M740 650q73 0 126 -52t53 -125t-53 -125t-126 -52h-121v-296h-65v585h-71q-39 0 -75 -9v-576h-65v169h-233q-15 -90 -15 -169h-65q0 257 110 440q127 210 343 210h257zM619 361h121q47 0 80.5 33t33.5 79q0 47 -33.5 79.5t-80.5 32.5h-121v-224zM124 234h219v318
q-150 -75 -219 -318z" />
    <glyph glyph-name="A_h" horiz-adv-x="963" 
d="M757 425q69 0 112 -41.5t43 -114.5v-269h-63v253q0 109 -107 109q-51 0 -81.5 -34t-30.5 -83v-245h-63v585h-84q-39 0 -75 -9v-576h-65v169h-233q-15 -90 -15 -169h-65q0 257 110 440q127 210 343 210h147v-291q44 66 127 66zM124 234h219v318q-150 -75 -219 -318z" />
    <glyph glyph-name="B_o" horiz-adv-x="698" 
d="M519 430q-49 0 -83.5 34.5t-34.5 82.5q0 49 34.5 83.5t83.5 34.5q48 0 82.5 -34.5t34.5 -83.5q0 -48 -34.5 -82.5t-82.5 -34.5zM320 366h143q73 0 125.5 -53.5t52.5 -130.5t-52.5 -129.5t-125.5 -52.5h-386v650h108q73 0 124.5 -51.5t51.5 -124.5q0 -58 -41 -108z
M519 602q-23 0 -39 -16t-16 -39t16 -39t39 -16q22 0 38.5 16.5t16.5 38.5t-16.5 38.5t-38.5 16.5zM185 585h-43v-219h43q45 0 77.5 31.5t32.5 76.5q0 46 -32.5 78.5t-77.5 32.5zM142 65h321q46 0 79.5 34t33.5 83q0 50 -33.5 84.5t-79.5 34.5h-321v-236z" />
    <glyph glyph-name="B_u" horiz-adv-x="699" 
d="M320 366h143q73 0 125.5 -53.5t52.5 -130.5t-52.5 -129.5t-125.5 -52.5h-386v650h108q73 0 124.5 -51.5t51.5 -124.5q0 -58 -41 -108zM532 419q-41 0 -71 29.5t-30 71.5v130h63v-130q0 -16 11 -27t27 -11t27 11t11 27v130h63v-130q0 -42 -29.5 -71.5t-71.5 -29.5z
M185 585h-43v-219h43q45 0 77.5 31.5t32.5 76.5q0 46 -32.5 78.5t-77.5 32.5zM142 65h321q46 0 79.5 34t33.5 83q0 50 -33.5 84.5t-79.5 34.5h-321v-236z" />
    <glyph glyph-name="E_N" horiz-adv-x="994" 
d="M852 522v128h65v-650h-65v446q-135 79 -264 112l-1 -558h-65l1 572q-75 13 -143 13h-238v-227h181v-65h-181v-228h258v-65h-323v650h299q236 0 476 -128z" />
    <glyph glyph-name="T_A" horiz-adv-x="964" 
d="M662 650h73l198 -650h-67l-51 169h-243q-44 -93 -101.5 -136t-135.5 -43q-116 0 -195.5 78t-79.5 202q0 94 59.5 169t176.5 144h-234v67h526v-67h-161q-148 -71 -224 -146t-76 -167q0 -97 59 -155t149 -58q147 0 223 251zM600 234h195l-97 319l-69 -232q-12 -40 -29 -87z
" />
    <glyph glyph-name="T_O" horiz-adv-x="1253" 
d="M872 665q134 0 232.5 -102.5t98.5 -236.5q0 -137 -98 -239t-233 -102q-88 0 -164 51.5t-120 129.5q-33 -76 -102.5 -128.5t-150.5 -52.5q-121 0 -198 82.5t-77 197.5q0 101 59 175.5t177 144.5h-234v65h548v-65h-183q-149 -72 -224.5 -147t-75.5 -173q0 -86 61 -150.5
t147 -64.5q87 0 149 67.5t63 156.5v52q0 136 94 237.5t231 101.5zM872 52q108 0 186 82t78 192q0 109 -78 190.5t-186 81.5q-107 0 -183.5 -81.5t-76.5 -190.5q0 -112 77 -193t183 -81z" />
    <glyph glyph-name="T_a" horiz-adv-x="810" 
d="M682 351v64h63v-413h-63v61q-47 -63 -143 -63h-203q-113 0 -194.5 80.5t-81.5 193.5q0 96 59.5 170.5t173.5 140.5h-230v65h548v-65h-186q-140 -68 -219 -142.5t-79 -168.5q0 -88 60 -148.5t148 -60.5h55q-58 61 -58 142q0 87 61.5 151.5t145.5 64.5q89 0 143 -72z
M539 63q58 0 100.5 41t42.5 103q0 64 -42.5 107.5t-100.5 43.5t-100 -44.5t-42 -106.5q0 -60 41.5 -102t100.5 -42z" />
    <glyph glyph-name="T_e" horiz-adv-x="770" 
d="M735 209v-4h-336q0 -55 40.5 -98.5t98.5 -43.5q38 0 71 19.5t51 50.5h64q-23 -58 -73 -95.5t-113 -37.5h-202q-113 0 -194.5 80.5t-81.5 193.5q0 96 59.5 170.5t173.5 140.5h-230v65h548v-65h-186q-140 -68 -219 -142.5t-79 -168.5q0 -88 60 -148.5t148 -60.5l61 -2
q-55 60 -55 142q0 87 57.5 148.5t139.5 61.5q81 0 138 -60t59 -146zM411 263h255q-18 40 -52 64.5t-76 24.5t-75.5 -24.5t-51.5 -64.5z" />
    <glyph glyph-name="T_i" horiz-adv-x="676" 
d="M63 585v65h548v-65h-186q-140 -68 -219 -142.5t-79 -168.5q0 -88 60 -148.5t148 -60.5h194v193h-40v65h105v-323h-258q-113 0 -194.5 80.5t-81.5 193.5q0 96 59.5 170.5t173.5 140.5h-230zM561 504q19 0 33.5 -14t14.5 -34t-14 -34t-34 -14t-34 14t-14 34t14 34t34 14z
" />
    <glyph glyph-name="T_o" horiz-adv-x="772" 
d="M529 425q89 0 148.5 -60.5t59.5 -154.5q0 -87 -60.5 -148.5t-147.5 -61.5h-3h-190q-113 0 -194.5 80.5t-81.5 193.5q0 96 59.5 171t173.5 140h-230v65h548v-65h-186q-140 -68 -219 -142.5t-79 -168.5q0 -88 60 -148t148 -61h42q-57 60 -57 145q0 94 60 154.5t149 60.5z
M529 65q62 0 102.5 40t40.5 105q0 67 -40.5 108.5t-102.5 41.5t-103 -41.5t-41 -108.5q0 -64 41 -104.5t103 -40.5z" />
    <glyph glyph-name="T_u" horiz-adv-x="845" 
d="M717 168v247h63v-415h-63v49q-46 -49 -110 -49h-271q-113 0 -194.5 80.5t-81.5 193.5q0 96 59.5 171t173.5 140h-230v65h548v-65h-186q-140 -68 -219 -142.5t-79 -168.5q0 -88 60 -148t148 -61l134 -1q-38 46 -38 110v241h63v-241q0 -48 32.5 -79.5t80.5 -31.5
q44 0 77 31t33 74z" />
    <glyph glyph-name="c_t" horiz-adv-x="734" 
d="M606 335h97v63h-97q0 70 -37.5 116.5t-101.5 46.5q-67 0 -105.5 -46t-40.5 -117q-40 19 -81 19q-84 0 -144.5 -64t-60.5 -151q0 -86 60 -149t145 -63q68 0 120 40t77 117h-64q-41 -94 -133 -94q-59 0 -100.5 44t-41.5 105t42 106.5t100 45.5q42 0 77.5 -24.5t55.5 -70.5
h64q-18 52 -37 77q-18 25 -18 59q0 42 25.5 72.5t59.5 30.5t55 -28.5t21 -71.5h-91v-63h91v-224q0 -48 33 -79.5t78 -31.5h50v63h-50q-20 0 -34 14.5t-14 33.5v224z" />
    <glyph glyph-name="f_a" horiz-adv-x="727" 
d="M465 416h197v-416h-63v36q-36 -42 -93 -42q-64 0 -110.5 46t-46.5 110t46 109t111 45q57 0 93 -41v90h-137q-75 0 -123.5 37.5t-48.5 107.5q0 37 -22.5 62t-57.5 25t-58 -22.5t-23 -57.5q0 -36 23 -63t58 -27h75v-63h-93v-352h-63v352h-99v63h70q-36 33 -36 90t43 101
t103 44q61 0 100.5 -41t39.5 -103q0 -90 115 -90zM506 58q39 0 66 26.5t27 65.5q0 37 -27.5 64t-65.5 27t-65.5 -27t-27.5 -64q0 -39 27.5 -65.5t65.5 -26.5z" />
    <glyph glyph-name="f_b" horiz-adv-x="810" 
d="M566 425q87 0 148 -61.5t61 -156.5t-60 -156t-147 -61q-54 0 -94.5 22.5t-53.5 46.5v-59h-63v587h-148q-35 -1 -57.5 -24t-22.5 -58q0 -36 23 -63t58 -27h75v-63h-93v-352h-63v352h-99v63h70q-36 33 -36 90t42.5 100.5t102.5 44.5h211v-292q47 67 146 67zM566 55
q60 0 102 42t42 110t-42 110.5t-102 42.5q-59 0 -102.5 -40.5t-43.5 -100.5v-23q0 -57 43 -99t103 -42z" />
    <glyph glyph-name="r_a" horiz-adv-x="683" 
d="M618 415v-415h-63v34q-37 -44 -94 -44q-70 0 -115 44.5t-45 108.5q0 66 45 113.5t115 47.5q57 0 94 -42v90h-285q-57 0 -99.5 -43t-42.5 -100v-209h-63v415h63v-86q52 86 142 86h348zM461 52q44 0 69 28.5t25 68.5q0 38 -27.5 65.5t-66.5 27.5q-42 0 -69.5 -27.5
t-27.5 -71.5q0 -41 28.5 -66t68.5 -25z" />
    <glyph glyph-name="t_i" horiz-adv-x="526" 
d="M413 596q19 0 33.5 -14t14.5 -34t-14 -34t-34 -14t-34 14t-14 34t14 34t34 14zM169 415h276v-415h-63v352h-202v-239q0 -21 12.5 -35.5t34.5 -14.5h52v-63h-52q-44 0 -77 32t-33 73v247h-87v63q59 0 95 39t44 100h65q-16 -105 -65 -139z" />
    <glyph glyph-name="t_o" horiz-adv-x="790" 
d="M544 425q88 0 149.5 -63t61.5 -156q0 -89 -62 -151t-149 -62q-103 0 -167 82q-18 -34 -50.5 -54.5t-71.5 -20.5q-57 0 -97.5 42.5t-40.5 101.5v208h-87v63q59 0 95 39t44 100h65q-16 -105 -65 -139h110v-63h-99v-207q0 -35 21.5 -58.5t53.5 -23.5q33 0 56.5 24t22.5 58
l-1 58q-1 98 60.5 160t150.5 62zM544 58q61 0 103.5 42.5t42.5 105.5q0 67 -42 110.5t-104 43.5q-65 0 -105.5 -43t-40.5 -111q0 -67 41.5 -107.5t104.5 -40.5z" />
    <glyph glyph-name="T_A.ss01" horiz-adv-x="970" 
d="M950 650l13 -64q-47 -10 -83 -25v-561h-65v169h-235q-39 -82 -102 -130.5t-143 -48.5q-116 0 -195.5 78t-79.5 202q0 94 59.5 168.5t175.5 144.5h-233v67h548v-67h-183q-148 -71 -224 -146t-76 -167q0 -97 59 -155t149 -58q54 0 94 25t65 68t43 87t39 98t41 85
q118 188 333 230zM604 234h211v294q-82 -51 -127 -116.5t-84 -177.5z" />
    <glyph glyph-name="f_a.ss01" horiz-adv-x="683" 
d="M632 415v-415h-63v36q-35 -41 -93 -41q-65 0 -111 45.5t-46 109.5t46 109t111 45q57 0 93 -41v89h-377v-352h-63v352h-99v63h70q-36 33 -36 90t43 101t103 44q61 0 99.5 -43t38.5 -114h-63q0 44 -21 68t-54 24q-35 0 -58 -22.5t-23 -57.5q0 -36 23 -63t58 -27h422z
M476 58q39 0 66 26.5t27 65.5q0 37 -27.5 64t-65.5 27t-65.5 -27t-27.5 -64q0 -39 27.5 -65.5t65.5 -26.5z" />
    <glyph glyph-name="t_i.ss01" horiz-adv-x="526" 
d="M413 596q19 0 33.5 -14t14.5 -34t-14 -34t-34 -14t-34 14t-14 34t14 34t34 14zM180 415h265v-415h-63v352h-202v-239q0 -21 12.5 -35.5t34.5 -14.5h52v-63h-52q-44 0 -77 32t-33 73v247h-87v63h87v139h63v-139z" />
    <glyph glyph-name="t_o.ss01" horiz-adv-x="800" 
d="M549 430q90 0 153 -64t63 -156q0 -93 -63.5 -159t-152.5 -66q-106 0 -172 89q-45 -89 -121 -89q-63 0 -101 41.5t-38 112.5v213h-87v63h87v140h63v-140h99v-63h-99v-213q0 -46 21 -68.5t55 -22.5q36 0 57 30t21 67v17t-0.5 31.5t-0.5 16.5q0 92 63 156t153 64zM549 50
q62 0 106.5 47t44.5 113q0 65 -44 110t-107 45t-107 -45t-44 -110q0 -66 44.5 -113t106.5 -47z" />
    <glyph glyph-name="zero.osf" horiz-adv-x="503" 
d="M251 -15q91 0 154 64t63 159q0 92 -63.5 157t-153.5 65q-89 0 -152.5 -65t-63.5 -157q0 -95 63 -159t153 -64zM251 50q-63 0 -107 45.5t-44 112.5q0 66 44 111.5t107 45.5t107.5 -45.5t44.5 -111.5q0 -67 -44.5 -112.5t-107.5 -45.5z" />
    <glyph glyph-name="one.osf" horiz-adv-x="225" 
d="M165 415v-415h-63v352h-62v63h125z" />
    <glyph glyph-name="two.osf" horiz-adv-x="443" 
d="M258 63h150v-63h-373v68h25q107 0 194.5 55t87.5 122q0 50 -35.5 85t-85.5 35t-85.5 -35t-35.5 -85v-10h-65v9q0 77 54.5 131.5t131.5 54.5t131.5 -54.5t54.5 -131.5q0 -39 -17.5 -74t-43 -57t-49 -35t-39.5 -15z" />
    <glyph glyph-name="three.osf" horiz-adv-x="442" 
d="M407 244q0 -99 -81 -154q81 -55 81 -154q0 -77 -54.5 -131.5t-131.5 -54.5t-131.5 54.5t-54.5 131.5v9h65v-10q0 -50 35.5 -85t85.5 -35t85.5 35t35.5 85q0 51 -35.5 86.5t-85.5 35.5h-29v66h29q50 0 85.5 35.5t35.5 86.5q0 50 -35.5 85t-85.5 35t-85.5 -35t-35.5 -85
v-10h-65v9q0 77 54.5 131.5t131.5 54.5t131.5 -54.5t54.5 -131.5z" />
    <glyph glyph-name="four.osf" horiz-adv-x="505" 
d="M355 415v-442h113v-63h-113v-145h-63v145h-268l268 505h63zM292 275l-160 -302h160v302z" />
    <glyph glyph-name="five.osf" horiz-adv-x="468" 
d="M217 162q86 0 146 -60.5t60 -145.5t-60.5 -145.5t-145.5 -60.5q-56 0 -104 28.5t-75 75.5l56 30q19 -32 52 -51.5t71 -19.5q59 0 101.5 42t42.5 101t-42.5 101t-101.5 42q-58 0 -96 -38h-63l67 354h230v-63h-179l-39 -207q37 17 80 17z" />
    <glyph glyph-name="six.osf" horiz-adv-x="482" 
d="M328 650l-142 -260q104 25 182.5 -36.5t78.5 -162.5q0 -86 -60 -146t-146 -60t-146 60t-60 146q0 55 26 101l197 358h70zM241 48q60 0 102 41.5t42 101.5t-42 101.5t-102 41.5t-102 -42t-42 -101q0 -60 42 -101.5t102 -41.5z" />
    <glyph glyph-name="seven.osf" horiz-adv-x="384" 
d="M32 352v63h327l-186 -650h-66l169 587h-244z" />
    <glyph glyph-name="eight.osf" horiz-adv-x="482" 
d="M336 374q51 -26 81 -74.5t30 -108.5q0 -86 -60 -146t-146 -60t-146 60t-60 146q0 60 30.5 109t81.5 75q-25 18 -44.5 56t-19.5 73q0 69 46.5 115t112.5 46t111.5 -46t45.5 -115q0 -39 -18 -75t-45 -55zM242 598q-40 0 -66.5 -26.5t-26.5 -68.5q0 -39 27 -67.5t66 -28.5
t65 28.5t26 67.5q0 42 -26 68.5t-65 26.5zM241 48q60 0 102 41.5t42 101.5t-42 101.5t-102 41.5t-102 -41.5t-42 -101.5t42 -101.5t102 -41.5z" />
    <glyph glyph-name="nine.osf" horiz-adv-x="482" 
d="M447 224q0 -55 -26 -101l-197 -358h-70l142 260q-104 -25 -182.5 36.5t-78.5 162.5q0 86 60 146t146 60t146 -60t60 -146zM241 81q60 0 102 42t42 101q0 60 -42 101.5t-102 41.5t-102 -41.5t-42 -101.5t42 -101.5t102 -41.5z" />
    <glyph glyph-name="zero.ss01" horiz-adv-x="481" 
d="M123 52v-52h-63v650h361v-650h-63v52h-235zM358 587h-235v-472h235v472z" />
    <glyph glyph-name="one.ss01" horiz-adv-x="230" 
d="M170 650v-650h-63v535h-67v63h67v52h63z" />
    <glyph glyph-name="two.ss01" horiz-adv-x="521" 
d="M447 648l49 -40l-379 -545h312v-63h-389v63l192 276h-14q-68 0 -116.5 48t-48.5 115t48.5 115t116.5 48q56 0 99.5 -33t58.5 -85zM218 398q43 0 74 30.5t31 73.5t-30.5 73t-74.5 30t-74.5 -30t-30.5 -73t31 -73.5t74 -30.5z" />
    <glyph glyph-name="three.ss01" horiz-adv-x="438" 
d="M378 650v-650h-63v52h-275v63h275v209h-201v63h201v200h-275v63h338z" />
    <glyph glyph-name="four.ss01" horiz-adv-x="476" 
d="M358 215v144h63v-359h-63v152h-258l-33 -48l-52 37l352 509l51 -37l-275 -398h215z" />
    <glyph glyph-name="five.ss01" horiz-adv-x="488" 
d="M47 0v63h157q72 0 114.5 40.5t42.5 100.5q0 58 -36 94t-93 36q-86 0 -122 -91h-63l78 407h230v-63h-179l-40 -214q38 26 96 26q82 0 138 -55.5t56 -139.5q0 -87 -60.5 -145.5t-161.5 -58.5h-157z" />
    <glyph glyph-name="six.ss01" horiz-adv-x="481" 
d="M123 52v-52h-63v650h361v-63h-298v-214h298v-373h-63v52h-235zM358 310h-235v-195h235v195z" />
    <glyph glyph-name="seven.ss01" horiz-adv-x="505" 
d="M136 587v63h339q-50 -346 -428 -650l-39 50q307 240 389 537h-261z" />
    <glyph glyph-name="eight.ss01" horiz-adv-x="481" 
d="M123 52v-52h-63v650h361v-650h-63v52h-235zM358 587h-235v-230h235v230zM358 294h-235v-179h235v179z" />
    <glyph glyph-name="nine.ss01" horiz-adv-x="481" 
d="M421 650v-650h-63v52h-298v63h298v179h-298v356h361zM358 587h-235v-230h235v230z" />
    <glyph glyph-name="parenleft.case" horiz-adv-x="317" 
d="M182 726h75q-137 -194 -137 -402q0 -206 135 -401h-74q-37 58 -60 104t-43.5 126.5t-20.5 170.5q0 89 21 170.5t44 127t60 104.5z" />
    <glyph glyph-name="parenright.case" horiz-adv-x="277" 
d="M20 726h75q37 -59 60 -104.5t44 -127t21 -170.5q0 -129 -33 -219.5t-91 -181.5h-74q135 195 135 401q0 208 -137 402z" />
    <glyph glyph-name="braceleft.case" horiz-adv-x="341" 
d="M305 -14v-63h-52q-65 0 -97.5 48t-32.5 122v70q0 73 -19.5 101.5t-63.5 28.5v63q44 0 63.5 28.5t19.5 101.5v70q0 74 32.5 122t97.5 48h52v-63h-19q-59 0 -79.5 -31t-20.5 -109v-50q0 -82 -17 -114.5t-58 -32.5v-3q41 0 58 -32.5t17 -114.5v-50q0 -78 20.5 -109t79.5 -31
h19z" />
    <glyph glyph-name="braceright.case" horiz-adv-x="341" 
d="M88 -77h-52v63h19q59 0 79.5 31t20.5 109v50q0 82 17 114.5t58 32.5v3q-41 0 -58 32.5t-17 114.5v50q0 78 -20.5 109t-79.5 31h-19v63h52q65 0 97.5 -48t32.5 -122v-70q0 -73 19.5 -101.5t63.5 -28.5v-63q-44 0 -63.5 -28.5t-19.5 -101.5v-70q0 -74 -32.5 -122t-97.5 -48
z" />
    <glyph glyph-name="bracketleft.case" horiz-adv-x="270" 
d="M221 -14v-63h-129v803h129v-63h-66v-677h66z" />
    <glyph glyph-name="bracketright.case" horiz-adv-x="270" 
d="M178 726v-803h-129v63h66v677h-66v63h129z" />
    <glyph glyph-name="hyphen.case" horiz-adv-x="409" 
d="M337 356v-63h-265v63h265z" />
    <glyph glyph-name="uni00AD.case" horiz-adv-x="409" 
d="M337 356v-63h-265v63h265z" />
    <glyph glyph-name="endash.case" horiz-adv-x="506" 
d="M434 356v-63h-362v63h362z" />
    <glyph glyph-name="emdash.case" horiz-adv-x="616" 
d="M544 356v-63h-472v63h472z" />
    <glyph glyph-name="guillemotleft.case" horiz-adv-x="462" 
d="M139 323l96 -96l-44 -45l-141 141l144 145l45 -45zM298 323l96 -96l-44 -45l-141 141l144 145l45 -45z" />
    <glyph glyph-name="guillemotright.case" horiz-adv-x="462" 
d="M113 468l141 -141l-144 -145l-45 45l100 100l-97 96zM272 468l141 -141l-144 -145l-45 45l100 100l-97 96z" />
    <glyph glyph-name="guilsinglleft.case" horiz-adv-x="303" 
d="M139 323l96 -96l-44 -45l-141 141l144 145l45 -45z" />
    <glyph glyph-name="guilsinglright.case" horiz-adv-x="303" 
d="M113 468l141 -141l-144 -145l-45 45l100 100l-97 96z" />
    <glyph glyph-name="space.frac" horiz-adv-x="100" 
 />
    <glyph glyph-name="at.ss01" horiz-adv-x="757" 
d="M459 324v38h61v-259h28q40 0 64 28.5t24 73.5q0 108 -76 184.5t-184 76.5q-107 0 -183.5 -77t-76.5 -184t76.5 -184t183.5 -77q89 0 159 54l39 -51q-88 -67 -198 -67q-133 0 -228 95.5t-95 229.5t95 229.5t228 95.5q134 0 229 -95.5t95 -229.5q0 -72 -41.5 -119
t-110.5 -47h-184q-64 0 -110 47t-46 112q0 66 46 113t110 47q53 0 95 -34zM364 103h95v106q0 35 -28.5 61.5t-66.5 26.5q-40 0 -68 -29t-28 -70q0 -40 28 -67.5t68 -27.5z" />
    <glyph glyph-name="caron.alt" horiz-adv-x="205" 
d="M52 511l42 153l63 -19l-59 -148z" />
    <glyph glyph-name="U021A" horiz-adv-x="171" 
d="M86 -38q14 0 24.5 -10.5t10.5 -24.5q0 -9 -5 -21l-26 -66l-24 7l14 45q-13 2 -21.5 12t-8.5 23q0 14 11 24.5t25 10.5z" />
    </font>
</defs>
</svg>
